<svg xmlns="http://www.w3.org/2000/svg" width="134" height="96" viewBox="0 0 134 96"><path d="M71.3 46.7h-8.8l2.5 5.7zm-11.7.1l-3.5 6.3h6.2zm15.2 6.3h6.5l-6.5-6-6.4 6zm12.4-6.4h-8.8l6.3 5.7zm-30.4 9.1l13.6 15.6-6.9-15.6zm18-22.7c-8.6-8.7-22.6-8.7-31.3-.1s-8.9 22.5.7 32l30.6 30.6L105.4 65c9.5-9.5 9.3-23.4.7-32-8.6-8.6-22.6-8.6-31.3.1zm0 47.7L52.1 54.6 58 43.9h33.6l5.9 10.7-22.7 26.2zm0-25h-8.3l8.3 19 8.4-19zm12.6-2.7h6.2l-3.5-6.3zm-8.1 18.3l13.6-15.6h-6.7zm-45-54.2c-.5 0-2-.4-5.2-3.6-3.4-3.3-3.7-5.3-3.7-5.8 0 .5-.3 2.5-3.7 5.8-3.3 3.2-4.8 3.5-5.2 3.6.5 0 2 .4 5.2 3.6 3.4 3.3 3.7 5.3 3.7 5.8 0-.5.3-2.5 3.7-5.8 3.2-3.2 4.8-3.6 5.2-3.6zm96 24.3c-2.3-2.3-2.5-3.6-2.6-4 0 .4-.2 1.7-2.6 4-2.2 2.2-3.3 2.4-3.6 2.5.3 0 1.4.3 3.6 2.5 2.3 2.3 2.5 3.6 2.6 4 0-.4.2-1.7 2.6-4 2.2-2.2 3.3-2.4 3.6-2.5-.3-.1-1.3-.4-3.6-2.5zm-26.8-26.2c0-.4.3-2 2.9-4.6 2.6-2.5 3.8-2.8 4.2-2.8-.4 0-1.6-.3-4.2-2.8-2.7-2.6-2.9-4.2-2.9-4.6 0 .4-.3 2-2.9 4.6-2.6 2.5-3.8 2.8-4.2 2.8.4 0 1.6.3 4.2 2.8 2.7 2.6 2.9 4.1 2.9 4.6zM37.1 72c0 .5-.3 2.3-3.5 5.4-3 2.9-4.4 3.3-4.9 3.3.4 0 1.8.4 4.9 3.3 3.1 3.1 3.4 4.9 3.5 5.4 0-.5.3-2.3 3.5-5.4 3-2.9 4.4-3.3 4.9-3.3-.4 0-1.8-.4-4.9-3.3-3.2-3-3.5-4.9-3.5-5.4zM6.2 48.2c0 .4-.2 1.7-2.6 4C1.4 54.4.3 54.6 0 54.7c.3 0 1.4.3 3.6 2.5 2.3 2.3 2.5 3.6 2.6 4 0-.4.2-1.7 2.6-4 2.2-2.2 3.3-2.4 3.6-2.5-.3 0-1.4-.3-3.6-2.5-2.4-2.3-2.6-3.6-2.6-4z" fill="#fff"/></svg>