<svg baseProfile="tiny" xmlns="http://www.w3.org/2000/svg" preserveAspectRatio="xMinYMin meet" viewBox="0 0 140 105" width="140" height="105"><g fill="#fff"><path d="M71.3 46.7h-8.8l2.5 5.7zM59.6 46.8l-3.5 6.3h6.2zM74.8 53.1h6.5l-6.5-6-6.4 6zM87.2 46.7h-8.8l6.3 5.7zM56.8 55.8l13.6 15.6-6.9-15.6zM74.8 33.1c-8.6-8.7-22.6-8.7-31.3-.1s-8.9 22.5.7 32l30.6 30.6 30.6-30.6c9.5-9.5 9.3-23.4.7-32-8.6-8.6-22.6-8.6-31.3.1zm0 47.7l-22.7-26.2 5.9-10.7h33.6l5.9 10.7-22.7 26.2zM74.8 55.8h-8.3l8.3 19 8.4-19zM87.4 53.1h6.2l-3.5-6.3zM79.3 71.4l13.6-15.6h-6.7zM34.3 17.2c-.5 0-2-.4-5.2-3.6-3.4-3.3-3.7-5.3-3.7-5.8 0 .5-.3 2.5-3.7 5.8-3.3 3.2-4.8 3.5-5.2 3.6.5 0 2 .4 5.2 3.6 3.4 3.3 3.7 5.3 3.7 5.8 0-.5.3-2.5 3.7-5.8 3.2-3.2 4.8-3.6 5.2-3.6zM130.3 41.5c-2.3-2.3-2.5-3.6-2.6-4 0 .4-.2 1.7-2.6 4-2.2 2.2-3.3 2.4-3.6 2.5.3 0 1.4.3 3.6 2.5 2.3 2.3 2.5 3.6 2.6 4 0-.4.2-1.7 2.6-4 2.2-2.2 3.3-2.4 3.6-2.5-.3-.1-1.3-.4-3.6-2.5zM103.5 15.3c0-.4.3-2 2.9-4.6 2.6-2.5 3.8-2.8 4.2-2.8-.4 0-1.6-.3-4.2-2.8-2.7-2.6-2.9-4.2-2.9-4.6 0 .4-.3 2-2.9 4.6-2.6 2.5-3.8 2.8-4.2 2.8.4 0 1.6.3 4.2 2.8 2.7 2.6 2.9 4.1 2.9 4.6zM37.1 72c0 .5-.3 2.3-3.5 5.4-3 2.9-4.4 3.3-4.9 3.3.4 0 1.8.4 4.9 3.3 3.1 3.1 3.4 4.9 3.5 5.4 0-.5.3-2.3 3.5-5.4 3-2.9 4.4-3.3 4.9-3.3-.4 0-1.8-.4-4.9-3.3-3.2-3-3.5-4.9-3.5-5.4zM6.2 48.2c0 .4-.2 1.7-2.6 4-2.2 2.2-3.3 2.4-3.6 2.5.3 0 1.4.3 3.6 2.5 2.3 2.3 2.5 3.6 2.6 4 0-.4.2-1.7 2.6-4 2.2-2.2 3.3-2.4 3.6-2.5-.3 0-1.4-.3-3.6-2.5-2.4-2.3-2.6-3.6-2.6-4z"/></g></svg>
