<svg xmlns="http://www.w3.org/2000/svg" width="500" height="500" viewBox="0 0 500 500"><path fill="#fff" d="M332.9 437.3l10.4-10.4c3.2-3.2 3.2-8 .2-10.9-2.9-2.9-7.7-2.9-10.6 0-2.9-2.9-7.7-3-10.6 0-2.9 2.9-3 7.7.2 10.9 3.6 3.5 9.4 9.3 10.4 10.4zm79.3-214.9c0 .7-.4 3.4-5.1 8-4.5 4.3-6.6 4.9-7.2 4.9.6 0 2.7.6 7.2 4.9 4.6 4.5 5.1 7.2 5.1 8 0-.7.4-3.4 5.1-8 4.5-4.3 6.6-4.9 7.2-4.9-.6 0-2.7-.6-7.2-4.9-4.6-4.6-5-7.3-5.1-8zM243.1 284H224l-3.3 6.1 12.9 14.8 12.9-14.8-3.4-6.1zm-.9 1.7l2 3.5h-3.5l1.5-3.5zm-1.6-.1l-1.4 3.2-3.6-3.2h5zm-3.4 3.6h-7.4l3.7-3.4 3.7 3.4zm-5.6-3.6l-3.6 3.2-1.4-3.2h5zm-6.7.1l1.6 3.5H223l1.9-3.5zm-1.5 5.1h3.8l3.9 8.8-7.7-8.8zm5.4 0h9.4l-4.7 10.8-4.7-10.8zm7.3 8.8l3.9-8.8h3.8l-7.7 8.8zM99.3 327.2l6-6c1.9-1.9 1.8-4.6.1-6.2-1.7-1.7-4.4-1.7-6.1 0-1.7-1.7-4.4-1.7-6.1 0s-1.7 4.4.1 6.2l6 6zM184 150.4c0 .4-.3 2-2.9 4.6-2.6 2.5-3.8 2.8-4.1 2.8.4 0 1.6.3 4.1 2.8 2.7 2.6 2.9 4.1 2.9 4.6 0-.4.3-2 2.9-4.6 2.6-2.5 3.8-2.8 4.1-2.8-.4 0-1.6-.3-4.1-2.8-2.6-2.6-2.8-4.1-2.9-4.6zM475.3 382h-11l-1.9 3.5 7.4 8.5 7.4-8.5-1.9-3.5zm-.5.9l1.1 2h-2l.9-2zm-1 0l-.8 1.9-2-1.9h2.8zm-1.9 2h-4.2l2.1-1.9 2.1 1.9zm-3.2-2l-2 1.9-.8-1.9h2.8zm-3.9 0l.9 2h-2l1.1-2zm-.8 2.9h2.2l2.2 5.1-4.4-5.1zm3.1 0h5.4l-2.7 6.2-2.7-6.2zm4.2 5.1l2.2-5.1h2.2l-4.4 5.1zM363.4 107.7l16.3-16.3c5.1-5.1 5-12.5.4-17.1s-12.1-4.6-16.7 0c-4.6-4.6-12.1-4.6-16.7 0s-4.7 12 .4 17.1l16.3 16.3zM39.8 425.5c0 1.1-.7 5.4-8 12.5-7 6.8-10.3 7.6-11.3 7.7 1 .1 4.3.9 11.3 7.7 7.3 7.1 7.9 11.3 8 12.5 0-1.1.7-5.4 8-12.5 7-6.8 10.3-7.6 11.3-7.7-1-.1-4.3-.9-11.3-7.7-7.3-7.1-8-11.4-8-12.5zM94.1 38.1H64.3L59 47.6l20.1 23.2 20.1-23.2-5.1-9.5zm-1.4 2.6l3.1 5.6h-5.5l2.4-5.6zm-2.6-.1l-2.2 5.1-5.6-5.1h7.8zm-5.2 5.7H73.5l5.7-5.3 5.7 5.3zM76 40.6l-5.6 5.1-2.2-5.1H76zm-10.4.1l2.4 5.6h-5.5l3.1-5.6zm-2.4 8h6l6.1 13.9-12.1-13.9zm8.6 0h14.8l-7.4 16.9-7.4-16.9zm11.4 13.9l6.1-13.9h6L83.2 62.6z"/></svg>