<svg xmlns="http://www.w3.org/2000/svg" width="277.6" height="262.7" viewBox="0 0 277.6 262.7"><path fill="#fff" d="M26.4 138c0 2.7 0 5.3-.1 8-6.8-.8-13.6-1.6-20.5-2.3-1.9 8.1 3.5 16.1 10 21.3s14.3 8.7 20 14.7c4.7 4.9 7.8 11.1 11.3 16.9 5.6 9.3 12.5 17.9 20.5 25.4 5.2 4.9 11 9.5 17.7 12 7.8 2.9 16.3 3.1 24.6 3.2 15.4.2 30.8.3 46.2.5 3 0 6.2.1 9 1.3 2.5 1.1 4.5 3 6.6 4.8 5.8 5.1 12.2 9.4 19 12.9-3.8-8.3-8.2-16.3-13.3-23.9 7.2-.4 13.4 4.4 19.7 7.8 9.2 5.1 19.7 7.8 30.2 7.8-1.1-3.1-4.3-5.1-5.5-8.2-2.5-6.5 4.6-12.1 9.4-17.1 8.7-9.1 10.9-22.4 15-34.2 4.1-11.7 10.5-22.7 18.7-32-2.6-.7-5.3-.6-7.9.3 6.2-6.8 9.4-16.3 8.6-25.5-2.8.5-5.5 1-8.3 1.5 6.5-7.8 10.9-17.4 12.4-27.4-1.9.5-3.8 1.1-5.7 1.6 2.4-4.8-2.7-11.4-8-10.3.7-3.1 1.3-6.2 2-9.3-2.8.7-5.9.3-8.4-1.1l6.9-10.8c-2.6-.7-5.1-1.4-7.7-2.1-.7-7.8 4.2-15.8 11.5-18.7-9.4-3.1-13.6-14.4-13.5-24.3-3.6.6-7.5.3-10.4-1.9-2.8-2.2-4-6.8-1.6-9.6-1.7.1-3.3.2-5 .3.2-1.3-.1-2.7-.8-3.8-1.7-.1-3.5.4-4.9 1.3l-1.8-2.7c-5.1-1.8-10.8-1.5-15.7.9-3-1.9-6-3.7-9-5.6-1.2 3.5-5.1 5.9-8.7 5.4v10.1c-2.8.7-5.2 3.1-5.9 5.9 4.1.9 8.3 3 10 6.9 1.7 3.9-.9 9.4-5.1 9.4 1.8 1.5 2.1 4.4.7 6.2-1.4 1.8-4.3 2.2-6.2.9 1.5-1.9-1.6-4.4-3.9-3.8s-4 2.6-6.1 3.6c-3.6 1.7-8.4-.1-10-3.8-2.3 2.6-5.3 4.5-8.5 5.6-1.1-3.2-3.8-5.7-7-6.6-2.6 1.9-4.7 4.4-6.2 7.3-.9-3.1-3.9-5.5-7.2-5.5s-6.3 2.3-7.3 5.4c-2.1-2.3-4.1-4.6-6.2-6.9-2.4 2.8-5.6 4.9-9 6.3-1.5-2.3-3.5-4.3-5.9-5.8-1.2 3-3.8 5.5-7 6.5-3.9-1.3-7.3-3.9-9.6-7.3 6.9 1.2 14.3-4.1 15.3-11.1-2.6-.3-5.2-.5-7.9-.8 4.2-2 8.4-4 12.5-6.1-2.3-3.2-6.2-5.2-10.2-5.4 3.4-1.8 6.8-3.7 10.2-5.5-3.3-2.2-6.6-4.4-9.8-6.6.5-2.4 1.1-4.9 1.6-7.3h-7.3c.4-2.7-1.4-5-3.7-5.7-1.5 5-7.4 8.2-12.4 6.8-.1 1.3-.1 2.6-.2 3.9-3.4 1.3-5.8 4.9-5.7 8.5-2.7-.1-5.5.8-7.7 2.4-.4-2.3-1.9-4.3-4-5.3-1.5 1.5-2.7 3.3-3.2 5.3h-9.4c.7 1.6 1.3 3.2 2 4.7-6.9 5.3-10 15-7.4 23.3-2.8.6-5.7 1.7-7.5 4-1.8 2.3-2.1 6 .1 7.9-2 .1-4 .2-5.9.3.9 4.6 2.6 9.1 5.1 13-2.8.4-5.7.8-8.5 1.3-.1 3-.3 5.9-.4 8.9-2.8.7-5.3 2.4-6.9 4.7 4.9.1 9.5 4 10.4 8.9-4.4-1.3-9-1.6-13.5-1 .5 6.6 5.9 12.5 12.5 13.6-6.5 4.6-14.6 7.1-22.6 6.8 4 9.4 12.6 16.6 22.4 19z"/><path fill="#CCE8D9" d="M268.4 106.9c-2.4.4-4.8.8-7.3 1.2.5-1.9 1.1-3.9 1.6-5.8-5.3-1.2-8.9-7.3-7.4-12.5-3.4-1.2-5.9-4.7-5.9-8.3 3.6-.4 8.6-3.4 6.2-6.2-.8-.9-2.1-1.2-3.2-1.6-5.1-2.1-6.6-10-2.5-13.7 3.1-2.8 8.9-5.1 7.3-8.9-3.1 1.3-5.6-2.9-6.5-6.2-.9-3.3-3.8-7.3-6.8-5.7 0-2.7 0-5.3-.1-8-3.7-.1-7.3-2.2-9.5-5.2-.6-.8-3.8-10-4.3-9.9-2.2.6-4.2 1.6-6.1 2.9-.4.3-.9.7-1 1.2-.1.4 0 .7.2 1.1.7 2 1.9 3.9 2 6 .2 1.9-.6 3.9-2 5.2-1.3 1.2-3 1.8-4.7 2.4-2.5.9-5.2 1.8-7.9 1.2-1.1-.2-2.2-.7-3-1.6-.5-.5-.8-1.1-1.1-1.6l-6-10.2c-.4-.6-.7-1.6-.1-2 .4-.3 1-.1 1.5.1.8.3 1.7.4 2.5.3.3 0 .6-.1.8-.2.4-.3.4-.8.5-1.3.3-1.4 1.7-2.5 3.1-2.4V16c-.7 0-13.3-2.2-11.6-3.6-1.7 1.5-3.9 2.3-6.1 2.4 3.9 4.4-5.6 10.2-4.6 16 .3 1.7 1.4 3 2.3 4.4 2.2 3.5 1.8 7.2 2.3 11.1.6 5.1 2 3.6 6.8 5.1 2.3.7 4.6 2.3 4.9 4.6 0-3.2.1-6.4.4-9.6 2.3 1 4.7 1.6 7.2 1.7 1.2-2.8 3.6-5 6.4-6 1.5 2.3 3 4.7 4.4 7 .3.5.7 1 1.2 1.2.5.2 1 0 1.6-.1 1.8-.5 3.6-1.3 5.3-2.2.1 5.1 1.1 10.2 2.9 15 .2.6.5 1.2.5 1.9-.1 2-2.3 2.9-4 4-2.2 1.5-3.8 3.8-6 5.2-5 3-11.3.6-16.5-2.1-3.5-1.8-11.1-5.5-14.1-.5-1.5 2.5.3 7.4.1 10.5-.3 6.1-2.4 17.6 4.1 21.4 2.9 1.7 6.6 1.7 9.9 1 3.3-.6 6.6-1.8 9.9-2.1 1.9 3.6 4 7 6.5 10.3 5.5-3 10.7-6.4 15.7-10.2 3.1 3.7 5 8.3 5.4 13 .1 1.2.2 2.5 1 3.3.7.7 1.9.8 2.9.8 3.4.2 6.8.8 9.6 2.6s4.9 5.1 4.4 8.5c-5 1.2-9.9 2.8-14.1 5.8-4.1 3-7.4 7.4-8.1 12.4-.3 2.2-.3 4.7-2.1 6-1.8 1.3-4.4.5-5.9-1.1s-2.2-3.8-3-5.8c-1.6-3.7-4.4-7.3-8.3-8.2-1.2-.3-2.6-.3-3.6-1.2-.9-.8-1.1-2.2-1.6-3.4-.8-1.8-2.3-3.1-3.8-4.4-3.3-2.8-6.6-5.6-10-8.4-1.9-1.6-4-3.3-6.5-3.5-5.3-.5-4.2 3.4-4 6.5.4 5.3-.5 10.9-.8 16.2-.3 5.2-.6 10.5-1.9 15.6-1 4-2.6 7.9-4.6 11.5-3.2 5.8-7.3 11.1-12.8 14.7-5.5 3.6-11.2 5.7-15.9 10.4-.8.8-11.2 14.4-8.1 14.7 16.1 1.7 32.5.1 48-4.6 0-3.1-.6-6.2-1.7-9.1 6.8 1 13.8 0 20.1-2.8 3-1.3 6.7-2.9 9.2-.8 1.1.9 1.6 2.3 2 3.7 1.3 3.9 2.4 7.9 3.4 11.9.4 1.8.8 3.7.5 5.5-.5 3.1-2.9 5.5-5.3 7.5-9.1 7.6-20.2 12.9-31.8 15.1-8.2 1.5-16.7 1.6-25.1 1.6-23.5.1-47.1.2-70.3-3.6-4.9-.8-9.8-1.8-14.2-4-2.9-1.4-5.6-3.4-8.2-5.3-5.8-4.2-11.5-8.4-17.3-12.6-1-.7-1.9-1.4-2.5-2.5-.6-1.2-.7-2.6-.6-3.9.1-4.5.7-9.1 1.8-13.5 7.3.5 13.2 5.7 19.8 8.6 4.7 2.1 9.8 3.1 14.8 3.9 14.3 2.5 28.8 4.3 43.3 5.5 2.3.2 5.3-.1 5.9-2.4.4-1.5-.7-3-1.7-4.1-16-17.8-42.6-29.5-46.4-55.8-1.1-8 4.2-20.1-1.8-26.3-.8-.9-2.1-1.7-3.2-1.3-.5.2-.9.5-1.2.8-6.5 5.8-11.9 12.8-15.8 20.6-9.7-1.6-17.2-10.7-27-11.1-6-.3-11.7 2.8-17.7 2.8-1.1 0-2.2-.1-3.1-.8-1.2-1-1.3-2.8-1.2-4.4.3-4.5 1.4-9.2 4.5-12.5 3.1-3.3 8.5-4.6 12.2-2.1.8.5 1.5 1.2 2.4 1.3 1.8.2 2.9-2.2 2.4-3.9-.5-1.7-2-3-3.2-4.3-1.8-2-3-4.8-2.2-7.4 1-3.3 4.9-5 8.3-4.3 3.4.6 6.1 3 8.3 5.6.4.5 1 1.1 1.6 1.2.9 0 1.5-.8 1.9-1.6 3.1-5.4 6.1-10.8 9.2-16.2 5.6 3.8 9.6 10 10.5 16.7 5.6-3 15.9 10.3 18.4 2.3 1.4-4.4-.2-12.2-.2-16.9-.1-6.2-.4-12.3-.6-18.5-.1-3.4-.3-6.9-1-10.3-.4-1.8-3-6.3-2.3-7.8.5-1.2 6.2-3.4 7.5-4.6 1.8-1.6 2.9-4.6 4.6-5.9-2.6 2.1-6.5-2.2-5-5.1s6-3.1 8.7-1.2c.9-3.1-1.5-6.8-4.8-7.1l4.8-9.3c-2.8-2.5-4.6-6.1-5-9.9-4.3 3-10.8 2.1-14.1-1.9.8 3-2.7 5.2-5.7 5.9-1.3.3-4.8.4-3.3 3.1.5.8 1.3 1.4 2.1 1.9.4.3.9.5 1.3.4.7-.2.8-1.3 1.4-1.8 1-.7 2.1.8 3.1 1.6 1.5 1.1 4.1-.1 4.2-1.9.6-.3 1.4 0 1.9.5s.7 1.2 1 1.8c1 2 3.1 3.4 5.3 3.8-1.5 7.9-8.1 14.5-16 16-.9.2-1.9.3-2.7-.2-1.2-.7-1.5-2.3-2.4-3.3-.6-.6-1.4-1-1.9-1.7-.7-1.1-.4-2.5-.5-3.8-.4-5.9-8.1-5.5-12.3-6-3.8-.4-9.1 3.1-6.6 6-2.5.1-5.1.2-7.6.4-1.7 6.3 4.1 5 7.3 8.9.6-2.3 1.3-4.6 1.9-6.9 2.5 2.6 5.1 5.2 7.6 7.8 1 1 2.5 2.1 3.6 1.2.7 2.4 1.5 4.8 1.3 7.3-.1 1.1-.3 2.1-.6 3.1-1.9 5.8-7.1 10.3-13.1 11.3-2.1.4-4.4.3-6.4-.6-3-1.3-8.3-12-10.1-11.6-1.2.3-2.2 4.2-2.9 5.1-1.9 2.5-4.4 3.8-7.4 4.6 0 1.6 5.4 8.7 6 7.3-1.4 2.5-4.6 3.9-7.5 3.3 1.6 2.8 3.3 5.8 3 9.1-.3 3.2-3.6 6.3-6.6 5.1.3 3.2-1.6 6.5-4.5 7.9 3.4 1.3 6.1 4.5 6.9 8.1-3.2.5-6.3 1.1-9.5 1.6 3.9 4.6 7.7 9.3 11.6 13.9-7.6 5.6-17.9 7.4-26.9 4.7 6.4 10.9 16.7 19.4 28.7 23.6-7.4 6.3-18.4 7.9-27.4 4.1 3.7 9.1 9.8 17.6 18.2 22.7 4.6 2.8 10.6 5.7 10.7 11.1-10.7-1.1-21.6.5-31.5 4.5 9.2 5 18.4 10 27.6 14.9-6.5 1.1-12.5 5.1-15.9 10.7 13.8 1.7 27.9 1 41.4-2.1 1.2 5.3 4.7 10 9.4 12.7-5.1 0-10.3 1.1-15 3.2 7.2 5.9 16.7 8.9 26 8.2-6.6 3.4-12.2 8.4-16.4 14.5 11.9 1.6 24.2.9 35.8-2.2.3 5.7.5 11.4.8 17.1 9-4.7 17.4-10.3 25.3-16.7 1.8-1.4 3.5-3 5.7-3.7 2.1-.8 4.3-.8 6.5-.8h22c3.6 0 7.3 0 10.5 1.5 9.5 4.2 13.6 19.3 23.9 18.2-4.3-6.9-6.6-14.9-6.8-23 13.9 7.1 29.4 11 45 11.2-1.6-1.9-3.2-3.8-4.7-5.7 7 0 14-1.2 20.6-3.5-3-3.6-7-6.2-11.5-7.5 9.1.5 18.3-1.3 26.6-5.2l-16.8-8.7c10.2.4 19.7-8.8 19.8-19 0-2.6-.5-5.4.7-7.8 1.1-2 3.2-3.2 5.1-4.5 6.4-4.4 10.9-11.7 11.9-19.4-9 3-18.2 5.2-27.6 6.6 8.1-11.6 13.1-25.3 14.4-39.4-1.7 0-3.3-.1-5-.1 4-8.5 7-17.1 9.4-25.8z"/><path d="M195.7 108.3c-.2-11.7-.7-23.5-1-35.2-.1-5.8-.3-11.7-.4-17.5 0-2.4-.2-4.8-.2-7.2 0-.6-.1-5.5-1.7-3.4-.7 1-1.4 1.9-2.2 2.9-.8 1-1.9 1.9-2.6 3-.6 1-1.5 1.7-2.3 2.4-.7.5-1 0-1.4-.5-.4-.6-1-1-1.5-1.5-1-1.2-2-2.5-3-3.7-.4-.5-.7-1.3-1.2-1.6-.8-.5-1.5 1.1-1.8 1.7-.9 1.4-1.8 2.7-2.8 4.1-.5.6-1 1.2-1.4 1.9-.3.5-.5 1.1-1.1 1.1-.6 0-1.6-1.2-1.8-1.7-.5-.8-.9-1.5-1.4-2.3-1-1.6-2-3.3-3.3-4.6-.6-.6-1-.7-1.6-.1-.6.5-1.1 1.2-1.5 1.8-1 1.3-1.6 2.7-2.7 3.9-.6.7-1.2 1.5-1.7 2.3-2.1-1.4-3.8-3.8-5.3-6-.6-.9-1.2-3.1-2.6-2.8-.6.1-1 .4-1.3.9-1.2 1.4-2 3-2.8 4.6-.5 1.1-1.5 3.9-3 3.9-.9 0-1.4-1.1-1.9-1.7-.8-1.3-1.9-2.4-2.8-3.6-1.2-1.5-2.7-4.8-4.6-2-.7 1.1-1.4 2.1-2.1 3.2-.5.7-1.3 2.5-2.2 2.7-.4.1-.9-.4-1.2-.7-1.7-1.7-3.4-3.6-5-5.5-.8-1-1.5-2.9-2.6-1.3-.6.8-1 1.7-1.6 2.5-.8 1.1-1.8 2.1-2.3 3.4-.3.9-1.3 2.1-2.4 1.3-1.7-1.2-3-2.4-4.3-4-.7-.9-.9-2.5-1.9-3.2-.9-.6-1.4 1.1-1.8 1.7-1 1.6-2.1 3.2-3.3 4.6-.6.7-2.1 2.9-3.2 2.7-1.1-.2-1.8-1.6-2.6-2.3-1.1-.9-2-1.8-2.7-3-.5-.8-3.4-4.7-3.8-4.2-.6.6-.4 2.7-.5 3.4-.3 2.7 0 5.3-.1 8-.2 5.8.1 11.4.1 17.2 0 15.2-.2 30.4 0 45.6.1 14.5-2 29.8 2.1 43.9 5.4 18.6 27.5 22.4 40.1 34.5 4.1 3.9 7.4 8.5 9.8 13.6.2.5.5 1.5 1 1.9.3-.2.4-.6.6-.9.5-.9.9-2 1.5-2.9 5.9-8.6 13.5-15.8 22.2-21.4 3.8-2.5 8-4.4 11.5-7.4 6.3-5.3 12.9-11.9 16-19.6 3.3-8.1 1.2-17 1.2-25.4-.2-9.1.5-18.3.4-27.5zm-4.1-42.7v83.5c0 18.5-13.9 27-27.4 35.2-10.2 6.2-19.8 12.1-22.1 21.9-2.3-9.8-12-15.7-22.1-21.9-13.5-8.2-27.4-16.7-27.4-35.2V60.6c0-1.3-.1-2.7 0-4 0-.8-.1-2.1.4-2.7.7.8 1.6 1.4 2.3 2.2.8.9 1.4 1.9 2 2.9.4.8 1.8 2.8 2.8 1.6.4-.5.6-1.3 1-1.8l1.8-2.4c.5-.7 1.2-1.4 1.7-2.1.3-.5 1.2-2.7 1.9-2.7s1.7 1.8 2 2.4c1.2 2.3 3 4.1 4.4 6.2.1.2.4.6.6.7.4.2.8-.5 1-.8.3-.4.6-.7.9-1.2.6-1.2 1.5-2.1 2.2-3.1.7-1 1.4-2 2-3 .4-.6 1-1.6 1.7-1 .4.4.6.9.9 1.4.3.6.6 1.1 1 1.6 1.2 1.8 2.5 3.6 3.9 5.3.2.3.5.9.9.9.3 0 .3-.2.5-.4 1.6-1.8 2.8-3.9 4.1-5.9.4-.6.8-1.3 1.2-1.9.2-.3.4-.7.6-1.1.1-.2.4-.9.7-.9.4-.1 1.3 1.6 1.5 1.9.5.8 1 1.7 1.6 2.5.6.8 1.1 1.6 1.7 2.4.6.8 1.2 1.5 1.8 2.3.3.5.8 1.3 1.5.7.5-.5.9-1.2 1.2-1.8.3-.7.7-1.2 1.1-1.9.9-1.4 1.9-2.6 2.7-4 .4-.7.6-1.6 1.2-2.2.8.3.9 1.3 1.3 1.9 1 1.9 2.4 3 3.8 4.5.7.8 1.2 2.5 2.4 2.8.9.2 1.1-.5 1.5-1.1.7-1.1 1.6-2.1 2.3-3.2.8-1.1 1.4-2.1 2-3.3.4-1 1.1-2 2-.8.8 1 1.3 2 2 3.1.6 1 1.5 1.7 2.3 2.5.8.8 1.3 1.8 2 2.7.6.6 1 .2 1.3-.4.4-.7.8-1.3 1.3-1.9 1.1-1.4 2.1-2.9 3.1-4.4.3-.5.8-1.6 1.6-1.6.3 0 .6.4.8.7.9.9 1.6 2.1 2.2 3.1.7 1.1 1.7 2 2.5 3 .6.8 1.5 2.3 2.7 1.2.7-.7 1.2-1.7 1.8-2.5.9-1.1 1.5-2.5 2.5-3.5 1.3-1.3 1.1 1.8 1.1 2.4v3.2c-.3 2.3-.3 4.4-.3 6.5zm-2.1 44.6c.1-1.2.1-2.3.1-3.5 0-2.5-.5-5-.4-7.6.1-2.9.1-5.8 0-8.8-.1-1.1-.1-2.1-.1-3.2 0-5.5.1-11 .1-16.6v-7c0-.6.1-1.2 0-1.8-.2-.8-.6-.9-1-.2s-.8 1.5-1.3 2.2c-.4.5-.9 1.7-1.4 2-.6.4-.9-.3-1.3-.9-.7-1-1.4-1.9-2.1-2.8-.9-1.2-1.7-2.5-2.5-3.8-.4-.7-.9-2.6-2.1-2-.7.3-1.1 1.3-1.5 2-.7 1.3-1.4 2.6-2.3 3.8-.8 1.1-1.7 2.3-2.5 3.4-.5.6-.5.7-1.1.2-.3-.4-.5-.8-.7-1.2-.6-.8-1.2-1.5-1.7-2.3-.9-1.3-1.8-2.5-2.5-3.9-.2-.4-.4-1.1-.7-1.4-.4-.3-1.3-.3-1.7 0-.5.4-.6 1.2-.9 1.7-.7 1.3-1.6 2.5-2.4 3.6-.5.7-1.1 1.4-1.6 2.2-.1.2-1 1.7-1.1 1.7-.7.1-1.3-1.2-1.6-1.6-.6-.8-1.2-1.5-1.7-2.3-.8-1.1-1.6-2.3-2.3-3.5-.4-.6-.8-1.3-1.5-1.5-1-.3-1.5.3-2 1.2-.7 1.3-1.6 2.6-2.5 3.8-.4.6-2.4 4-3.3 3.9-.3-.1-.5-.7-.7-1-.6-1-1.4-1.9-2.1-2.9-.9-1.2-1.7-2.5-2.5-3.8-.4-.8-.9-3.1-2.1-2.1-.7.6-.9 1.8-1.4 2.6-.7 1.1-1.5 2.2-2.2 3.3-.7 1-1.4 2.1-2.2 3-.5.6-1.1 1.1-1.6.2-.7-1.1-1.5-2.2-2.3-3.2-.9-1.3-1.8-2.5-2.5-3.9-.3-.6-.5-1.3-.9-2-.1-.2-.4-.7-.6-.7-.5-.1-.6.5-.8.8-1.1 1.9-2.2 3.9-3.4 5.7-.8 1.1-1.7 2.2-2.6 3.2-.6.6-.8.4-1.3-.3-.7-1-1.4-1.9-2.1-2.9-.9-1.3-1.8-2.5-2.5-3.9-.3-.6-.8-1.1-1-1.8-.3-.8-.5-1.9-1.2-.7-.4.7-.6 1.6-.9 2.3-.7 1.4-1.7 2.8-2.6 4.1l-1.5 2.1c-.3.3-.9 1.2-1.4 1.1-.3-.1-.6-.4-.8-.6-.5-.5-.9-1-1.3-1.5-.5-.6-1.1-1.1-1.5-1.8-.1-.2-.3-.8-.6-.6-.4.3-.3.7-.3.9 0 .9-.2 1.7-.1 2.6.1.9.2 1.9.2 2.8-.2 7.3 0 14.7 0 22v15.1c0 1.6.1 3.2.1 4.9 0 1.5-.1 2.9-.2 4.4-.1 3.4 0 6.7 0 10.1v24.1c0 7.9 2.8 15.2 7.9 21.1 4.3 5 10 8.5 15.4 12.3 2.1 1.5 4.5 2.6 6.7 3.9 2.5 1.5 4.8 3.4 7.1 5.1 1.9 1.4 3.7 2.8 5.4 4.4 1.7 1.6 2.8 3.3 4 5.3.6.9 1.2-.4 1.5-.9 2.1-3.5 5.4-6.2 8.7-8.7 2.4-1.8 4.9-3.3 7.4-4.9 4.6-3 9.3-5.9 13.8-9.2 1.3-.9 2.5-1.9 3.7-2.9 1.5-1.3 2.9-2.7 4.2-4.1 3.5-3.9 6.2-8.7 7.4-13.8.9-3.8.9-7.9 1-11.8.1-7.8-.1-15.7-.1-23.6 0-2.4-.2-4.8-.1-7.2.1-.9.5-1.6.5-2.4zM96.2 66.9v-1.5c0-.1-.1-.6 0-.7.2-.2.2-.1.4.1l2 2c.2.2.5.6.8.6.2 0 .3 0 .4-.1 1.4-1.2 2.3-2.9 3.4-4.3.6-.9 1.3-1.8 1.9-2.8.3-.4.9-2.2 1.5-1.7.1.1.2.2.3.4.3.4.5.9.8 1.4l1.8 2.7c.5.6 1.1 1.2 1.4 2 .4.9.7 1.5 1.5 2.1 1.3 1 1.8.2 2.6-.9s1.7-2.1 2.4-3.2c.5-.7 1-1.5 1.5-2.2.3-.5.7-1.5 1.2-1.9 1-.7 1.4.8 1.8 1.4l1.8 2.7c.6.9 1.4 1.6 2 2.5.9 1.2 1.2 2.7 2.8 1.5.6-.4.9-.9 1.3-1.5.6-.8 1.3-1.6 1.9-2.4.6-.9 1.2-1.7 1.8-2.6.2-.4.7-1.8 1.1-1.9.7-.3 1.2 1.1 1.5 1.5.6 1 1.3 2 2 3s1.5 1.9 2.2 2.9c.6.9 1.3 2.3 2.6 1.3.6-.4 1-1.5 1.5-2 .6-.7 1.2-1.5 1.7-2.2.5-.7.9-1.3 1.4-2 .4-.6.7-1.4 1.2-1.9.8-.9 1.5.5 1.9 1.2l1.8 2.7c.8 1.1 1.4 2.3 2.3 3.3.4.5 1.3 1.5 2 1.4.7-.1.8-.9 1.2-1.4.8-1.1 1.7-2.2 2.5-3.4.6-.8 1.1-1.6 1.7-2.4.4-.6 1-2.4 1.9-1.9.5.3.8 1.4 1.1 1.9.5.8 1.1 1.6 1.7 2.4.7 1 1.6 1.9 2.4 2.9.4.5.7 1.4 1.4 1.5.9.2 1.4-.7 1.8-1.3.8-1.1 1.6-2.1 2.4-3.2.5-.7 1-1.5 1.5-2.2.3-.5.8-1.9 1.3-2.2.9-.5 1.5 1.3 1.8 1.8.6.9 1.2 1.7 1.8 2.6.7 1 1.5 1.9 2.1 2.9.4.6.7 1.7 1.5 1.9.4.1.8-.2 1.1-.5.3-.4 1.3-2.7 1.9-2.5.5.2.3 1.1.3 1.4 0 .7 0 1.4-.1 2.1-.1.6 0 1.2-.2 1.9 0 .1-.1.2-.1.2-.4.9-1.1 1.6-1.6 2.3-.2.3-.8 1-1.1 1-.4 0-1-1.1-1.2-1.4-.6-.8-1.1-1.6-1.6-2.4-.5-.7-.9-1.4-1.3-2-.5-.7-1.2-1.3-1.7-2-.3-.4-.8-1.8-1.6-1.2-.7.6-1.1 1.5-1.6 2.3-.6.8-1.1 1.7-1.7 2.5-.3.5-.5 1-.8 1.5-.3.5-.7 1-1.1 1.5-.3.4-.9 1.4-1.5 1.2-.7-.2-1-1.3-1.4-1.8-.5-.7-1-1.3-1.5-2-.9-1.3-1.7-2.9-2.7-4.2-.4-.5-1.1-1.1-1.7-1-.7.1-1.2 1.1-1.5 1.6-.7 1.2-1.5 2.4-2.4 3.6-.5.7-1 1.3-1.4 2-.4.5-.7 1.2-1.1 1.6-.9.8-1.2-.5-1.7-1.1-.6-.8-1.2-1.6-1.8-2.5-.9-1.3-1.8-2.6-2.6-4-.3-.5-1-2-1.7-1.9-.8.1-1.4 1.7-1.7 2.3-.7 1.2-1.5 2.4-2.3 3.5-.7 1.1-1.6 2.6-2.5 3.5-.9.9-1.2-.3-1.7-1-.6-.8-1.3-1.7-1.8-2.5-.8-1.1-1.6-2.2-2.3-3.4-.3-.6-.7-1.1-1.2-1.5-.2-.1-.5-.5-.7-.5-.3 0-.8.8-1 1-1.2 1.4-2.1 3-3.1 4.4-.5.7-.9 1.3-1.4 1.9-.4.5-.7 1.3-1.2 1.8-.8.7-1.3-.7-1.7-1.3-.6-.8-1.2-1.6-1.7-2.4-1.1-1.6-2.2-3.2-3.3-4.9-.1-.2-.7-1.1-.9-1-.3.1-.5.5-.7.8-.6.7-1 1.6-1.5 2.4-.6 1-1.3 1.9-1.9 2.8-.9 1.4-2.1 2.6-2.9 4.1-.7-.4-1-1.2-1.5-1.8-.5-.8-1.1-1.5-1.7-2.2-.8-1.1-1.6-2.2-2.2-3.4-.4-.6-.6-1.9-1.4-2.2-.7-.2-1.3.6-1.7 1.1-.6.6-.9 1.6-1.4 2.3-.5.8-1 1.5-1.5 2.2l-1.8 2.4c-.5.6-.8 1.5-1.3 2.1-.5-.4-.7-1.4-1.1-2-.4-.6-.9-1.2-1.3-1.8-.5-.7-.6-1.6-.6-2.4-.2-.5-.2-.9-.2-1.3zm.2 5.3c.4.3.9 1.2 1 1.4.4.5.7.9 1.1 1.5.2.3.4.6.6.8.2.2.3.2.5 0 .7-.7 1.1-1.5 1.5-2.4.5-1.1 1.5-1.9 2.2-2.9.8-1.1 1.6-2.2 2.2-3.4.2-.3.2-.6.4-.9.1-.1.4-.5.5-.6.3-.1.4.5.6.7.4.6.7 1.2 1 1.8.5.8 1 1.5 1.5 2.3.7 1 1.5 2 2.3 3 .5.7.9 2 1.8 2.3.2.1.1.1.3-.1.3-.3.5-.7.8-1.1.3-.3.4-.8.7-1.1.7-1 1.5-2 2.2-3 .6-.9 1.3-1.6 1.8-2.6.2-.4.3-.9.6-1.2.2-.3.4-.6.5-.9.4-.7.6-.1.9.4.4.8.7 1.5 1.1 2.3.4.7.9 1.4 1.4 2 .7 1 1.4 1.9 2.1 2.8.5.7 1 1.9 1.9 2.2.3.1.3 0 .5-.2l.9-1.2c.1-.2.3-.4.4-.5.2-.2.3-.5.5-.8.2-.3.4-.4.6-.7.4-.5.8-1.1 1.2-1.7.6-.8 1.3-1.6 1.8-2.6.6-1.1 1.4-2.7 2.3-1.1.7 1.2 1.4 2.5 2.2 3.6.8 1.1 1.6 2.1 2.3 3.1.3.4.5.9.8 1.3.7 1.3 1.6.1 2.1-.7.8-1.3 1.9-2.5 2.8-3.8.7-.9 1.3-1.9 1.9-2.9.3-.6.7-1.1 1-1.7.2-.4.3-.3.6 0 .4.5.7 1.1.9 1.7.4 1 1.2 2 1.8 2.9.7 1 1.4 1.9 2.1 2.9.5.7 1 2.1 2.1 2 .7-.1.9-1.1 1.3-1.6.8-1.1 1.7-2.2 2.5-3.3.7-1 1.5-2.1 2.1-3.2.1-.2.3-.5.5-.7.1-.2.2-.5.4-.6.2-.3.5-.1.7.1.5.4.7 1.1 1 1.6.5.9 1.1 1.9 1.7 2.8.7 1 1.4 1.9 2.1 2.9.4.5.8.9 1.1 1.4.8 1.2 2 0 2.6-.8.4-.5.8-1 1-1.6.3-.7.7-1.2 1.2-1.9.7-1 1.4-2 2.1-3.1.3-.4.5-1.2 1-1.4.1 0 .8.9.9 1 .3.3.4.5.6.9.5.9 1.1 1.7 1.7 2.5.9 1.2 1.7 2.6 2.7 3.7.4.5 1 1.3 1.7 1 .6-.3 1-1 1.4-1.5.2-.3.9-1 .9-.1 0 .6.1 1.2 0 1.8-.1.5-.1 1-.2 1.5 0 .1-.1.2-.1.2-.3.7-.6 1.3-1.1 1.9-.5.7-1.3 2.6-2.1 1.3-.7-1.1-1.5-2.3-2.3-3.4-1.2-1.7-2.1-3.4-3.1-5.1-1.1-1.8-1.9.4-2.5 1.3-.8 1.3-1.7 2.5-2.6 3.8-.7 1.1-1.3 2.5-2.4 3.3-.8.6-1.1.2-1.6-.5-.7-.9-1.4-1.8-2-2.8-.9-1.3-1.8-2.5-2.5-3.9-.3-.6-.4-1.4-1-1.8-.7-.4-1.2.1-1.6.7-1.1 1.6-2 3.3-3.1 5-.7 1-1.3 2.5-2.4 3.2-.8.5-1.2.2-1.7-.5-.7-.9-1.3-1.8-2-2.7-.9-1.3-1.8-2.6-2.6-4-.6-1.1-1.7-2.3-2.6-.9-.5.7-.8 1.6-1.3 2.3-.6.9-1.2 1.7-1.8 2.6-.8 1.1-1.4 2.6-2.5 3.4-.9.7-1 0-1.5-.7-.6-.9-1.4-1.8-2-2.7-.7-1.1-1.5-2.1-2.2-3.3-.3-.5-1.1-2.3-1.7-2.5-.8-.3-1.7 1.5-2 2-.7 1.3-1.6 2.5-2.5 3.7-.6.9-1.3 1.7-1.9 2.6-.3.5-.8 1.6-1.5 1.3-.3-.2-.9-1.4-1.1-1.8l-1.5-2.1c-1.1-1.5-1.9-3.2-2.9-4.7-.8-1.2-1.8-1-2.4.1-.9 1.6-1.9 3.1-2.9 4.6l-1.8 2.4c-.5.6-.9 2-1.7 1.2-.4-.4-.8-1.2-1.1-1.7-.5-.6-1-1.3-1.4-1.9-.8-1.1-1.6-2.3-2.3-3.5-.3-.5-1-2.5-1.8-2.4-.2 0-.4.5-.5.6-1.3 1.7-2.4 3.5-3.7 5.2-.7 1.1-1.3 2.3-2.4 3.2-.5.5-.8.6-1.3.1-1-1-2-2.2-2.4-3.6-.3-1.2-.2-2.4-.2-3.6 0-.2-.1-.7 0-.8.1.5.2.5.3.6zm91.6 45.6c0 5.7-.1 11.4-.1 17.1v12.6c0 2.7.1 6.5-1.6 8.7-1.8 2.3-2.1 5.2-3.7 7.6-.8 1.2-1.8 2.2-2.6 3.4-1 1.4-1.9 3-3.1 4.2-1.6 1.5-3.3 2.8-5.1 4.1-3.6 2.6-7.4 5-11.2 7.3-3.6 2.2-7.2 4.4-10.5 6.9-1.6 1.2-3.1 2.4-4.5 3.7-.3.3-3.2 3.5-3.5 3.4-1.6-.7-3.2-2.7-4.3-4-1.3-1.4-3-2.6-4.5-3.7-5.3-3.8-11.1-6.7-16.4-10.4-2.8-2-5.8-3.8-8.5-6-3.3-2.8-6.1-6.3-8.3-10-1.4-2.5-2.4-5.2-3.1-8-.7-3-.7-6-.7-9.1 0-1.1.1-2.1.1-3.2 0-.9-.1-1.9-.1-2.8-.2-3.2.2-6.4.2-9.6-.1-3.7-.1-7.5-.1-11.2 0-2.6-.2-5.2 0-7.8.1-2.1.4-4.1.4-6.2-.1-4.1-.6-8.2-.4-12.3.2-3.7-.1-7.4-.1-11.1v-1.1c0-.1-.2-.5-.1-.7.5-.8 2.5 2.6 3.1 2.7.6.1 1.4-1.1 1.8-1.5.8-1 1.6-2.1 2.3-3.1.6-.9 1.2-1.7 1.8-2.6.4-.6 1-2.8 1.8-1.7 1 1.3 1.8 2.9 2.7 4.3.7 1 1.4 1.9 2.1 2.9.4.5 1.2 2 2 2 .6 0 1.5-1.6 1.7-2 .7-1 1.4-1.9 2.1-2.9.6-.9 1.2-1.7 1.8-2.6.3-.4.4-.9.7-1.3.1-.2.3-.4.5-.5.4-.2.4-.1.6.3.9 1.3 1.7 2.8 2.7 4.2.7 1 1.4 1.9 2.1 2.9.7 1 1.5 2.6 2.8 1.3 1.2-1.2 2.2-2.8 3.1-4.1.7-1 1.4-1.9 2-3 .3-.4.4-1.2.9-1.5.6-.4.7.2 1 .6.7 1.3 1.6 2.6 2.5 3.8.8 1.1 1.6 2.1 2.4 3.2.3.4.9 1.3 1.5 1.5.7.2 1.3-.9 1.7-1.4.8-1.1 1.7-2.2 2.5-3.3.6-.9 1.2-1.7 1.8-2.7.3-.4.7-1.9 1.3-1.8.6 0 1.1 1.4 1.4 1.8l1.8 2.7c.9 1.3 1.8 3.1 3.3 3.8.8.3 1.6.2 2.2-.4.9-1 1.7-2.3 2.5-3.4.7-.9 1.3-1.9 1.9-2.9.6-.9 1.1-2.4 1.9-.9.8 1.3 1.6 2.5 2.5 3.8.8 1.2 2.2 3.8 3.7 4 1.8.3 3.4-2.8 4.2-4 1-1.5 1.9-3.1 3-4.5.7.4 1.1 1.3 1.5 1.9.5.9 1.2 1.8 1.8 2.6.7 1 1.5 2 2.3 3.1.4.5.8 1.4 1.6 1.4s1.6-1 2-1.6c0 0 .6-.8.6-.7.1 1.1.3 2 .3 3.1v2.1c0 5.3.1 10.5.1 15.8 0 1.7 0 3.5.1 5.2.1 1.4-.2 2.9-.1 4.3.1.6.2 1.1.2 1.8-.1 1.7-.3 3.6-.3 5.5zm-36.1-4.9c-.3-.6-.6-.9-1.2-1.2-.3-.1-1.1-.3-.7-.7.3-.3.8-.2 1.1-.4.3-.2.3-.7.2-1.1-.3-.7-1.1-.7-1.7-.7-.8 0-1.7-.1-2.5-.4-.6-.2-1.8-.7-1-1.4.6-.5 1.5-1 1.7-1.8.3-1.3-1.1-1.3-1.9-1.2-.8.1-.4-.5-.5-.9-.4-.8-2.5.3-3 .5s-2 1.2-2.5.6c-.3-.4.3-1.2.3-1.6.1-1.1-1.2-1.8-2.1-1.4-.9.3-1.5 1.1-2.2 1.7-.8.7-1.8 1.1-2.8 1.4-1 .3-2 .7-2.9 1.1-.6.3-2 .7-2.4 1.3.3.1.6.2.9.1 1.2-.2 2.3-.5 3.5-.6 1.2-.1 2.3.3 3.4.3 1.2 0 2.1.1 3.2.5 1.9.6 3.8 1.2 5.6 2.1.9.5 2.2.9 2.6 1.9-.9-.4-1.7-.9-2.6-1.4-.9-.5-2-.7-3-1.1-4-1.9-8.5-1.7-12.8-1.2-1.6.2-3.4.3-5 1-1.3.5-2.8.7-4.1 1.5-.7.4-1.4.9-2.1 1.4-.6.4-1.2.7-1.7 1.1l-.1.1c-.1-.4-.3-.8-.6-.8-.4 0-1 .9-1.1 1.2-.2.6.5 1.3.8 1.8 1.1 1.7 2.3 3 2.5 5.2.1.8.7 1.6.6 2.4-.3 1.7-3.5-.4-4.5-.4 0 .7-.2 1.2-.3 1.8-.1.4-.1.5.3.6.9.5 2.1.6 2.6 1.5s.6 2.1.1 3.1c-.6 1.3-2.3 1.6-3.3.6-.4-.5-.5-1-.5-1.6 0-.8-.1-1.6-.1-2.4.1-.8.4-1.4.4-2.2 0-.8.1-1.5.3-2.3.2-.7.6-1.4.7-2.1.1-.6.4-1.2.8-1.7.1-.2.7-.8.7-1 .1-.4-.6-.7-.8-1-.1-.2-.2-.5-.4-.5-.6-.1-1.3 1.3-1.5 1.7-.4.7-.8 1.4-1.1 2.1-.3.7-.7 1.5-1.2 2 0 0-.2-.7-.2-.8 0-.3.1-.6.1-.9.1-.6.4-1.1.6-1.7.5-1.2 1.3-2.3 2-3.4.5-.8 1.1-1.6 1.7-2.4 1.3-1.8 2.6-3.6 3.7-5.5.1-.1.2-.3.2-.4.4-.7.8-1.5 1.2-2.3.4-.9.7-1.9 1-2.8.1-.2.1-.5.2-.7.1-.2.3-.3.3 0 0 .4-.2.9-.3 1.3-.2.8-.3 1.5-.5 2.3v.1c-.2.6-.4 1.2-.7 1.7-.2.4-.5.7.1.8.6.1.9-.1 1.4-.5.6-.5 1.2-1 1.7-1.7.8-1.1 1.3-2.2 2.4-3.1.7-.6 1.5-1 1.6-2 .1-.9-.7-1-1.4-.9-.8.1-1.4.6-2.1.8-.4-.8.7-1.6 1.2-2.1.4-.4.8-.8 1.1-1.3.2-.5.8-1 .5-1.6-.1-.3-.4-.3-.4-.6 0-.4.3-.8.4-1.2.1-.4 0-.9-.2-1.3-.4-.7-1.3.3-1.8.4-.5.1-.3-.8-.2-1 .2-.6.6-1 .9-1.6.2-.4.4-1.2-.2-1.2-.5 0-.9.5-1.3.7-.6-.9-.4-1.9-1-2.8-.9 0-.9 1.4-.8 2 0 .3.2.7.2 1-.1.4-.4.9-.8.5-.3-.2-.6-1-1-.9-1.1.3.3 2.7.4 3.1.1.3.3.9-.1.9-.2 0-1-.5-1.2-.7-.2-.2-.3-.6-.6-.7-.9-.5-1 .6-1 1.2.1.6-.4 1.1-.5 1.6-.2 1.1.2 2.5.8 3.5.2.3 1.2 2.1.3 1.7-.4-.2-.7-.6-1-.9-.2-.3-.4-.8-.8-.8s-.6.2-.8.6c-.2.5-.3 1-.2 1.5.1.9.4 1.9.5 2.8.1.5.2 1 .2 1.6.1 1.5-.2 2.8-.9 4.1-.2.3-.5.5-.4.9.3-.1.6-.5.8-.7 1.1-1.1 1.9-2.8 2.5-4.2.9-1.9 1.6-4 2.2-6.1.2-.8.4-1.5.7-2.2.1-.4.2-.7.3-1.1 0-.3-.1-1 .4-.8.4 1.4-.5 3-.9 4.4-.5 1.8-.9 3.6-1.7 5.3-.8 1.6-1.7 3.2-2.8 4.6-.3.5-.6 1-.9 1.4-.3.5-.9.7-1.3 1.1-.3.2-.5.5-.9.5.1-.3.5-.6.3-.9-.1-.3-.6-.3-.8-.5-.3-.2-.6-.4-.7-.7-.3-.6-.7-1.2-1.1-1.8-1-1.5-1.8-3.1-2.4-4.7-.6-1.4-.9-2.8-.9-4.3-.1-1.3-.5-2.6-.2-4 .1-.4.3-.9.4-1.3 0-.3 0-.8.4-.9.2.4.1.7 0 1.1-.2.7-.3 1.4-.2 2.2.1.7.1 1.5.3 2.2.2.5.3.9.3 1.5s.1 1.3.3 1.9c.1.3.3 1.1.6 1.2.3-.4.3-.9.4-1.4.3-.7.8-1.2 1.1-1.8.3-.6.6-1.3.6-2 0-.4 0-1-.5-1-.4 0-.5.4-.8.5-.3.1-.5-.4-.4-.7.3-1.6 1.9-2.8 3.1-3.7.3-.2.7-.5.5-.9-.3-.7-1.5-.4-1-1.4.2-.3.6-.7.2-.9-.5-.3-.9.5-1.4.5-.5 0-1-.5-1-1s.3-.9.6-1.3c.2-.3.7-.7.8-1.1.2-1-1.3 0-1.6-.1-.2-.1-.3-.9-.4-1.2-.1-.7.1-1.8-.6-2.1-.5-.2-.9-.1-1 .5-.1.8.3 2.2-.8 2.5-.2-.3-1-.9-1.5-.7-.5.3.2 1.4.3 1.7.1.3.3.7.2 1-.2.4-.7.7-1.1.7-.6-.1-.8-.8-1.3-.9-.3-.1-.8 0-.9.4-.1.6 1 1.5 0 1.8-.3.1-.7.1-.8.4-.1.3.1.6.3.8.7.7 1.2 1.3 1.6 2.1.3.8.2 1.6.4 2.5.1.3.3.7.3 1-.7.2-1.9-.8-2 .5-.1 1.1 1.4 2 2 2.9.6.9.6 2 1.2 2.9.1.2.4.6.6.7.4 0 .2-.6.1-.8-.2-.6-.5-1.1-.6-1.7l-.3-2.1c-.2-1.4-.2-2.7-.1-4.1.1-.9.1-1.9.2-2.8.1-.9.6-1.8 1-2.6.3-.5.5-1.1.8-1.6.1-.2.2-.5.5-.5 0 .5-.3 1.1-.5 1.5-.4 1-.9 1.9-1.1 3-.3 1.3-.5 2.6-.5 3.9-.1 1.1.3 2 .4 3.1.2 1.2.4 2.4.7 3.5.3 1.2.8 2.4 1.1 3.6.3 1.5 1.4 2.6 2.2 3.8.6.9 1.2 1.6 1.7 2.4.6.9-.9 1.7-1.2 2.4-.6 1.1-1.5 2-2.2 3.1-.6.9-.7 2-1.2 2.9-.4-.1-.8-.4-1.2-.6-.4-.2-.8-.5-1.1-.8-.6-.6-1-1.4-1.3-2.3-.2-.5-.3-1-.3-1.6 0-.4-.1-.8-.1-1.1 0-.1 0-.3.1-.3s.1.1.1.1c.1.4.1.9.2 1.4.1.3.3.6.4.9.1.6.3 1.1.7 1.6.2.3.5.9 1 .8v-.2c-.2-.5-.2-1.2 0-1.7.1-.2.3-.5.4-.7.1-.5 0-.7-.3-1-.5-.4-.7-.5-.3-1.1.2-.3.8-.6.9-.9.5-1-1.2-1.4-.5-2.5.3-.5.5-1.5-.2-1.7-.3-.1-.8.1-1.1-.2-.3-.3.9-2 0-1.9-.4 0-.6.1-.7-.4-.1-.3 0-1.5-.6-1.1-.5.3-.4 1.2-.8 1.4-.3.1-.4-.2-.7-.2-.8.1.1 1.4.1 1.7 0 .5-.8.1-1.1.1-.9-.1-.9 1.4-.7 1.9.2.6.5.7.1 1.3-.4.7-.5 1.6.2 2.1.3.2.9.8.4 1.1-.2.1-.4.1-.5.3-.4.8.2 2.1.6 2.8.2.4.7.6 1 .9.2.2.4.9.9.6 0-.4-.4-.7-.4-1-.2-.8-.4-1.5-.5-2.4-.1-1.1-.1-2.2-.1-3.3 0-.5.1-1 .2-1.6 0-.2.1-.9.3-1.1.3-.3.3.1.3.3-.1.4-.1.8-.1 1.2 0 .6-.1 1.1-.1 1.7 0 2.3.3 4.3 1.2 6.5.3.7.7 1.2 1.1 1.9.3.4.6.7 1 1.1.4.3 1.2.5 1.5.9.4.6.3 1.4.3 2 0 .6.1 1 .3 1.6.3 1.3.1 2.7.3 3.9.2 1.5.1 3 .3 4.6.1 1.2-.2 2.4.2 3.5.3.9.4 1.7.3 2.6-.3 2-.5 4-.5 6 0 1-.3 1.9-1 2.6-.3.3-.8.5-1.1.9-.4.5-.2 1.2-.3 1.8-.2.8-.8.8-1.5.9-1.4.3-1.7.7-1.5 2 .1.7.3 1.5-.5 1.8-.2.8 1.4.5 1.7-.1.3-.7-.3-1.9.8-2.1.3-.1.6 0 .9 0 .2-.1.4-.3.5-.3.3 0 .5.1.6.5.1.6-.5 1.2-.4 1.8.1.6.2 1.2.1 1.8-.1.5-.2 1.2-.8 1.3 1.3 0 1.5-1.4 1.7-2.2.2.3.2.6.4.8.1.2.4.3.5.6.3.5.1 1.2.3 1.7.6-.5.7-1.7.4-2.4-.3-.7-.9-.8-.9-1.5s.2-1 .8-1.3c.3-.1.5-.2.8-.4.3-.2.6-1.4 1.2-1.3.5.1.6 2.3.5 2.8-.3.1-.7.1-1 0-.1 0-1-.3-1-.3.2.5.7 1.2 1.2 1.3.5.1.7-.1.9.5.2.4.2 1.1.1 1.5-.2.5-.7.8-.6 1.4.1.4.4.9.4 1.3v.3c-.2.7-.9.5-1.5.5-.5 0-.6.2-.9.5 1 0 1.7.6 2.6-.1 0 .7-.2.9-.5 1.5-.2.5-.2.7.4.5.9-.3 1.5-1.4 1.3-2.2-.2-.9-.9-1.9-.4-2.8-.2.3.7 1.1 1 1.2.5.2 1.1.1 1.6.2 1 .2 1.5.6 1.6 1.6.2-.5.4-1.6.1-2-.4-.6-1.1-.5-1.7-.4-1.2.2-2.5-.9-2.3-2.2.2-1 .6-1.6.1-2.6-.1-.3-.3-.5-.2-.9.1-.3.3-.4.4-.6.1-.2.1-.4.3-.6.3-.4.8-.4 1-.9.1-.2.1-.8.3-1 .4-.2.4.7.5 1 .2.5.8.6 1 1.1.3.6-.1 1.4-.8 1.3-.3 0-.5-.3-.8 0-.2.3-.1.9 0 1.2.1.7 0 1.2-.6 1.5.3.4.9.2 1.1 0 .5-.4 0-1 .4-1.4.4-.5 1.1 0 1.6 0 .2 0 .4-.4.6-.4.4 0 .2.6.2.8v.6c-.1.4-.3.8-.9 1-.6.2-1.3.7-1.9.6-.1 0 .3.5.5.5.4.1.9 0 1.2-.1.4-.1.8-.4 1.2-.1.3.2.3.8.4 1.1.2.5.2 1.2.5 1.7.1.2.4.4.6.4h.7c-.3-.5-.9-.9-1-1.4-.1-.5.3-1.1.1-1.6-.1-.3-.5-.4-.6-.7-.2-.4.1-.7.2-1 .1-.4.2-.9.1-1.3.3.5.8.6 1 1.1.2.5-.1.7-.1 1.1.1.7 1.3.6 1.8.9.7.3 1.1.6 1.8-.1.4-.4 1-1.3.5-1.8 0 .3-.2.6-.5.7-.1.1-.3 0-.4.1-.4.3-.8.7-1.4.4-.4-.2-.6-.8-.5-1.2.1-.5.5-.3 1-.4.5-.1 1-.4.9-1 0-.1-1.7.5-1.9.4-.3-.1-.6-.5-.9-.7-.4-.2-.9-.4-1.2-.8-.1-.2-.3-.6-.3-.8-.1-.4-.1-.8-.3-1.1-.2-.3-.8-.5-.9-.9-.2-.9.9-.3 1.3-.2.6 0 1.4-.2 1.9.2s.6 1.2.2 1.7c-.3.4-.9.4-1.2.7-.2.2 1.4.4 1.5.4.5-.1 1.1-.3 1.2-.8.1-.5-.4-1.2.3-1.4.9-.2.5.7.5 1.2 0 .7.1 1.5.7 2 .5.3.9.4 1 1 .1.6-.6 2.3.3 2.5 0 0 .1-1 .1-1.1.1-.4.5-.7.6-1.1.1-.4-.1-1-.2-1.3-.2-.4-1-.9-1.1-1.3-.1-.6.6-.3.9-.1.8.3 1.5.5 2.2-.1.2-.2.3-.3.5-.6.1-.2.5-1-.1-.9-.2 1.1-1.9.8-2.5.5-.4-.2-.6-.3-.7-.8-.1-.4 0-.8-.3-1.1-.3-.4-1-.4-1.5-.5-.5-.1-.8-.5-1-1-.2-.6.1-.9-.6-1.1-1.2-.5-1.5-.5-1.6-1.9-.1-1.3 0-2.6-.1-3.9-.1-1-.2-1.9-.4-2.9-.3-1.1-.1-2 .2-3.1.5-1.8-.3-3.5-.3-5.3v-6.3c.1-1.7.2-3.5 0-5.2-.1-1-.5-2-.9-2.9-.4-.9-1.1-1.7-1.4-2.7-.4-1.8 3.1-3.5 4.3-4.1 1.4-.7 2.8-1.4 4.3-1.7 4.2-.9 8.7-1 12.9-.2 1.2.2 2.5.5 3.3 1.5-.7-.1-1.3-.5-2-.7-.8-.3-1.5-.4-2.3-.5-1.8-.2-3.5-.3-5.3-.2-.6 0-1.3.2-1.9.3-.6.1-1.2.1-1.8.2-.3 0-.6 0-.7.3.8.2 1.5.3 2.3.5.6.2 1.3.4 1.8.8s.9.9 1.4 1.4c.8.7 2.1 1.4 3.2 1.2.6-.1.8-.5.7-1 0-.9.4-1.1 1.1-.7.7.4 1.3 1.1 1.7 1.8.1.2.3.5.4.7.2.3.8.5 1.2.4.3-.1.2-.4.5-.5.4 0 .7.4 1 .6.3.2.8.2 1.1.2.7-.1.8-.5.6-1.1-.1-.4-.5-.7-.4-1.1 1.1.1 2.2 1.4 2.9 2.3.3.3.7.8 1.1.4.4-.4.1-1.3.8-1.4.6-.1 1.2.4 1.8.3 1-.6.9-1.3.8-1.7zm-15.5 8l-.1.1c-.3.1-.8-.2-.6-.6.2-.6 1.1.2.7.5zm-6.7 46.8c.3.2.7.3 1.1.4.4.1.9 0 1.2.2-.2.2-.5.3-.8.4-.3.1-.7.1-1.1.1h-1.8c-.5 0-1 .1-1.4.1 0 .1 0 .1.1.2.1 0 .1 0 .2.1.5.1.9.3 1.4.4.6.1 1.3.1 2 0 .8-.1 1.6-.2 2.4-.2.3 0 .3-.1.4.2.1.2.1.4.2.6.2.4.4.9.6 1.3.1.1.1.2.2.3s.2.1.3.1c0-.1-.1-.2-.2-.3-.2-.4-.3-.8-.3-1.3v-.8c.2.1.4.3.5.4.3.3.6.4.8.7.3.4.6.6 1 .9.3.2.6.4.9.5.9.5 1.7 1 2.7 1.3.3.1.6.1 1 .1h.2c.1-.1.1-.2.1-.3s-.1-.2 0-.3c0-.2.2-.3.3-.5.1-.3 0-.6-.1-.8-.3-.7-.4-1.6-.4-2.4 0-.6-.1-1.2-.1-1.8 0-.8 0-1.7.1-2.6 0-.5.1-.9.7-.7.3.1.8.2 1.1.5.4.3.6 1 .8 1.5.3 1 .6 2 .7 3 .1.9.3 1.7.4 2.6 0 .2.1.3.3.4.3.3.3.5.2.9-.2.9-.4 1.9-.6 2.8-.4 1.9-.9 3.7-1.4 5.6-.1.3-.2.6-.4.9-.1.1-.1.4-.2.5-.2.2-.5.1-.7.1-.6 0-1.2.1-1.8.2-.5.1-.9.1-1.4.2l-1.2.3c-.1.1-.5.1-.4.3.4 0 .8-.1 1.2-.1 1-.1 2-.1 3-.1.1 0 .1.1 0 .2 0 0-.1.1-.2.1-.3.1-.5 0-.8.1-.2.1-.4.1-.6.2-.5.1-1 .3-1.5.4l-1.2.6c0 .1.1.1.2.1.9.1 1.7-.4 2.5-.6.4-.1.7-.2 1.1-.2.1 0 .3-.1.4 0 .1.1-.1.3-.1.3-.5.3-1 .7-1.5 1.1-.4.4-.7.7-1.1 1.2v.1h.1c.5 0 .6-.3 1-.5.3-.2.7-.3 1-.6l.6-.6c.3-.2.7-.5 1-.7.1-.1 1.1-.5 1.1-.6.3-.1.6-.4.8-.6 0-.1.1-.1.2-.1h3.5c-.1-.4-.5-.5-.9-.6-.8-.1-1.6 0-2.4 0-.1 0-.2 0-.3-.1-.1-.1-.1-.2-.1-.3 0-.9.2-1.8.5-2.7.1-.4.4-.8.5-1.2.1-.4.1-1 .2-1.4.1-.5.1-.9.3-1.4.2-.7.4-1.4.7-2.1.1-.3.1-.5 0-.8-.1-.3-.1-.6-.1-.9.1-1-.3-1.9-.7-2.9-.3-.8-.6-1.5-.7-2.4-.1-.7-.2-1.2.6-1 .7.1 1.8.8 2.5.5-1-1.1-2.6-1.5-3.4-2.9-.3-.5-.4-1-.8-1.4-1.2-1.2-2.8-1.4-2.9-3.4 0-.5 0-1.1-.3-1.6-.1-.2-.3-.3-.5-.5-.7-.6-1.6-1-2.3-1.7-.7-.7-.8-1.4-1.2-2.3-.1-.3-.4-.5-.6-.8-.1-.3-.1-.8-.2-1.1 0-.3-.2-.7-.2-1-.1-.2-.1-.4-.2-.6l-.1-.1c-.1.1 0 .9 0 1 0 .3 0 .7-.2 1-.2.6-.3 1.1-.4 1.8-.2 1.3-.1 2.8.3 4 .3.8.7 1.6 1.1 2.4.4.7.9 1.4 1.4 1.9.4.4.9.6 1.3 1 .4.5.9 1.3 1 2 .1.3.1.6.1 1 0 .6.1 1.2.1 1.8.1.9.1 1.8.1 2.7 0 .6-.1 1.1-.1 1.7 0 .3.5 1.4-.1 1.3-.1 0-.2-.1-.3-.1-1.3-.8-2.5-1.6-3.7-2.5-.4-.3-.7-.7-1.1-1-.6-.4-1.2-.8-1.6-1.5 0-.1-.1-.2-.1-.2-.2-.2-.6-.1-.9-.2-.4-.2-.8-.4-1.2-.5-.5-.2-.7-.5-1.1-.8-.4-.3-.9-.6-1.3-.9h-.1l-.1-.1c.1.8.8 1.3 1.4 1.8.6.5 1.4.9 2.1 1.3-.1 0-.5.1-.6.1-.2 0-.5 0-.7-.1l-1.2-.3c-.8-.2-1.5-.6-2.3-.9-.1-.1-.3-.1-.4 0 0 0 .6.6.7.6.8.1 1.6.2 2.2.6zm54.2-57.2c.1-.8-.3-.7-.6-1.2-.2-.4 0-.9 0-1.2.2-.6.2-.8-.1-1.5-.5-.1-1.4.4-1.4-.4 0-.3 1-1.4.1-1.5-.3 0-.4.3-.7.1-.4-.2-.6-1.4-1.3-1.2-.3.1-.1.5-.1.8 0 1.1-.4.9-1.3 1-.5 1 1.6 1.9-.3 2.2-1.7.3 0 1.2-.6 2.2-.3.5-.6.7-.3 1.5.2.6 1.3 1.1 1.2 1.8-.1.4-.6.6-.5 1.2 0 .2.2.4.2.7 0 .3-.5.8-.1 1.1.4.2.7-.4.9-.6.3-.5.5-1 .6-1.5l.3-.9c.1-.4.1-.9.2-1.3 0-.1 0-.1.1-.1s.1.2.1.2c0 .4 0 .7-.1 1.1l-.3 1.5c-.4 1.3-1.3 2.1-2.2 3.1-.4.4-.8 1-1.1 1.5-.3-1.1-.7-2.2-1.2-3.3-.1-.3-.3-.6-.4-.8-.1-.2-.1-.3-.2-.5-.6-1.2-2.1-2.7-1.5-4.1.8-2 1.8-4 2.6-6 .6-1.3 1-2.7 1.3-4.1.1-.6.2-1.2.3-1.7 0-.3 0-.9.2-1.2.2-.3.3.4.3.5.2 1.6-.1 3.6-.9 5-.1.2-.8 1.3-.5 1.4.3.2.8-.7.9-.9.4-.6.9-1.2 1.4-1.7.6-.7 1.4-1.1 2-1.8 1.1-1.1 1.6-2.8-.2-3.4-2.2-.7.1-2.5.3-3.8.1-.7-.4-.8-.7-1.3-.2-.5.2-1-.1-1.5-.2-.4-.5-.3-.9-.3-.4.1-1.8.2-1.3-.6.3-.5 1.3-1.3.8-2-.7-.8-.8.7-1.3.5-.4-.1-.7-.9-1-1.3-.3-.4-.3-1.2-.8-1.4-1.3-.5 0 2.7-.9 2.8-.6.1-1-.6-1.5-.2-.4.2-.3.9-.2 1.2.2.4.9.7.8 1.2-.1.4-.6.4-.9.4-.4 0-1.3-.1-1.5.5-.1.5.4.7.5 1.2.1.5-.6.7-.5 1.2 0 .8 1 1.3 1.5 1.8.2.3.5.6.4.9-.1.8-.8.5-1.4.7-1.3.5-1 1.6-.2 2.5.8.9 1.3 1.8 1.5 3 .1.4.1.8.1 1.3 0 .2-.1.6 0 .8.2.5.5-.5.6-.7.2-.8.6-1.5.8-2.3.5-1.6.9-3.3 1.1-5 .1-.8 0-1.7-.1-2.5 0-.6-.1-1.1-.2-1.6-.1-.4-.2-1 0-1.3.4.3.5.8.6 1.3.2.6.1 1.2.2 1.9.1 1.8.2 3.5-.1 5.2-.2 1.1-.6 2-1 3-.6 1.4-1.2 2.8-2 4.1-.2.4-1 1-1.1 1.4-.2.5.3.9.2 1.4-.1.3-1-.5-1.1-.6-2.5-2.8-5.3-5.4-8.7-7.3v-1.3c.1-2.3 0-4.6.3-6.9.1-.7-.1-3.3.7-3.7.2.4.1 1 .1 1.4 0 .9.1 1.7.1 2.6-.1 1.1-.4 2.2-.3 3.3.4 0 .3-.3.5-.6.5-1 1.2-2 2.3-2.6.3-.2 1.2-.6.9-1.2-.2-.3-.8-.1-1.1-.4-1-.9 1.5-1.4.5-2.5-.4-.4-2.2-1-1.6-1.9.3-.4 1.5-.6 1.9-1.1.3-.3.6-.7.4-1.2-.3-.8-1.5-.3-2.2-.6-.9-.3-.5-1.3-.6-2.2 0-.4-.3-2.8-1.1-2-.6.6.5 1.3-.7 1.1-.4-.1-.9-.5-1.3-.2-1 .7 1 2.2-.3 2.8-.6.3-2.2-.2-1.9 1.1.2.7 2.1 1.3 1.8 2.1-.4 1.1-3.1-.3-3.5.7-.3.9 1.3 1 .6 2.1-.2.4-.7.6-.6 1.1.1.6.8 1.2 1.2 1.6.5.5.9 1.1 1.4 1.6.3-.8.2-1.9.4-2.8.2-1 .3-2.1.8-3 .4-.8.7-1.4.9-2.2.1-.4.2-1.2.7-1.2.1 0-.7 2-.7 2.2-.2 1.1-.1 2-.4 3-.3.9-.3 1.9-.4 2.8-.2 1.1-.4 2.3-.4 3.5 0 .7-.3 1.6.1 2.3.1.2.4.5.3.8-.8-.2-1.6-.7-2.3-1-.8-.4-1.6-.7-2.5-1-1.6-.7-3.2-1.3-4.9-1.9-2.7-1-5.5-1.8-8.3-2.5-.4-.1-5.1-.9-5.1-1.2 0 0 0-.1-.1-.1 2.8.1 5.4.7 8.2 1.3 2.2.4 4.3 1.7 6.5 2.2.4.1 1.3.5 1.7.1.4-.5-2-2-2.4-2.4-.6-.6-1-1.2-1.3-2-.3-.7-.3-1.7-.8-2.3-.3-.4-.8-.6-1.3-.5-1.1.1-.8 1.5-1.6 1.6-.2 0-.4 0-.6-.1-.8-.3-1.6-.8-2.2-1.4-.5-.6-1-1.9-2-1.8-.8.1-.7.7-1.2 1-.4.2-1.1 0-1.4-.3-.2-.2-.4-.4-.6-.5-.3-.1-.6 0-.8.1-.8.7.2 1.4.1 2.1 0 .3-.3.5-.5.6-.3.1-.5.1-.8 0-.8-.1-1.7-.9-2.5-.8-.3 0-.5.2-.4.5 0 .2.2.3.3.4.6 1-1.7.8-2 .8-.3.1-.6.2-.8.5-.5.9.7 1 1.3 1.2.3.1.8.2 1 .5.3.5-.5 1 0 1.5.2.2.5.2.8.1.6-.2 1-.7 1.6-.7.5 0 1.5.2 1.5.8 0 .4-.4.6-.7.9-.4.4-1.2 1.1-.6 1.5.7.6 2.6-.6 2.8.6.1.3 0 .6 0 1 .1 1.1 1.5.8 2.2.5.9-.4 2.1-1.5 3.1-1 .6.2.8.9.7 1.5 0 .3-.2.5-.1.7 0 .4.4.7.8.8.8.2 1.5-.4 2.2-.7.8-.3 1.6-.7 2.5-.8.3 0 2.1.1 2.2-.3.1-.8-2.3-1.3-2.8-1.4-1.3-.4-2.5-.9-3.8-1.3-1-.3-2-.7-3-1-.4-.1-.7-.3-1.1-.5-.2-.1-.8-.6-1-.6.7-.1 1.3.3 2 .4.8.2 1.6.4 2.4.7 1.6.5 3.2 1 4.8 1.6 3.3 1.2 6.6 2.4 9.6 4.2 3.1 1.8 5.7 4.4 8.1 7 1.6 1.8 2.8 3.7 4 5.8.6 1.2 1.5 2.5 1.7 3.9.3 2.1-2.5-1.2-3-1.4-.6-.2-.5.1-.5.6-.1.5-.3.7-.4 1.2-.5 1.2 1.7 1.9 2.3 2.7.3.4.5.9.7 1.4.2.6.2 1.2.2 1.8 0 .9.1 1.7-.9 1.8-1.9.3-4-1.6-3.8-3.5.1-1.8.7-3.8 1.3-5.5.2-.7.5-1.5.9-2.1.3-.5.6-.7.3-1.3-.4-.8-.9-1.4-1.5-2-.1-.1-1.9 3.2-2.1 3.4-.5-.3 0-1.2-.3-1.7-.1-.2-.5-.4-.7-.6-1-1-1.4-2.3-2.1-3.5-.5-.9-.8-2-1.1-2.9-.3-.8-.5-1.8-1-2.5-.2-.3-1.2-.9-1.6-.8-.1 1.3.6 2.5.6 3.7.1 1.9.8 3.9 1.8 5.4 1.1 1.6 2 3.2 3.3 4.7.2.2.4.5.6.7-.6 2.4-.8 4.9-.8 7.3 0 1.3.1 2.5.1 3.8 0 1.7-.7 3.2-.3 5 .5 2 0 4.1-.3 6.1-.2 1.2-.4 2.5-.2 3.7.2 2.8.2 5.3-2.1 7.2-.4.3-.1.6-.2 1.1-.1.4.1.2-.2.4-.3.2-.8.1-1.1.2-.5.1-.8.1-1.1.4-.4.5.1 1-.1 1.4-.3.5-1 .4-1.5.4 0 0 .4.6.5.7.3.1.6.1.9 0 .8-.3 1-1 .9-1.8.7-.2 1.4.1 2.1-.1.5-.1 1-1.1 1.4-.4.6 1-.7 1.2-.7 2-.9.3-1.4-.1-1.4-1-.4.1-.8.5-.7.9.1.6 1.6.5 1.4 1.3-.2 1-1.6-.3-2.2-.1-.3.1-.6.4-1 .5-.3.1-.8.1-1.1.2 0 .6 1.3.5 1.6.4.2-.1.4-.3.6-.4.1 0 .6.2.6.3.1.4-.2.4-.3.6-.3.3-.3.6-.4 1.1 0 .5-.2 1.4.4 1.6 0-.5.1-1.1.3-1.6.2-.6.6-.7 1.1-1 .5-.3 1.2-.4 1.6-.8.3-.4.1-.8.3-1.1.2-.4.9-.5 1.2-.8.3-.3.4-.7.9-.5 0 .3-.2.6-.1.9.1.8-.1 1-.8 1.3-1 .5-.8 1.5-.4 2.3.5-.3 0-1.1.5-1.5.2-.2.6-.3.8-.4.4-.2.8.2.9.6.2.6-.4.7-.8.9-.7.3-.3.7-.6 1.2-.3.6-.8.4-1.1-.1-.3-.4-.4-.8-.9-.9-.2 0-.4.1-.6-.1-.2-.1-.1-.4-.4-.4-.1.3-.2 1 0 1.3.3.4 1.7.4.7 1.1-.6.4-1.2 0-1.4.7-.2.7-.3 2.2.9 2 0-.4-.3-.9-.2-1.2.2-.9 2.2-.5 2.9-1 .1.3 0 .7 0 1-.1.5-.2.5-.4.8-.5.8.9 1.6 1.5 1.8.5-.6-.7-.7-.6-1.3.2-.8 1.4-.5 1.2-1.5-.1-.6-.7-.9-.4-1.6.2-.4.9-.9 1.3-1.1.6-.2 1.1 0 1.5-.5-.3.4-1-.5-1.1-.7-.2-.5.1-1.1.5-1.5.2-.2.8-.6 1-.6.8.1.7 1.7.8 2.2.1.4.4.9.2 1.3s-1.2.5-1.6.6c.1.9-.8.7-1.5.8-.2 1 1.9.8 1.9-.1.5-.1 1.2.1 1.3.6 0 .5-.4 1-.9 1.2-.6.2-1.4.2-1.4 1 .3-.2.5-.5.9-.5h.7c.2 0 .9-.3 1.1-.2.2.1.3.7.5 1 .3.4.7.7 1.1 1.1-.1-.3-.1-.6-.2-.9-.1-.4-.5-.7-.6-1.1-.2-.5.1-1.2.1-1.7 0-.6-.2-1.1-.2-1.7 0-.6.1-1.2.2-1.8.4.4 1.3.8 1.4 1.5 0 .3-.3.7-.4.9.8.1 1.6-1.3 1.1-1.9-.3-.4-1-.4-1.1-1-.1-.4 0-1 .5-1.1.4-.1 1.1.4 1.4.7.5.5.2.8.2 1.4 0 .7.5 1.2.2 1.9-.1.3-.3.6-.5.8-.4.5-1.1 1.1-1.8 1.3.7.3 1.5-.5 2.1-.7.6-.2.8 0 1-.7.1-.4 0-.8.2-1.2.4.4.3.7.8 1 .4.2.8.7 1.2.9.1-.8-.4-1-1-1.5-.7-.6-.9-.9-.8-1.8.1-.7-.2-1-.4-1.6-.2-.7-.3-1.3-.8-1.9-.2-.3-.5-.5-.5-.8.5 0 1.1.4 1.4.7.4.5.4.9 1 1.2.4.2.9.2 1.1.5.3.3.8 1.4.7 1.8-.2.7-.9.2-1.4.3.7 1.2 2.1 1 2.5-.4.2-.7-.5-1.5-.8-2.1-.3-.5-1.2-.9-1.3-1.6.3.1.8 0 1.1.1.3.1.4.5.7.6.2.1.6.2.8.3.3.1 1.3.3 1.4-.3 0-.1-1.6-.4-1.7-1-.1-.5-.3-1.4-.7-1.8-.5-.4-1.5-.2-1.9-.6-.3-.3-.1-1.1-.3-1.5-.3-.5-1.7-.7-2.1-1.4-.8-1.1-.4-2.3-.3-3.5.1-1.2 0-2.5-.2-3.7 1-1.6-.4-5.1.3-7.1.4-1 .1-2.2.2-3.3.1-1.4.1-2.9.2-4.3.2-2 0-3.9.5-5.9.2-.7.5-1 .9-1.6.5-.7.8-1.6 1.2-2.4.7-1.3 1.1-2.4 1.2-3.8 0-.3.1-.5.1-.8.1-.5.1-1 .1-1.5s-.1-1.1-.1-1.6c0-.4-.1-.8-.1-1.1 0-.2 0-.6.3-.3.2.2.2.8.3 1 .1.5.2 1 .2 1.5v2.6c-.1.8-.2 1.4-.5 2.1-.2.4-.5.9-.4 1.3.1.5 1.7-1 1.8-1.1.4-.7 1.3-2.1.7-2.8-.3-.4-.7-.5-.5-1 .5-.3 1.2-.5 1.2-1zm-26.2 44c.4-.4.7-1.1.4-1.7 0 .3-.2.5-.5.6-.1-.7-.2-1.4-.9-1.8-.4-.2-.8-.3-1.2-.3 0 .1.2.2.3.3.6.3 1.3 1.2.7 1.8-.4.4-1.6.4-2.2.2-1.4-.5-1.7-1.9-2.1-3.1-.4-1.1-.5-2.2-.7-3.3-.7-2.8-2.5-5.4-5-6.9-1.6-1-3.4-1.5-5-2.4-1.3-.7-2.3-1.7-3.7-.3-.5.5-1 2-2 1.4-.9-.5-.3-2.7.2-3.3.4-.5 1.1-1.1 1.7-1.4 1.2-.7 2.5-.9 3.5-2.1.9-1.2 1.2-2.5 1.1-4 0-.5-.1-.9.1-1.3-.1.1.3.8.4.9 1 1.8 2.4 3.4 4.2 4.5 1.5.9 3.2 1.4 5 1.4.9 0 1.7-.1 2.6-.3.9-.2 1.7-.6 2.6-.7.4 0 1.9.1 1.4.9-.1.2-.4.2-.6.2v.2c.4.4 1 0 1.3-.3.4-.6.3-1.5-.2-2-.3-.4-1.2-.9-1.7-.4 1.1-1.1 1.7-2.7 1.7-4.3 0-.1-.2-1.2-.2-1.1-.3.4-.4.9-.6 1.3-.2.3-.4.6-.6.8-.1.1-.7.4-.7.5.1-.6.5-1 .5-1.6.1-.9-.2-1.9-.9-2.6-.5-.5-1.4-1-2-.4-.1.2-.2.4-.2.6.4-.6 1-.3 1.3.2.5.9.4 2.2.1 3.2-1.2 3.2-5.5 3.1-8.2 2.4-1.7-.4-3.2-1.5-4-3.1-.9-1.8-.1-4-1.2-5.8-.5-.9-1.4-1.6-2.4-2-1.2-.5-2.6-.7-3.9-.7-.8 0-1.6.1-2.4-.1-.8-.1-1.6-.4-2.4-.7-1.3-.4-2.5-.7-3.8-1-.9-.2-2-.3-2.9-.2-.1 0-.2.1-.2.1 1.9 1.2 3.8 2.3 5.8 3.5.9.5 2.3 1.4 2.5 2.6.1.5-.3.8-.8.9.4.2 1 .2 1.4 0 0 .3-.3.6-.6.8.5 0 1 .1 1.3-.3v.3c-.1.2-.2.3-.4.4h.6c.6-.1.6-.5.6-1 .4 0 .8.3 1.1.6.4.4.7.9.9 1.4.5 1.2.5 3-.4 4-.9.9-2.3.8-3.4 1.3-2.1.9-3.7 2.6-4.4 4.8-.8 2.6-.2 5.5 1.4 7.6.6.8 1.6 1.3 2.1 2.1.4.7-.2 1.9-1.2 1.6-.1-.2-.2-.5-.1-.7-.6.1-.6 1-.1 1.3.5.4 1.1.3 1.6.3-.2.9-2.3.8-2.8.4 0 .3.2.5.5.6 1.1.6 2.5.3 3.5-.4-.3.8-1 1.4-1.8 1.6h1.3c2.4-.4 2.3-4.1 1-5.5-1.7-1.8-3.6-2.7-4.1-5.3-.4-1.9-.1-3.9 1.1-5.4.6-.8 1.4-1.5 2.4-1.9 1.8-.8 3.5-.7 4.6-2.7.8-1.5.7-3.2-.3-4.5-.9-1.2-2.4-1.9-3.1-3.3.1.2 1.1.3 1.3.4.1 0 1 .6.9.2-.1-.2-1-.7-1.2-.8-.3-.2-.5-.3-.8-.6-.2-.3-.9-1.5-.4-1.8.2-.1.4-.1.6 0 .3.1.7.2 1 .3.5.1 1.1.3 1.3.8.1.2.1.4.2.7.2.6.8.9 1.3 1.1.5.2 1.1.4 1.6.8.9.9 1.3 3 1.4 4.2.1 2.4-.7 5-3.1 5.7-1.9.6-3.7 1.9-4.5 3.7-.4.9-.5 1.9-.2 2.9s1 1.8 1.4 2.7c.2.5.3.9.3 1.4.2 1.1-.1 2.6.5 3.7.5.9.9 1.7 1.2 2.6.7 1.8 1.5 3.9 3.3 4.9 0-.4.1-.8.1-1.2.3.4.6.9.9 1.3 1 1.4 2.2 2.9 3.9 3-.1-.3-.1-.6 0-.9 1.4.2 2.5 1.3 3.9 1.6.8.1.8-.1 1.4-.5.6-.5 1.3-.2 2 0 .5.1 1 .2 1.5.1-.3-1.2-.5-1.1.8-1.4.5-.1 1-.3 1.5-.5.3-.1.8-.7 1.1-.8-.6.1-1.3 0-1.9-.2.6-.1 1.2-.3 1.8-.8-.1.1 0 0 0 0zM151 167c0-.4-.1-.9-.1-1.3.1 1 1.3 2 2 2.5s1.4.9 2.2 1.1c.5.2 1.7.1 2.1.4-1.1-.8-1.5-1.5-1.4-2.9-.1.6 1.3 2 1.7 2.4 1.1.8 2.6 1.2 4 1.2-.4-.5-.4-1.3-.4-1.9-.1-.9-.4-1.7-.8-2.5.6.5 1.1 1 1.6 1.6-.2-.3-.1-1.3-.3-1.7-.2-.5-.7-1.1-1.1-1.4-.4-.3-.8-.4-1.2-.7s-.7-.6-.8-1c.5.3 1 .6 1.5.8-.1-1.2-1.1-2.2-1.6-3.4-.4-.8-.3-2.1-1.4-2.4-.7-.2-1.4-.3-2.1-.6-.4.5.5 1.4.6 1.3-1.1 1.5-2.6-.3-3.7.4-.1.1-.2.2-.3.4-.4.7-1.5.6-2.2.3-.7-.3-1.5-.8-2.3-.7-.7.1-1.4.5-2.1.4-.4-.1-.7-.3-1-.5-.7-.4-1.3-.9-2-1.3-.1.7.2 1.5.7 2 .5.5 1.2.9 1.8 1.1.3.1.5.2.7.4.3.3.2.8.3 1.2.2.7.7 1.2 1.3 1.6.7.5 1.2 1.1 1.8 1.8.3.4.6.8 1 1.1.4.4.9.6 1.4.9.2-.2.1-.4.1-.6z" fill="#CCC25A"/><path fill="#fff" d="M113.4 176.6c0 1.7 1.4 4 2.2 5.4 1 1.8 2.2 3.5 3.5 5.1.9 1.1 2.3 2.1 2.9 3.4.8 1.8.9 4.3 1.3 6.3.2.8.3 1.6 0 2.4-.4 1-1.4 1.5-2.4 2-2.5 1.2-5.2 2.2-8 1.9-4.6-.6-7.7-4.9-10.1-8.9-3.1-5-6.3-10-9.4-14.9-2.5-4-5-8-7-12.3-2.4-5.2-3.8-10.8-4.9-16.4-1.7-8.5-2.7-17.1-3.7-25.8-2.4-20.5-4.7-41.5.5-61.4.6-2.3 1.5-4.8 3.5-5.9 2.8-1.6 5.9.2 8.6 1.1-1.4 1.7-2.8 3.5-3.9 5.5-3.7 6.7-3.2 15-1.7 22.5.1.4.2.7.4 1 .3.5.9.7 1.4.9 1.6.8 2.7 2.5 3.1 4.3.7 2.4 1 4.7.2 7-.8 2.4-2 4.7-2.5 7.3-.2 1-.3 2-.4 3-.3 1.5-.8 2.9-1.5 4.2 1.2.1 2.4 0 3.6-.1-.3 3.8-.5 7.7.6 11.3 2.1 6.9 2 15-1.3 21.5-.3.5-.5 1.1-.6 1.6-.1 1.3.8 2.4 1.5 3.5 1.5 2.5 1.6 5.6 1.2 8.5-.3 2.9-1 5.7-1.1 8.6 0 .6 0 1.3.3 1.9.3.7.8 1.2 1.4 1.6 2.1 1.5 4.7 2.1 6.8 3.5 1.2.8 2.3 1.9 3.3 3 2.6 2.7 5.2 5.5 7.8 8.2.5-2.2 1.4-4.2 2.4-6.2.7-1.1 2-3.1 2-4.6zm82.1-91.3c-.2-3.6-.3-7.3.6-10.5.5-1.5.2-2.4-1.2-3.2-.3-.2-2.7-1.4-2.9-1.1 1-1.6 2.4-3 4-3.9 1-.6 2-1 2.6-2 .9-1.5.2-3.5-1.1-4.8-1.2-1.2-2.9-2-4.3-3-2.8-2-3.3-5.7-6.2-7.3-.3-.1-.6-.3-.7-.6-.2-.4.2-.9.6-1.2 1.7-1.1 3.8-1.3 5.8-1.4.9-.1 1.7-.1 2.5.1s1.5.8 2.1 1.3c2.9 2.8 4.1 7 4.8 11 .9 4.7 1.4 9.5 2.3 14.3.9 4.5 3.2 8.2 4.6 12.6 2.6 8.7 2.5 17.9 2.7 26.9.4 15.8 2 31.6 4.9 47.1.8 4.2 1.7 8.5.7 12.6-1.9 7.8-9.7 12.6-16.8 16.4-2.2 1.2-4.4 2.4-6.8 3-3.8.9-7.7 0-11.5.9-3.9 1-7.8 2.5-10.7 5.4-3 3-5 6.9-6.1 11-.8 2.8-1.6 6.1-4.2 7.2-1 .4-2.2.4-3.3.5-4.3 0-8.7.1-13 .1-4.5 0-9.1 0-13.2-1.9 0-2.7.5-6.1 3.1-6.7.6-.1 1.2-.1 1.8-.1 5.8.3 11.5.6 17.3.9 2.6-5.4 5.9-10.5 9.8-15 3.6-4.2 7.8-8 9.6-13.3 2.1 1.2 3.6 3.3 4 5.7 2.3-.9 4.3-2.3 6.1-4 .2-.2.4-.4.6-.7.2-.4.2-.9.2-1.3 0-3-.3-6.1.1-9.1.3-2.6.8-5.3 1.2-8 .8-5.1 1.1-10.3 1.4-15.5 3.1 1.5 6.2 3.2 9.2 5-1.7-1.7-2.4-4.1-2.6-6.5-.2-2.4 0-4.8-.1-7.1-.3-7.9-4.4-15.3-9-21.7 4.1 1.2 7.8 1.4 12 1.4.2-5.1.4-10.1.6-15.2 0-.6 0-1.2-.1-1.8-.2-.6-.6-1.2-1.1-1.7-.6-.8-1.2-1.5-1.9-2.3-.6-.7-1.2-1.7-.8-2.5.2-.4.6-.7 1-1.1 1.3-1.2 1.3-3.2 1.3-5 .2-1.2.2-2.5.1-3.9z"/><path fill="#CCC25A" d="M112.9 179.2c1.4 3.4 3.6 6.5 6.3 9 1.1 1 2.3 1.9 3.3 3 3.9 4.2 4.9 10.4 4.6 16.2 1 .1 2.1.2 3.1.2.3 0-.7-7.9-.9-9-.6-2.7-2.6-6.3-4.6-8.3-2-1.9-3.9-3-5.4-5.3-2.3-3.4-4.1-7-6-10.7-1.8 2.1-3.2 4.6-4.1 7.2-1.4 4.1-1.7 8.4-1.8 12.7-.1 3.5-.1 7.3 1.7 10.3.8.1 1.7.2 2.5.4-2.1-3.2-2.5-7.3-2.5-11.1 0-5 .9-10.3 3.8-14.6zM226.4 197c-.7-2.1-1.2-4.3-2.4-6.1-3.1-4.4-10.4-2.5-14.3-.3-1.8 1-3.4 2.2-5.3 2.9-1.9.7-4.2.8-5.8-.4-.2-.2-.4-.3-.4-.6-.1-.5.5-.9.9-1.1 1.7-.8 3.3-1.6 4.9-2.5.4-.2 4.3-2.1 4.3-2.4-.2-1.3-.3-2.6-.3-3.9-1 .5-1.9 1.4-2.8 2-1.1.7-2.1 1.4-3.2 2.1-2.1 1.4-4.3 2.7-6.4 4.1-1.3.8-2.6 1.6-3.6 2.6-.4.4-.7.8-.6 1.3.1.3.3.6.5.8 1 1 1.4 1.9 2 3.1.1.2.5 1.5.7 2.6-.6.2-1.2.4-1.8.5-9.1 2.6-18.4 4.2-27.8 5-19.3 1.6-38.7-.2-57.9-2.8-.3 0-.6-.1-.8-.1-3.6-.5-7.3-1-10.9-1.7-1.7-.3-3.8-.4-5.4-1.1-1.2-.5-1-1.9-1-3.1 0-.8 0-1.6.1-2.4.2-1.2.5-2.4.8-3.6.3-1.2.4-2.5.1-3.6-.3-1.1-.8-1.6-1.7-2.3-3.4-2.6-7.4-3.8-11.4-5.3-.2-.2-.7-.3-1-.4-3.1-1.3-6.2-2.8-9.2-4.5-5.8-3.2-11.3-7-16.4-11.4-6.6-5.6-12.4-12.1-17.3-19.3-.6-.9-1.6-1.8-2.5-1.2-.6.4-.5 1.3-.3 2.1 1.7 6.5 4.3 12.8 7.6 18.7-7.1-1-13.8-4.4-18.8-9.6-.7-.7-1.8-1.5-2.5-.8-.5.5-.2 1.4.2 2.1 3.7 6.7 8 13 12.8 19 2.3 2.8 5.1 5.8 8.8 5.9-6.1-6.6-11.6-13.8-16.4-21.5 5.3 4.2 11.8 6.9 18.6 7.7-2.3-5.9-4.6-11.7-6.9-17.6 2.3 3.3 4.9 6.5 7.6 9.5 6.2 6.8 13.6 13.5 21.7 17.9 3.4 1.8 6.9 3.5 10.5 4.8 1.8.7 3.7 1.2 5.6 1.7h.1c1.7.5 3.4 1.3 5 1.9 1 .4 1.6 1 2.3 1.9.2.2.3.4.4.6.2.4.2 1-.1 1.4-.4.7-1.3.8-1.9 1.1-1.7.7-3.6.3-5.4.2-3.3-.3-6.6-.6-9.7-1.7-1.9-.7-3.7-1.7-5.6-2.3-1.7-.6-5.3-1.5-6.7.1-1.8 1.9-3.1 4.3-4.7 6.4-.3.5-.7 1-1 1.5-1.9 3.1-3.3 6.8-2.2 10.4.6 2.1 1.9 3.8 3.3 5.4 10.3 12 25 19.7 40.3 23.8 15.3 4.1 31.3 4.8 47.1 4.8 13 0 26-.5 38.9-2.3 9.4-1.3 18.8-3.4 27.5-7.4s16.6-9.9 21.8-17.9c.9-1.4 1.8-2.9 1.8-4.6.2-3-2-5.6-3.2-8.2-.2-.6-.4-1.3-.6-1.9zm-27.7-1.1c2.2.5 5 .4 7.1-.3 2.7-.9 5.1-2.6 7.6-3.9.9-.5 2.2-1.5 3.2-1.5 1.7 0 .9 1.2 0 1.7-1.1.6-2.1 1.2-3.2 1.8-2.2 1.1-4.4 2.2-6.7 3.2-2.9 1.2-5.8 2.3-8.7 3.3-.8-1.6-1.5-3.1-2.3-4.7 1-.2 2 .2 3 .4zm-136.6-7.7c.5-.1 1 0 1.4.2 1.7.5 3.3 1.3 4.9 1.9 5.9 2.2 12.3 2.6 18.6 2.7.2 0 .4 0 .5.1.2.2.2.6.1.8-.5 2.1-.9 4.2-1.4 6.2-2.7-.7-5.3-1.4-7.9-2.3-4.4-1.5-8.8-3.3-12.8-5.7-.9-.5-1.9-.8-2.8-1.4-.6-.4-1.7-.9-1.6-1.7 0-.3.5-.7 1-.8zm166.3 17.4c.1.5 0 1 0 1.5-.2 1.3-.4 2-1.1 3.1-.7 1.1-1.4 2.2-2.2 3.3-1.1 1.6-2.6 2.9-4 4.2-6.1 5.6-12.9 9.6-20.8 11.8-20 5.6-40.9 8.1-61.7 7.2-2.1-.1-4.2-.4-6.3-.1-10.3 1.3-20.6-2.2-30.9-2.2-2.2-.2-4.3-.4-6.5-1-2.1-.5-4.1-1.3-6-2.2-7.6-3.2-14.7-7.7-21.8-12-6.5-4-17.7-11.7-14.6-20.9.9-2.7 2.5-5.3 4.5-7.4.6.7 1.4 1.3 2.1 1.8 8.4 5.2 18.3 7.4 28 9.5 11.7 2.5 23.4 5.1 35.2 6.5 32.8 3.9 66.6-.9 97.1-13.8.6-.2 1.2-.5 1.8-.3.7.2 1.1.8 1.4 1.4.7 1.2 1.2 2.6 2 3.7.9 1.2 1.8 2.5 2.6 3.7.6.8 1.1 1.4 1.2 2.2zm35.8-54.1c-4.4 5.6-9.7 10.5-15.7 14.4 1.6-5.2 2.4-10.7 2.4-16.2 0-3.4-.4-7.1-2.6-9.7-.7 1.8-1.5 3.5-2.3 5.2-.8 1.6-1.6 2.9-2.7 4.3-2.1 2.9-4 6-6.3 8.7-2.2 2.7-4.8 5.1-7.4 7.4-2.5 2.2-5 4.7-7.8 6.5-.1.1-.2.1-.3.3-.1.1 0 .3 0 .5l.9 3.9c.5-.8.6-1.3 1.3-2 .7-.7 1.5-1.4 2.2-2.1 4.8-4.6 9-9.8 13.2-14.9 1.6-1.9 3.1-3.9 4.6-5.9 1.3-1.8 2.9-3.2 3.6-5.5.2-.5.3-1.1.5-1.6.1-.1.1-.2.3-.3 1 2.6.6 5.8.3 8.5-.3 3.2-.9 6.4-1.7 9.5-.3 1.1-.6 2.2-.8 3.4-.2 1.3-.9 2.5-1.4 3.7.7.1 1.5-.1 2.1-.5 2.8-1.6 5.7-3.1 8.3-5.2 1.3-1 2.6-2.1 3.7-3.3.6-.6 1.2-1.2 1.7-1.8.3-.4 1.4-1.3 1.5-1.8-.5 3.2-2.3 6-4.2 8.6-5 6.8-10.8 13-16.7 19.1v5.2c6.1-5.5 11.5-11.9 16.1-18.7 1.4-2 2.7-4.1 3.8-6.3 1.4-2.8 2.4-5.8 3.3-8.8.6-1.5 1-3.3.1-4.6zm-166 23c-.8-.5-1.5-.9-2.3-1.3-4.3-2.5-8.1-6-11-10-1.9 6.4-2.2 13.3-1.1 19.9.1.4.1.8.4 1.1.2.2.5.4.8.5.7.3 1.3.6 2 .9-.2-.7-.4-1.5-.5-2.2-1.1-5-1.4-10.2-.8-15.3 1 1.5 2.4 2.6 3.8 3.6l6.3 4.8c1.1.9 2.3 1.7 3.4 2.7 4.1 3.6 7 8.3 9.9 13-.3-.4-.1-2.4 0-2.9.1-.9.2-1.7-.2-2.5-.1-.3-.3-.5-.5-.8-.8-1-1.8-2.1-2.2-3.3-.4-1.2-1.1-2.1-1.9-3.1-1.8-2-3.8-3.7-6.1-5.1zm-9.5 22.7c.6 2.1 1.7 4 3.3 5.5-1.2-.6-2.6-1.1-3.9-1.4 0-.5.1-1 .2-1.6.1-.8.2-1.7.4-2.5zm14.9 7.4c-1.2-1.3-1.7-3-2.3-4.6-.3-1-.7-1.9-1-2.9-.3-1-.7-2-1-3-.3-1-.6-2.1-1.1-3.1-.7-1.7-1.9-3-2.9-4.5-.9-1.4-1.6-3-2.4-4.5.2.3.8.6 1.1.8.4.3.8.7 1.2 1.1.8.7 1.5 1.5 2.2 2.4 1.3 1.6 2.3 3.5 3.3 5.3 2.2 3.9 3.2 8.2 4.2 12.5m13.5 2c.1-2.3-.2-4.6-.7-6.9-.3-1.3-.8-2.7-.5-4 .6 1.1 1.6 2.3 1.9 3.5.3 1.4.6 2.9.8 4.4.1.7.1 1.4.3 2.1.1.4 0 1.1 0 1.5M72 231.8c-4.8 2.7-9.2 6.2-13 10.3-1.3 1.4-2.6 2.9-4.3 3.7 11.5 2.5 23.6 2.3 35.1-.4 1.9-.4 3.7-1 5.5-1.6 4.3-1.7 8.2-4.3 11.3-7.7-.5-.6-1.5-.6-2.2-.3-.7.3-1.3.8-2 1.3-5.3 4.1-12.1 5.8-18.7 6.8-7.7 1.1-15.5 1.4-23.3.8 5-1.7 8.4-6.2 12.7-9.3 3.3-2.5 7.2-4.1 11.3-4.9-1.8-1.2-4.2-1.5-6.3-1.1-2.2.3-4.2 1.3-6.1 2.4zm18.6 1.4c-1.1-.1-2.3-.1-3.4.2-.9.2-1.7.7-2.4 1.2-2.8 1.8-5.7 3.8-8.9 4.4 2.7.3 5.5-.4 7.8-1.8.7-.5 1.4-1 2.2-1.4 2.7-1.4 5.9-.9 8.8-1.9m1.1 7.6c-2.4 6.7-2.5 14-2.3 21.2 1.6-2.5 4.4-4 7.1-5.1 2.8-1.1 5.6-1.9 8.3-3.3 1.2-.6 2.3-1.4 3.4-2.2 4-2.9 7.5-6.5 10.4-10.6.6-.9 1.2-1.8 1.6-2.7.1-.1.1-.3.1-.4-.1-.1-.2-.2-.4-.3-.6-.2-1.3-.4-1.9-.7-1.4 4.2-4.2 7.8-7.8 10.3-2.6 1.7-5.5 2.8-8.4 4.2-3.7 1.7-7.1 3.7-10.4 6.1.4-5 .7-10 2.1-14.8.3-1.1.7-2.2 1.7-2.7m10.9-3.7c-1.4.9-2.5 2.1-3.4 3.4-2.1 2.8-3.8 6-5 9.3.1-.3.7-.5.9-.8.2-.2.3-.5.4-.8.4-.9 1-1.7 1.6-2.5 1.2-1.7 2.5-3.3 4-4.8.8-.8 1.7-1.6 2.7-2.2 1.5-.8 3.3-1 5.1-1.2m-52.9-18.7c-4.5-1-10.1-.9-14.4.7-2.2.8-4.2 2-6.5 2.1.8 1.3 1.9 2.3 3.1 3.2 4.7 3.6 10.3 6 16.2 6.9 5.9 1 11.9.5 17.6-1.4 1-.3 1.8 0 2.8-.5-.4-.6-1.2-.9-1.9-1-.7 0-1.5.1-2.2.3-3.2.7-6.5.7-9.8.7-2.3 0-4.5 0-6.8-.3-5.5-.8-10.5-3.7-15.1-6.9 4.6-.9 9.3-1.8 14-1.8 3.2 0 6.3.4 9.4 1.2m2.2 3.1c-4.9-1.1-10-1.7-15.1-1.6.8.6 1.8.9 2.8 1.2 4.7 1.2 9.5 1.7 14.3 1.6m-33.6-28.3c-6.1.1-12.7-1-18.3-3.6-2-.9-4-1.9-5.8-3-1.9-1.1-3.7-2.3-5.3-3.8-.8-.7-1.6-1.5-2.4-2.3-.2-.2-1.9-2.4-2-2.4 5-1.7 10.4-2.3 15.7-2.1 4.8.1 9.7.5 14.3 1.7 4.4 1.2 8.6 3 12.4 5.5 2.2 1.4 4.2 3 6.1 4.7.4-.3.7-.7.9-1.2 0 0-3.5-3-3.8-3.4-1.1-1.4-3-2.2-4.5-3.1-5.2-2.9-10.8-5.3-16.5-6.5-1.9-.4-3.8-.7-5.7-.9-3.8-.4-7.7-.5-11.4.2-3 .6-5.8 1.7-8.7 2.8-1.7.7-3.5 1.3-5.2 2 2 1.2 3.6 2.8 5.4 4.3 4 3.4 8.5 6.4 13.2 8.9 2.4 1.3 5 2.4 7.6 3.1 2.6.7 5.2.9 7.9 1 5.8.2 11.8-.1 17.2-2.1.3-1 .6-2.1.9-3.1-3.6 2.3-7.8 3.2-12 3.3zm14.1-5.4c-10.9-4.8-22.7-7-34.4-8.3 10.1 4.9 21.9 5.4 32.3 9.7M29.4 198c-4.1.1-7.9 2.1-11 4.8s-5.3 6.2-7.5 9.6c1.5-.8 3.1-1.1 4.8-1.4 3.9-.7 7.8-1.1 11.7-1.1 4.1-.1 8.3.2 12.4-.3 4.1-.4 8.3-1.6 11.4-4.3.3-.3.2-.5.2-.9s-.2-.9-.7-1c-.3-.1-.5 0-.8.1-5.4 1.6-10.8 3.6-16.4 4-3 .2-6 0-9 0s-6.1.3-8.8 1.5c.2-.7.7-1.3 1.2-1.8 2.5-2.7 5.1-5.3 8.5-6.7 3.1-1.2 6.6-1.3 9.8-2.3-1.8-.2-3.9-.2-5.8-.2zm15.1.6c2.4-.6 4.8-1.2 7.3-1.8-.1.6-.3 1.2-.4 1.9-.1.4-.2.8-.5 1.1-.2.2-.5.3-.8.3-1.1.2-2.2.2-3.2.3-2.9.1-5.7.8-8.4 1.4-2 .4-4 .9-6 1.3-1 .2-2 .5-3 .7-1.2.3-.9-.5 0-.9 4.2-1.7 8.5-3.1 12.8-4.2M66.4 188c-.9-3-3.5-5.2-6.1-7-4.5-3.2-9.1-6.1-13.9-8.8-.4-.2-.8-.4-1.2-.4-1.1 2.8-1.2 5.9-1.2 8.9 0 .9 0 1.7.3 2.5.5 1.3 1.7 2.2 3.1 2.2-1.6-2.8-2-6.3-1.2-9.4 2.9 1.9 6.1 3.4 9.2 5.1 3 1.7 6 3.8 8.2 6.4m-7 1.4c-1.6-2.1-3.6-4-5.7-5.6 1.4 2.4 2.6 4.8 3.7 7.3.1.3.4.7.7.8.3 0 .5-.2.7-.3l.6-.6c.1-.1.3-.3.3-.5.2-.5-.1-.8-.3-1.1zM84 174.3c-.2-1.1-.4-2.1-.6-3.2-.2-1-.4-2-.7-2.9-.8-2-2.5-3.6-4.1-5.1-1.6-1.5-3.3-2.9-5-4.2-3.5-2.7-7.1-5.1-10.5-7.8-3.3-2.6-6.5-5.4-9-8.8-2.4 7.6-.8 15.9 2.1 23.3 1.2 3.1 2.7 6.2 4.9 8.7s5.2 4.4 8.5 4.8c-9-7.7-14.3-19.4-14.1-31.2 0 .2 2.1 1.4 2.3 1.6 1.8 1.4 3.5 3.1 5.1 4.7 2.7 2.8 6.1 4.8 9.1 7.3 2.8 2.4 5.5 5 7.4 8.2 2 3.5 2.5 7.6 5.1 10.9m-9.1-1.8c.2.6.6 1.1.8 1.7.1.4.2.8.4 1.1.7.9 2.6 1.3 3.7 1.8.1-1.2-.8-2.4-1.1-3.5-.3-1.4-1.3-2.8-1.9-4.1-.4-.9-.8-1.8-1.3-2.6-2.3-4.1-5.7-7.6-9.9-9.9.4.8.9 1.5 1.5 2.1.5.6 1.2 1 1.7 1.6 2.4 2.2 4.2 5 5.1 8.2.4 1.1.6 2.4 1 3.6zm-6.9-22.7c-1-4.8 1.2-9.8 4.4-13.6 1.7-2 3.6-3.7 5.4-5.7 1.7-2 3.3-4.2 3.8-6.7.4 3.2 2.1 6.1 3.6 9 4.1 8.1 6.2 17.2 6.2 26.2 0 1.9-.1 3.9-.8 5.8-.7-.2-1.1-.8-1.3-1.5-.2-.7-.1-1.4 0-2.1.4-5.4-.5-10.8-2-15.9-1.6-5.1-3.8-10.1-6-15-1.5 2-3 4-4.5 5.9-1.4 1.8-2.8 3.6-3.8 5.6-1.6 3.2-2.3 6.9-2.5 10.5m8.7 7.9c-.2-2.4.1-4.8.4-7.1.3-3 .6-6 .9-8.9 1.6 6.4 2.2 13.1 1.7 19.7m-37.2-24c2.8 5.9 3.4 12.5 5.6 18.7.5 1.4 1.3 2.9 2.8 3.5-.3-.1-.5-3.4-.6-3.8-.2-1.3-.5-2.6-.7-3.9-.5-2.5-1.2-4.8-1.8-7.3-1.3-4.5-3.4-8.9-6.2-12.7-.6-.8-1.2-1.4-1.8-2.1-3.4-3.9-7-7.6-10.6-11.3-4.4 4.5-6.9 10.8-7 17.1-.1 6.3 1.9 12.6 5.5 17.8.6.9 1.3 1.9 2.3 2.6.9.7 2.1 1.1 3.2 1-4.5-4.7-7.3-10.8-8.1-17.2-.7-6.4.7-13.1 4-18.6 0 .4 1.2 1.6 1.5 1.9.5.7 1 1.4 1.6 2 2.4 3.1 5.8 5.2 8.1 8.3.8 1.3 1.6 2.7 2.2 4zm-2.4 12.6l-4.5-9.3c-.4-.9-.9-1.8-1.3-2.7-.5-1.1-1.1-2.3-1.5-3.4-.2-.6-.5-1-.7-1.6 0-.1-.7-1.1-.7-.9-.1 1 .2 2.3.5 3.2.4 1.7.9 3.5 1.3 5.2.2.9.4 1.8.8 2.6.5.9 1.1 1.8 1.8 2.6 1.1 1.3 2.3 2.6 3.5 3.9m-16-12.2c-1.2-.7-2.6-1.1-4-1.4-6-1.4-12.5-.7-18.4-2.7-.5 3.3.5 6.6 1.5 9.7.6 1.9 1.3 3.7 2 5.5.6 1.5 1.2 3 2 4.3 2.1 3.2 5.6 5.3 8.9 7.2 3.1 1.8 6.3 3.6 9.8 4.3 0-.6-.1-1.5-.4-2.1l-.3-.6c-.2-.2-.5-.4-.8-.5-3.5-1.4-6.9-3.2-10.1-5.2-1.6-1-3.2-2.1-4.5-3.6-1.6-1.9-2.5-4.3-3.3-6.6-1.2-3.3-2.4-6.6-3.2-10 1.2.4 2.4.4 3.7.5 2.6.2 5.1.6 7.7 1 3.5.6 7.1 1.2 10 3.1v-1.4m2.9 11c-2.1-2.6-5-4.6-8-6-3.1-1.4-6.3-2.2-9.6-3 4.7 1.7 9 4.2 12.9 7.3 1.6 1.3 3.2 2.8 5.2 3.5m54.6-43.3c-.1-.3-.3-.5-.5-.7-2.4-2.3-6-2.9-9.3-2.6-1.1.1-2.3.1-3.3.7s-2 .8-3.3.8c-1.1-.1-2.3-.3-3.4-.4-1.5-.1-3.1.1-4.5.6-.2-.4.2-.7.6-.9 1.3-.7 2.9-.6 4.3-.5 1.5.1 2.9.2 4.5.1 2.6-.2 5.2-1.9 7.1-3.7.8-.8 1.6-1.8 1.6-3-.1-1.5-1.5-2.8-1.3-4.3.2-1.3 1.7-2.5 1.1-3.7-.3-.6-1-.9-1.6-1-2.1-.4-4.3-.1-6.2-1.1-1.3-.7-2.3-1.9-3.6-2.5-1.5-.6-3.2-.4-4.7-.1-1.5.3-3 .6-4.3 1.5-2.2 1.5-2.8 4-3.6 6.4-.1.3-.2.5-.3.7-.2.2-.4.4-.7.3 0-.6.3-1.2.6-1.8.6-1.3 1.1-3.1.7-4.5-.4-1.4-2.1-2.6-3.2-3.4-.9-.7-1.8-1.3-2.8-1.7-3.9-1.4-8.3 1.3-12.4.4-.7-.2-1.5-.4-2.1.1-.2.2-.3.4-.4.6-1.9 3.9-.6 8.9 2.4 12 .4.5.9.9 1.2 1.4.7 1.5-.3 3.8 1.2 4.9.7.6 1.8.6 2.5.1.3-.2.5-.4.9-.5.2 0 .5 0 .7.1 1.1.3 2.1.7 3.2 1.1.6.2 1.2.5 1.6.9.5.4.8 1 .7 1.7-1.4-1.3-3.2-2.1-5-2.8-.4-.2-.8-.3-1.2-.2-.4.1-.6.5-1 .7-.9.6-2.1 0-2.9-.7-.8-.8-1.6-1.9-2.6-2.5-1.2-.6-2.9-.6-4.2-.6-1.8.1-3.6.6-5.1 1.6-1.2.9-2.1 2.1-3 3.3-1.2 1.7-2.2 3.5-3.3 5.3-.7 1.2-1 3-.3 4.3.5.9 1.4 1.4 1.8 2.3.5 1.3-.4 2.9.5 4 .3.4.8.6 1.3.8 1 .3 1.9.1 2.9 0s2 0 3.1 0c1.6-.1 3.2-.5 4.8-.5.8 0 1.6.1 2.3 0 .7-.1 1.4-.3 2-.7h.1c1.5-.1 2.7-.1 4.1-.9 1.6-1 3.4-2.2 4.6-3.6.2-.2.4-.5.6-.7.1-.1 1.1-1.4 1.3-.9.1.3 0 .5-.2.8-.3.5-.5.9-.9 1.2-.8.7-1.6 1.5-2.6 2.2-.5.4-2.7 1.3-2.3 2.1.3.5 1.3.1 1.7.2 1.2.2 1.3 1.5.4 2.2-1.3 1-2.9 1.6-4.5 1.7-.4 0-.8.1-1.2.2-.4.2-.7.5-.7.9s.4.8.7 1c1.3 1.2 2.1 2.8 3.2 4 .8.8 3.3.1 4.5-.3 1.1-.4 2.3-.8 3.3-1.4 1-.5 1.9-1.1 2.7-1.7.6-.4 1.6-1 2-1.7-1.1-1-2.4-1.8-3.7-2.3-.5-.2-1-.4-1.3-.8 1.9.4 3.7 1.1 5.4 2.2.6.4 1.1 1 1.8 1.4.8.5 1.5.9 2.3 1.4 1.1.8 2 1.8 3.1 2.5s2.6 1.1 3.8.6c1.7-.6 2.4-2.6 3-4.3 1.2-3.2 2.6-6.4 5.2-8.6 1.7-1.5 3.8-2.5 5.6-3.7 1.9-1.2 3.7-2.8 4.4-5 .2-.1.3-.6.1-1zm-55.1 8.5c-1.4.1-2.9 0-4 .8-.6.4-1.7 2-2.5 1.1-.2-.2-.2-.5-.2-.8 0-.9.8-1.8.4-2.6-.3-.7-1.3-.9-1.8-1.5-1.1-1.2.4-3.5 1-4.6.2-.5.5-.9.9-1.2.5-.2 1.2 0 1.6.4.4.4.8.9 1.1 1.3 1.3 1.6 3.3 2.5 5.4 2.8 2 .3 4.1.2 6.2 0 .5 0 1-.1 1.5-.2-2.8 2.4-6 4.2-9.6 4.5zm49.8-4c-2 1.9-5.1 1.9-7.5 3.2-.6.3-1.2.7-1.9 1-2.2.8-4.6-.1-6.6-1.3-.8-.5-1.7-1.1-2.7-1-1 2.7-.8 5.9.4 8.5.6 1.5 1.6 3 1.2 4.5-1.3 0-2.5-.9-3.5-1.7-2.4-1.8-4.9-3.4-7.5-4.7-.6-.3-1.2-.6-1.6-1-.5-.5-.7-1.2-.5-1.8.4-1 1.8-1.1 2.9-1.5 1.2-.4 2.1-1.3 2.9-2.2l1.8-1.8c.4-.4.8-.8.9-1.3-.5-.6-1.5-.5-2.3-.5-1.4 0-2.7-.3-3.3-1.6-.5-1-.6-2.2-1.1-3.2-.3-.6-.6-1.3-1-1.8-1.6-1.8-3.6-3.7-6.2-3.4-.3 0-.6.1-.8 0-.3-.2-.4-.5-.6-.7-.4-.4-1-.2-1.6 0-.3.1-.6.2-.8 0-.3-.2-.3-.6-.4-.9 0-.7 0-1.3-.1-1.9-.3-1.3-1.5-2.2-2.4-3.2-1.7-1.9-2.5-4.5-2.3-7 0-.1 0-.3.1-.4.2-.3.5-.3.8-.2 1.5.6 2.4 2.7 3.1 4 1.6 2.6 3.5 4.9 5.9 6.8.9.7 2 1.9 3.3 1.9 2.3-.1 2.4-3.7 4.8-3.4.3 0 .6.2.9.1.1 0 .1 0 .2-.1h.1c.5 0 .8-.4 1-.9.5-.9 1.5-3.9 2.8-3.9.5-.1 1 .3 1.4.6 1 .6 2.1.9 3.2.6 1.1-.3 2.1-1.1 2.4-2.2.3-1 .1-2.2.9-2.7 1.2-.8 2.2.4 2.9 1.2 1.1 1 2.7 2.1 4.2 2.1.5 0 1.1-.1 1.6 0s1.1.5 1.1 1c0 .3-.1.5-.3.7-.6.9-1.2 1.6-1.2 2.7 0 .6.6 1.2-.3 1.6-.5.2-1.1.2-1.7.3-.7.1-1.4.6-2 1.1-.9.7-1.7 1.4-2.6 2-1.5 1.2-3.5 2.5-5.3 1.8.4-.8.7-1.7 1.1-2.5.4-1 1.1-2 1.2-3.2 0-1-.9.2-1 .6-.2.6-.3 1.1-.7 1.7-.8 1.4-1.8 2.7-2.9 3.9-.3.3-1.1 1.2-1.7 2.1-1.2 1.7-.9 4-3.5 4.5-.5.1-1.7-.1-1 .7.5.5 1.8.5 2.4.3.5-.2.9-.5 1.4-.7 1.2-.4 2.4.4 3.5 1 2.1 1.1 4.7 1.3 7 .8-2-1.5-5.3-.9-6.8-2.9 1.3-.6 2.9-.4 4.3 0s2.7 1 4.2 1.2c3.2.5 6.7-1.2 9.7.1.5.2 1 .5 1.1 1 0 .7-.5 1.4-1 2zm-27-4.7c0-.1-.1-.2-.1-.2-.5-1.4-1.5-2.5-2.1-3.8-.3-.7-.3-1.6.2-2.1 1 .9 1.4 2.5 2 3.7.4.8.8 1.7.5 2.5 0 .1-.1.2-.1.2-.1.1-.3 0-.4-.1v-.2zm.8-5.8c-.3-.4-.6-.7-.9-.5-.5.4.6 2.7.8 3.2.4 1.2.6 2.5.5 3.7.3-.1.5-.3.6-.6s.1-.6.1-.9c0-1.2 0-2.5-.5-3.7 0-.2-.3-.8-.6-1.2zm2.9 0c-.1-.3-.4-.5-.7-.5-.5.6-.4 1.4-.4 2.2.1 1.3.2 2.7.2 4 .2 0 .4-.2.4-.4.1-.3.2-.7.2-1 .2-1.2.6-3.1.3-4.3zm-2.1-1.9c-.3.2-.5.7-.3 1.1.2.3.6.4.9.2.2-.2.1-1.1-.1-1.2-.2-.1-.3-.1-.5-.1zm-3.3 1.1l.1.1c.3.1.6.1.8-.1.2-.2.4-.5.2-.8-.1-.3-.5-.4-.7-.3-.1.1-.2.2-.3.4-.1.2-.2.4-.2.6 0 0 0 .1.1.1zm2-1.1c.3 0 .6-.1.7-.4v-.3c0-.3-.2-.6-.5-.7-.2 0-.4.1-.5.3-.1.2-.1.4-.1.6 0 .2.1.4.2.5h.2zm2-.7c.2 0 .4 0 .6-.1.2-.2.2-.5.2-.7 0-.1 0-.1-.1-.2l-.1-.1c-.2-.1-.5-.2-.7-.3-.1.2-.2.3-.3.5-.1.2 0 .4.1.6 0 .2.1.3.3.3zm-4-1c-.1.2-.1.4-.1.7.3.1.6.2.9.2.9-.1.7-1.5-.3-1.2-.3.1-.5.2-.5.3zm1.6-1.2c0 .1-.1.3-.1.4v.2c0 .1.1.1.2.1h.5c.1 0 .2 0 .3-.1.4-.3.4-1.2-.2-1.2-.3 0-.5.3-.7.6zm6-8.6c-.2.3-.5.5-.8.7-.3.2-.6.3-.9.5-.2.1-.5.3-.7.2-.1-1 .3-1.8.7-2.8.4-.9.7-1.8 1.1-2.7.8-1.7 1.9-3.3 3.3-4.7.6-.6 1.2-1.1 1.7-1.7 1.4-1.5 2.5-3.2 3.7-4.8.4.4.9.8 1.3 1.1 2.2 1.8 3.9 4.1 4.8 6.8 1 2.6 1.2 5.5.6 8.3-.6 0-1.2-.1-1.9-.1.9-2.4.8-5.1-.3-7.4-.4-1-1.1-1.9-1.7-2.8L67 84.8c-.7 2-2.7 3.2-4.1 4.8-.8.9-1.5 2-2.2 3-.7 1.4-1.5 2.7-1.7 4.2m5.5-1.2c1.2-1.9 2-4.1 2.3-6.3.3 1.1.5 2.3.4 3.5-.1 1-.4 1.9-.7 2.9m-32.9 1.7c-1.4-.7-3.1-.7-4.7-.4-1.6.3-3.1.9-4.7 1.2-1.1.2-2.3.3-3.5.2-2.3 0-4.5-.3-6.7-.7-.4 2.1.7 4.1 1.6 5.9.5 1 1.1 2 1.7 3 1.6 2.3 3.7 4 5.9 5.7.7.5 1.4 1 2.3 1.2s1.9-.1 2.3-.8c.1-.1.1-.2.1-.3 0-.1-.1-.2-.2-.2-2.1-1.9-4.8-3-7-4.9-2.2-1.9-3.6-4.5-4.8-7.2 2.9.9 6 .5 9 .1 3-.3 6.1-.6 8.9.5m3.5 5.4c-2.5-1.9-5.9-2.1-9.1-2.1h-3.7c4.6 1.1 9.2 2.6 13.6 4.5m-20.3 7.9c-2.3.4-4.6 1.1-6.9 1.4-3.1.4-6.2.1-9.1-.9-.4 2.3.4 4.7 1.3 6.8 1.3 2.8 2.9 5.5 5.3 7.4 1.5 1.2 3.3 2.1 5 2.9 1.9.9 3.7 1.8 5.6 2.7 2.4 1.2 4.9 2.3 7.5 2.5.4 0 .6-.6.7-1 .2-.4.3-.9.5-1.3-.1.4-4.4-.7-4.8-.9-1.8-.6-3.5-1.3-5.1-2.2-3.3-1.7-6.3-3.8-9-6.3-2.3-2.1-4-4.6-4.9-7.6 1.9.8 4.1.9 6.2.6 2.1-.3 4.1-.9 6.2-1.4 1-.2 2.1-.4 3.1-.6.7-.1 2.1 0 2.6-.4l.3-.3c.5-.6 1-1.3 1.5-1.9-2 .1-4 .1-6 .5zm4.4 8.1c-3.4-.4-6.8-.3-10.3-.2 3.1 1.6 6.7 2.4 10.2 2.3m39.7 24.2c.1.2.3.4.5.5.6.4 1.3.8 1.9 1.2 1-4.6 1.2-9.4.4-14.1H63c0 4-.1 8-1.2 11.8.1.3 0 .5 0 .6zm-7.4 6.7l1.2 1.2c.2.2.3.4.4.6.1.2.1.4.1.6.1 1.1.1 2.1.2 3.2-1.8-1.6-3.5-3.3-4.9-5.3s-2.3-4.4-2.3-6.8c1.5 2.3 3.4 4.4 5.3 6.5zm-1-8.9c-2.3-3-3.8-6.8-4.1-10.6.1.4.3.8.6 1.2.7 1.1 1.4 2.2 2.1 3.4.8 1.3 1.7 2.7 3 3.6m26-29c2.7-2.6 6-4.5 9.5-5.7.2-.1 0 2.8 0 3-.1 1.4-.1 2.7-.1 4.1 0 2.7.2 5.5.8 8.2.1.7.3 1.3.5 2 1.1 4.5 1.1 9.3.2 13.8-.5 2.2-1.9 4.3-3.7 5.6 0-.6-.6-1-.8-1.6-.4-.8.2-1.7.6-2.5 1.7-3 2.4-6.5 2.3-10-.1-2.8-.9-5.4-1.6-8-.2-.9-.5-1.9-.6-2.8-.1-1.1-.1-2.2-.2-3.3v-4.2c0 .2-1.9 1.1-2.2 1.2-1 .5-2 1.2-2.9 1.9m-12.5 27.3c.7-2.9 1.5-5.8 2.4-8.6.4-1.3.9-2.6 1.5-3.9 1.9-3.6 5.2-6 8.5-8.4-1 1-1.9 2-2.8 3-.6.7-1.2 1.5-1.7 2.3-.5.9-.8 2-1.1 3-1 3.5-1.9 7-2.9 10.4m-1.4-47.8c.7-1.4 2-2.4 3.4-3.1 1.4-.7 2.8-1.2 4.3-1.9 3.1-1.4 5.8-3.5 8.5-5.5.3 1.6.6 3.2.9 4.9.3 1.4.5 2.8.7 4.2.2 1.6.2 3.3.3 5 0 2.5 0 5.2-.9 7.5-.4 1-.9 1.9-1.4 2.9-1.4 2.5-3.1 5-5.5 6.6-.7-.6-1.5-1.1-2.3-1.5 2.9-2.6 5.4-5.8 7-9.3.7-1.6 1.2-3 1.1-4.7-.2-2.1 0-4.1-.4-6.2-.2-1.1-.4-2.3-.6-3.4-.1-.8.1-1.6 0-2.4-1.2 1.5-2.8 2.5-4.6 3.2-1.8.7-3.6 1.2-5.3 2-2 1-3.7 2.5-5 4.3m1.1 10.5c3-4.4 7-8 9.9-12.4-.3 2.6-1.4 5.1-2.8 7.4-1.4 2.2-3.3 4.2-5.2 6M85.2 82c-.4 1.8-.4 3.9-1.5 5.5-1.2 1.7-3.2 2.7-4.9 3.6-2.4 1.3-4.9 2.8-5.6 5.4-.7-1.8.6-3.8 2.1-4.9 1.6-1.1 3.5-1.8 4.7-3.2 2.4-2.6 2.1-7 4.8-9.2-1.3 0-2.6-.3-3.8-.3-.9 0-1.6.2-2.6-.2-.2-.1-.5-.2-.6-.5-.1-.2-.1-.3-.1-.5 0-1.9.8-3.3 1.7-4.9.8-1.5.7-3.1.5-4.7 0 0-3.5 1.3-3.9 1.5-1 .4-1.9.9-2.8 1.5-.7.5-1.5 1.7-2.3 1.9-.4.1-1.1-2.5-1.2-2.8-.5-1.1-1.2-2-2.1-2.7-1.1-.9-2.3-1.5-3.5-2.2-1.5-.8-2.7 1.9-3 3.1-.3 1.5-.3 3-.5 4.5-.2 1.2-1.1 1.4-2.2 1.5-1.3.2-2.7 0-4.1.2-.1 0-2.3.5-1.5 1 1.4.9 2.4 2.3 2.7 4 .5 2.1-.2 4.3.5 6.4.5 1.6 1.8 2.8 3.2 3.7.8.5 2.4 2 .8 2.7-1 .4-2.2-.8-2.9-1.4-1.2-.9-2.4-2-2.9-3.5-.8-1.9-.4-4.1-.4-6.2 0-3-2.1-4.5-3.7-6.8-.1-.1-.2-.3-.1-.4.1-.1.2-.2.4-.2 1.7-.5 3.4-.5 5.1-.8 1-.2 2.4.2 3.2-.5 1-.8.6-2.2.8-3.3.2-.8 2.4-7 2.4-7 .7.3 1.5.7 2.2 1 1.4.6 2.9 1.3 4.2 2.3 1.2.9 1.9 3.3 3.5 3.6 1.1.2 2.4-.9 3.4-1.3.4-.2 6-2.1 6.1-1.7 1 3.1.8 6.5-.4 9.5-.1.3-.2.5-.2.8.1.4.5.7.9.8 2.3.5 4.6-.3 6.9.6-1-.4-2.8 3.2-3 3.8-.2 0-.3.1-.3.3zM45.9 95.3c.1-1.3.9-2.4 1.3-3.6.5-1.6.1-3.1.2-4.7.1-1.5.1-3 .3-4.5.3-1.4.8-2.9 1.9-3.9-.3.2-2.5 0-2.9 0-1 .1-2.1.3-3.1.6-.9.2-1.7.8-2.5.4-.7-.4-1-1.3-1.1-2-.2-.9-.2-1.9-.9-2.6-.3-.3-.6-.4-.9-.7-1-.7-1.7-1.8-2-3-.1 1.4-1.3 2.4-2.3 3.3-1.1.9-2.2 2-2.1 3.4-.1-1.2-3.7-2.1-4.6-2.2-.8-.1-1.7.2-2.5 0-.9-.2-1.9-.8-2.7-1.2-.1.6.2 1.1.6 1.6 1.8 2.9 0 6.2.8 9.4-3.3.6-6.3 2.6-8.1 5.4 2.4 0 4.8.6 6.9 1.9 1.6 1 2.8 2.3 4.2 3.4 1.6 1.3 4.1 1.5 6 1.7.8.1.9-1.1 1.1-1.9-1.5-.4-3-1-4.5-1.6-1.3-.5-2.5-1.6-3.7-2.4-1.7-1-3.4-1.9-5.2-2.7-.1-.1-.3-.2-.3-.3 0-.1.1-.2.1-.2 1.1-1.2 2.6-1.7 4.1-2.1 1.5-.4 1.7-1.2 1.9-2.8.2-2-.1-4-.4-6 1.7.6 3.5 1.2 5.3 1.6.4.1.9.2 1.3 0 .4-.1.7-.5 1-.8 1-1.1 2-2.1 3.1-2.9.9 2.4 2 5 4.3 5.9 1.7.7 3.4-.2 5.1-.7-.4.1-.6 3.1-.6 3.5-.1 1.5.1 3 .2 4.4 0 .9.1 1.9-.2 2.7-.4 1-1.3 2-1.2 3.1m-8.1-1l-2.1-7.2c-.2-.9-.5-1.9-.4-2.8.9.6 1.3 1.9 1.8 2.8.7 1.2 1.4 2.3 2.2 3.4.8 1.2 1.6 2.4 2.4 3.5m27.6-8.7c1.7-2.3 2.3-5.2 2.9-8 .2 3.7.2 7.5 0 11.2M33.9 75.9c-2.8-.5-5.2-2.7-5.9-5.4-.4-1.5-.4-3.2-.6-4.7-.2-1.5-.8-2.9-1.5-4.1 3-.3 6.2.3 8.9 1.8.7-2.7 2.4-5 4.8-6.5 1.5-.9 3.3-1.5 4.6-2.8 1.2 1.6 2 3.6 2.2 5.7 1.8-2.1 4.7-3.1 7.4-2.8-1.1 3.2.1 6.8-1 10 1.4-.2 2.7-.3 4.1-.3.9 0 1.8.1 2.6.6.7.5 1.2 1.5.8 2.3-2.8-.7-5.8-.6-8.7 0l-.9-9.9c-1.9.6-3.7 1.6-5.2 3-.4-2-1.6-3.9-3.3-5.1-1.8.5-3.2 2-4.1 3.6-.8 1.7-1.2 3.6-1.5 5.4-1.8-1.6-4.2-2.7-6.6-2.9 1.1 1.9 0 4.4 1 6.4 1.1 2.1 4.3 2.7 5 5m17.4 2.1c-.7 1.2-1.4 2.5-2.6 3.2-.3.2-.7.3-1 .4-1 .4-2.1.6-3.2.8v1c2.7.7 5.8.2 8.1-1.3m-14.8-1.8c1.2-1.8 1.6-3.9 2.1-6 .6-2.6 1.1-5.2 1.7-7.9.2 4.9-.4 9.9-1.6 14.7m13.6 8.4c-.2.9-.9 1.7-1.6 2.4-1.2 1.2-2.5 2.2-3.8 3.1-.1.1-.2.1-.3.2-.2.3.1.6.4.8.2.1.4.2.6.2.1 0 .2-.1.3-.1 1.2-.6 2.4-1.2 3.4-1.9s2-1.8 2.3-3.1m21.1-40.8c1.1-.7 2.2-1.3 3.5-1.5.4-.1.8-.1 1.1-.1.7 0 1.4-.1 2.1-.1-.3 1.3-1 2.3-1.5 3.6-.4 1.2-.5 2.3-.3 3.6 0 .3.3 3.7.4 3.7 2.2-.3 4.4.2 6.3 1.3-1.6.6-2.9 1.9-3.5 3.5-.5 1.3-.5 2.1-1.6 2.9-.5.4-1.3.9-1.9 1.1-.2 0-2.2-.1-2.2-.3v2.3c2.8-.1 5.1-1 6.7-3.5.7-1.1 1.2-2.4 2-3.4 1.1-1.4 2.8-2.3 4.5-2.4-.5-1-1.6-1.6-2.6-2.1-.7 0-1.9-.8-2.5-1-.9-.3-2-.4-2.9-.8-.9-.4-.6-.6-.4-1.6.1-.9.2-1.8.3-2.8.1-1.1.3-2.2.7-3.3.4-1 1.1-1.9 1.8-2.7-.1.1-2.2-.4-2.5-.4-.9 0-1.7 0-2.5.2-.8.1-1.7.4-2.5.6-.5.2-1.8 1-2.3.9-.8-.2-1.3-1.7-2-2.3-1.4-1-3-1.8-4.6-2.4.2 1 0 2.1-.4 3-.4.7-.9 1.3-1.2 1.9-.6 1.2-.5 2.7-.2 4-.1-.5-2.6-.8-3.1-.8-1-.1-2.1.2-3.1.3-1.8.1-3.4.6-4.5 2.1 1.2.8 2.6 1.3 3.2 2.7.4 1 .4 2.1.3 3.2 0 1.6.1 3.2.9 4.5.7 1.4 2.1 2.5 3.6 2.6-1.2-1-1.6-2.8-1.7-4.4-.1-1.6.1-3.2-.3-4.8-.4-1.6-1.4-3.1-3-3.4 3-.7 6.2-.7 9.1.1 0-2.6.9-5.3 2.7-7.2 1.7.8 3.1 1.8 4.1 3.2zm-7 19.9c-.6-2.4.8-4.7 2-6.8 1.6-2.6 3.1-5.3 4.5-8.1-.1 5.1-4 9.7-3.4 14.7M64.1 46.7c-.1.2.2.5.5.4.3-.1.4-.3.5-.6.3-.5.5-1 .8-1.5.3.5.6.9 1.1 1.2 1.5-2.9.3-5.5-1.1-8.2 0-.1-.1-.2-.2-.2-.2 0-.3.2-.3.3-.6 1.9-.8 3.9-1.6 5.8-.3.7-2.8 5.5-3.4 5.5H60c-.9-2.1-1.3-4.7-2.5-6.7-.2-.4-.4-.7-.8-.9-.4-.2-.9-.2-1.4-.1-.9.1-1.9.3-2.8.4-.6.1-1.2.2-1.6.7-.4.5-.4 1.2-.3 1.9.1.9.1 4.2-.6 4.8-1.1.9-2.6-.9-3.2-1.6-1.3-1.5-1.5-3.6-2.8-5.2-.6-.8-1.5-1.3-2.4-1.8 0 1.5.3 3 .7 4.4.4 1.6.5 2.8 2.1 3.6.1-.3.3-.6.5-.6s.3.2.4.4c.4.6.9 1.3 1.7 1.3h.4c.1 0 .2.1.3.2.5.3.9.7 1.1 1.2s.2 1.1-.1 1.6c-.3.4-.9.7-.8 1.3.1.7 2.4 1.3 2.9 1.5 1.5.5 3.1.9 4.6 1.2.7.1 1.4.2 2.1.1l1.2-.3c1.1-.4 2.1-.9 3.1-1.5.4-.2.8-.5 1.2-.3 1.1.4.3 1.4-.3 1.8-2.5 1.9-5.7 2.7-8.7 2.4-1.5-.1-3.2-.6-4.5-1.4-.5-.3-.8-.8-1.2-1.2-.6-.6-1.4-1-2.1-1.4-.6-.4-1.3-.9-1.8-1.4-1.4-1.4-2.2-3.3-3.2-4.9-.9-1.6-1.3-3.5-1.6-5.3-.1-.7-1-6.9-2.1-6.7 3.7-.6 7.6 1.6 9 5.1.8 2 .9 4.4 2.4 6-.2-1.6-.4-3.2-.6-4.7-.1-.5-.1-1 .1-1.4.4-1 1.7-1.3 2.8-1.3 1.6-.1 3.2-.2 4.7-.4.8-.1 1.7-.1 2.2.5.5.6.4 1.4.5 2.2 0 .8.4 1.7 1.2 1.7 1.4-1.8 2-4.1 2.7-6.2.4-1.3 1-2.5 1.6-3.7.3-.6.4-1.2.9-1.8.1-.2 1.3-1.1 1.3-1.2 0 1.8.2 3.6.8 5.4.4 1.2 1.1 2 1.7 3.2 1.4 2.7 1.6 6 .6 8.9-.3.9-.7 1.7-1.4 2.4-.9.9-2.7 1.4-4 1-.1-.7 1-.6.9-1.2 0-.2-.7-.4-.9-.5-.6-.4-1-.8-.9-1.5 0-1.1.5-2 1-2.7zm-21.8-9.6c.2-2.7 1.5-6 1.8-7.3 1.5.7 3 1.3 4.3 2.2 1.1.7 2.5 1.5 3.4 2.5.1.1.2.3.4.3.2.1.5-.1.6-.2l.3-.6c0-.2.1-.3.1-.5.4-1.4.9-2.8 1.4-4.2.4-1.3 1.1-2.6 2.3-3.3.7 1.6 1.5 3.3 2.8 4.5.7.6 1.6 1 2.4 1.6 2.1 1.7 2.7 4.9 1.3 7.2.2-2-.8-4-2.2-5.5-.9-.9-1.9-1.7-3-2.4s-1.5-1.1-1.9.3c-.4 1.3-1.3 2.6-2 3.9-.2.4-.5.8-.9.9-.2.1-.5.1-.7 0-2.4-.3-4.3-2.2-6.3-3.5-.2-.1-.3-.2-.5-.2-.1 0-.2 0-.3.1-1.1.5-1.1 1.6-1.2 2.7-.2 1.7.3 3.5.6 5.2-2.4.2-2.9-1.5-2.7-3.7zM44.2 51c-.1-.1-.2-.1-.3-.2-.4-.3-.9-.3-1.4-.3-2.5-.2-4.4-.2-6.7.9-.3.2-5.8 3.1-5.8 2.3.1 1.4 1.1 2.6 2.3 3.4 1.3.9 2.7 1.6 4.2 2 .4.1.8.2 1.2.1s.7-.4.7-.8c-2.3-.6-4.4-1.7-6.2-3.3 2.1.2 4.3-1.1 6.1-2 2.1-1 4.5-.9 6.9-.6 0-.5-.4-.9-.7-1.2l-.3-.3zm19.2 8.1c-1.9-.8-4.1-1.2-6.2-1.1 0 .3-.3.6-.5.8-1.8 1.4-2.4 3.7-2.6 5.9-.1.8-.1 1.6.3 2.3.4.7 1.4 1.1 2 .6.2-.8-.2-1.6-.3-2.4-.3-1.7.9-3.3 2.1-4.5.3-.3.7-.7 1.1-.9 1.2-.6 2.7-.2 4.1-.3v-.4zm-8.6-18.7c-.1-.8 0-1.6.1-2.3.1-.5.3-1.2.8-1.4 0 .4.1.7.1 1.1.1 1 .2 1.9.4 2.9m.8 0c-.2-.6-.2-1.4-.2-1.8 0-.5 0-1.2.4-1.5.5-.5.4 1.1.4 1.3.1.8.4 1.7.4 2.6-.5.1-.8-.2-1-.6zm-7.8-1.1c.5.5.8 1.2.9 2-.3 0-.6-.3-.8-.5-.6-.7-1.5-1.3-2.4-1.6-.2.2-.2.6 0 .9.2.3.5.4.8.6.6.4 1.2.9 1.7 1.5.4.1.7-.1 1-.3 1.2-.6 2.4-1 3.6-1.2.1-.9 0-1.9-.3-2.8-.1-.2-.1-.4-.3-.6-.2-.2-.4-.3-.6-.1-.3 1.1.6 2.2.4 3.3-.3.1-.7.2-1 .2-.2-.9-.3-1.8-.5-2.8-.1-.3-.1-.7-.3-.9-.2-.3-.6-.4-.9-.2-.3.4 0 .9.2 1.3.5.8.8 1.8.9 2.7-.3.2-.7.2-1.1.1-.1-.7-.4-1.4-.7-2-.3-.5-.7-1-1.2-1.1-.2.2-.2.6 0 .8.1.3.3.5.6.7zm36.5-11.3c-.3 0-.6.1-.9 0-.5-.2-.7-.8-.5-1.3.1-.5.5-.9.8-1.3 0 .4.1.8.3 1.1.7-.7 1.4-1.5 2-2.2.1.4.2.8.3 1.3.7-.5 1.9-1.5 2.8-1.5 1.3-.1 2.1-.8 2.5-2 .3-1 .4-3 1.4-3.5l.6-.3c.2-.1.3-.4.1-.6-.1-.1-.2-.1-.3-.2-2.6-1-4.8 0-6.7 1.8-.6.5-1.3.9-1.8 1.5l-1.8 2.4c-.6-.8-.9-1.8-1.1-2.8-.4-1.3-.8-2.5-1.3-3.8-.5-1.3-1.2-2.7-2.5-3.2-.1-.1-.3-.1-.5-.1-.1 0-.2.1-.3.2-.5.5-.7 1.2-.8 1.8-.3 1-.4 2.1-.6 3.1-.2.7-.4 2.2-1.1 2.6-.4.2-.9 0-1.2-.3s-.5-.8-.7-1.2c-.6-1.3-2.1-2.6-3.6-2.8-.1 1 .5 2.4.6 3.5v.3c0 .1-.1.1-.2.1-.2.1-.5 0-.6-.2-.2-.2-.2-.4-.3-.6v-.7c0-1.3-.9-1.9-1.2-2.9-.1-.3 0-.7.3-1 .2-.2.6-.2.8-.2 2.5.2 4.9 2 5.7 4.4.5-.8.6-1.9.6-2.8.1-1.2.3-2.5.9-3.5.3-.6.9-1.5 1.6-1.8 1.6-.5 2.9 1.5 3.8 2.4.3.4.6.7.9 1.1.3.6.4 1.2.5 1.9.2 1.5.5 3 .7 4.4 1.3-2.6 3.6-4.6 6.4-5.3 1.9-.5 3.4-.1 5.1.8.3.2.7.5.7.9 0 .6-.8.9-1.2 1.3-.7.6-.6 1.7-.7 2.7-.2 1.8-1.4 3.2-2.6 4.4-.6.5-1.2.9-1.6 1.6-.5.8-.9 1.8-1.5 2.6-.7.9-1.5 1.4-2.5 2-1-.9-2.2-1.4-3.6-1.6 0 0-.1 1.7-.2 1.8-.2.5-.7.5-1.2.6-1.4.4-2.8.6-4.2.5-1.5-.1-3-.7-4-1.8s-.9-2.9-.9-4.3c0 .3.9 1.5 1.1 1.7.5.6 1.2.9 1.9 1.2 1 .5 3.4 1.4 4.4.3.7-.8.2-2.6 1.9-1.8 1.5.6 4.5 3.5 5.4.6.4-1.4-.8-1.3-1.9-1.3zm-8.2-1.7c-.3.2-1.7-4 .1-3.9 0-.5-.1-.9-.1-1.4 0-.3.1-.6.3-.7.2-.1.5 0 .7 0 0 0 1.3-1.5 1.3-1.1l.3 2.1c.5.3 1.1-.6 1.6-.3.3.2.2.6.2.9 0 .6.3 1.3.9 1.4h.4c1.2.4-.3 3-.8 3.5-.1.1-.1.2-.2.2h-.3c-.5-.1-1-.4-1.5-.7-.4-.3-1-.7-1.4-.4-.3.3-1.1.1-1.5.4zm7-7.2c.2-1.2.7-2.4 1.4-3.4.1-.1.2-.3.4-.3.2.6 0 1.3-.2 1.9-.4 1.3-1 2.6-1 4m1.3-1.8c.2-1 .5-2 .9-2.9.1-.2.3-.5.5-.4.1.9 0 1.7-.2 2.6m-11.3-1.5c.2 1 .4 2 .2 3-.3-.4-.8-.6-.9-1-.2-.5 0-1.2 0-1.8 0-.7-.2-1.4-.2-2.1v-.2c.1-.1.2 0 .3 0 .6.5.5 1.4.6 2.1zm6.1-3.5c.4.2.9-.2 1.2-.6.5-.6 1.2-1 1.8-1.3 1.1-.6 2.3-1.3 3.6-1.2 0 1.1.2 2.3.7 3.3.3.6.7 1.2.8 1.9.1.7-.5 1.5-1.1 1.4 0-1.8-1.4-3.3-1.5-5.1-2 .4-3.8 1.8-4.7 3.7"/><path fill="#CCC25A" d="M73 16c-.2-1.6-.4-3.2.2-4.7.1-.2.2-.5.4-.6.2-.1.4-.1.5-.1.7.1 1.3.5 1.8 1 .4.3.7.6 1.1.9.2.2.5.4.6.7s.1.6-.1.8c-.6-.1-1-.6-1.4-.9-.4-.3-.9-.4-1.3-.5h-.2c-.1 0-.1.1-.1.2-.5 1.5 0 3.2.1 4.9-.6.1-1.6-1.3-1.6-1.7z"/><path fill="#F26C6E" d="M58.1 52c-.4 2.4-4.9 3.1-6.1 1-.6-1.1-.8-2.4-.6-3.6 0-.1 0-.2.1-.2h.2c.4.2.8.3 1.2.5.1-.6.2-1.2.2-1.8 0-.1 0-.2.1-.3.1-.2.4-.2.6-.1.2.1.3.3.5.5.1.2.3.5.5.7.2.2.5.3.8.1.3-.1.4-.5.5-.8.1-.3.3-.7.6-.7s.5.4.5.7c0 .3 0 .7.2 1 .2.4.8.5.9.9.1.3 0 .6-.1.9 0 .4 0 .8-.1 1.2z"/><path fill="#CCC25A" d="M84.9 46.3c-.2.1-.4.3-.6.4-.1.1-.2.2-.4.2s-.4 0-.6-.1c-1.4-.7-2.8-1.5-4.2-2.4-1-.7-1.6-1.3-2.2-2.4-.3-.5-.7-.9-1.1-1.4-.2-.2-.7-1.4-.9-1.5.9.3 1.9-.2 2.7-.8.8-.6 1.5-1.3 2.4-1.7.9-.4 1.9-.3 2.9-.3-.7-2.4-1-5-.7-7.5 1.2.6 2.3 1.1 3.5 1.7 1.4.7 2.8 1.4 3.7 2.6 1.9-2.5 4.7-4.3 7.8-4.9.2 0 .9 2.4 1 2.7.2 1 .4 2.1.3 3.1 0 .5-.1 1-.1 1.6-.1.4-.4.9-.4 1.2 0 .9 1.3.5 2.1.5 1.8 0 3.7-.1 5.3-.9.1.9.1 1.8.1 2.7 0 1 0 2-.4 2.9-.3.7-.7 1.2-1.2 1.8l-2.4 3c-.4.5-.8 1.4-1.4 1.8-.8.5-2.3.6-3.2.8-.5.1-3.1.7-3.4.4-.2-.2-.2-.5 0-.7s.4-.3.6-.4c1.5-.7 3.1-1.1 4.5-1.8 3.4-1.8 4.9-5.1 5.6-8.7-2.3 1.6-5.5.3-8.1 1.3.9-2.7.8-5.7-.3-8.4-2.7.1-5.4 1.6-6.8 4-1.1-1.8-2.9-3.3-4.9-4.1-.3 2.4-.2 4.8.2 7.2-.8.1-1.7-.3-2.5-.2-.7.1-1.3.4-1.8.7-.9.5-1.8 1-2.7 1.4 0 1.4 2 2.9 3 3.5.7.5 1.5 1 2.3 1.5.2.3 2 1.4 2.3 1.2zm5.2-.5c.5-2.9.3-5.9-.7-8.6.3.9 1.1 1.6 1.5 2.5.4.8.7 1.7.9 2.6.3 1.5.6 3.2-.2 4.5-.4-.5-.9-.8-1.5-1zM73.8 25.9c-.1-1.7-.3-3.4-1.3-4.9-.5-.8-1.3-1.5-1.6-2.4-.4.9-1.3 1.5-2.3 1.8-1 .3-2.1.2-3.1.5-.9.3-1.8 1.2-2.4 1.9-.3-3-2-5.6-3.7-8-.4 1.4-1.3 2.5-2 3.7-.8 1.2-1.5 2.6-1.2 4-3.6-2-8.2-1.8-11.6.4 1.7 1.3 3.3 2.9 4.5 4.7-.2-.3-3 1.5-3.3 1.7-.4.3-.6.7-.9 1-1.1 1-2.8 1.8-4.1 2.3 0 .1.1.2.2.2 1 .5 2.1.5 3.1.9.1-.3.2-.5.4-.8.9-1.2 1.4-2.3 2.6-3.1.8-.5 1.6-1 2.5-1.3.9-.2 1.9-.1 2.6.5-1-2.2-2.7-4.1-4.7-5.4 3.3-.6 6.8-.3 10 .9.4-2.2 1-4.5 2.7-5.9 1.3 1.9 2.4 3.9 3.3 6.1-.4-1 5.4-2.8 6.1-2.9.3 0 .7 0 1-.1.3-.1.6-.3.8-.5 1 2.5.6 5.5.6 8.2 0 1.4.2 2.9-.2 4.2-.4 1.5-1.2 2.8-2.1 4-.5.6-.9 1.3-1.2 2-.2.7-.2 1.6.4 2.2.7-.8 1.3-1.7 1.8-2.6.5-.8.8-1.9 1.4-2.6 1.1-1.4 1.7-3.2 1.6-5 .3-1.8.3-3.8.1-5.7zm-10.6 7.5c-.1-.8-.2-1.6-.5-2.3-.2-.6-.4-1.1-.7-1.7-.7-1.1-1.7-2-2.8-2.8.4 1 .8 2 1.1 3.1.3.9.7 1.8.8 2.7h.2M103.2 6c-.4-.2-1.3 3-1.4 3.3-.4 1.3-.8 2.7-.7 4.1 0 .1 0 .2.1.3.1.1.2.1.2.2.9.5 1.7.9 2.5 1.5.9.8 1.8 1.5 2.6 2.3.7.7 1.4 1.3 2.2 1.8.5.3 1.1.5 1.1 1.2 0 .9-1.5 1.6-2.1 2-1.4.9-2.7 1.8-4.2 2.5-1.7.8-3.6 1.3-5.5 1.2-1.9-.1-3.8-.8-5.7-.5-.2-.5.3-1 .8-1.1.5-.1 1 0 1.5.1 1.8.4 3.7.2 5.4-.5 1.7-.7 2.9-2.1 4.6-2.6 1-.3 2-.6 3-1-.1 0-1.6-1.4-1.8-1.6-.6-.4-1.2-.8-1.8-1.3-1.3-1-2.5-2.2-4-2.9-.4-.2-.8-.4-.9-.8-.1-.2 0-.4 0-.7.4-2.2.8-4.4 1.2-6.5-2.4-.2-4.8.3-7 1.4-.8-2.4-2.5-4.5-4.6-5.8-.2 2.2-.9 4.3-1.9 6.2-1.4-.8-3.1-.1-4.6.3-1.5.3-3 .3-4.5-.1.2 1.4.8 2.7 1.7 3.8-.5.1-1 .3-1.5.4-1.6-1.6-2.5-3.8-2.7-6.1 1.4.2 2.8.2 4.2 0 2.1-.3 4.4-1.1 6.2-.1.4-2.4.8-4.7 1.3-7 3.2.7 6.1 3 7.6 6 2.9-.7 6-1.2 8.7 0zm-10 4.4c0 1.9-.3 4.5-1.6 6-.3.4-1.7 1.3-2.2.8-.4-.4.3-1.1.6-1.4 1.3-1.7 2.5-3.4 3.2-5.4zm8.7 15.2c1.3.2 2.6.7 3.6 1.6 1 .8 1.8 1.8 2.6 2.8.9.9 2 1.7 3.2 1.9-3.2.8-6 2.6-9.3 3.1-1.5.2-2.9.2-4.4.2 0-.4 0-.8.1-1.3 3.5-.4 7-1.1 10.4-2.2-1.2-.4-1.8-1.6-2.7-2.5-1.9-1.8-5-1.9-6.9-3.7M83.7 77.8c-.9.2-1.9.1-2.8-.3.5-1.2 2.5-1.8 3.6-2.3 1.9-.9 3.6-2.2 5-3.7 0 .5 0 1 .1 1.5v.5c-.1.2-.3.4-.4.5-.9.6-1.8 1.1-2.7 1.7-.9.6-1.7 1.4-2.1 2.4m67.7 130.3c0-3.1 1.4-6 3.2-8.5s4.1-4.6 6.2-6.8c2.9-2.9 5.6-6 8.3-9.1 1.5-1.8 3.1-3.6 3.9-5.8 5.3 8 7.6 17.9 6.3 27.3 0 .2 0 .3-.2.4-.1.1-.3.2-.5.2-.7.1-1.3.1-2 .1.4-1.9.7-3.8.8-5.7.4-6.2-1.8-12.2-4-18.1-.6 1.2-1.3 2.3-2 3.4-2.6 3.9-6.1 7-9.3 10.5-3.2 3.4-6.1 7.3-7.1 11.9m9.3-1c.4-.8 1.1-1.4 1.7-2 1.7-1.8 3.3-4.6 4-6.9.2-.7.2-1.5.6-2.1.1 4-.7 8.1-2.2 11.8m8.2-20.5c.8-1.4 2-2.6 3.3-3.7 4.1-3.8 8.6-7.5 11.4-12.4 2.9 5.1 5.6 10.5 6.6 16.3.2 1.1.2 2.3-.6 3.1-.6.5-1.4.6-1.7 1.3-.4-5.6-1.9-11.1-4.2-16.2-.9 2.5-2.4 4.7-4.3 6.7-1.8 2-3.8 3.7-5.8 5.5-1.4 1.3-2.8 2.8-3.3 4.6m3.1 12.2c.2-2.5 1.5-4.8 2.7-7.1 1.8-3.4 3.5-6.9 5-10.5-.6 5.1-2.5 9.9-4.6 14.5-.4 1-.9 2-1 3.1m1 30.4c2.3 4.6 7.3 7.1 12.1 8.9 11.6 4.4 24 6.5 36.3 6.4-4.8-2.6-9.1-6.3-12.3-10.7-1.5-2.1-2.8-4.4-4.5-6.3-2.3-2.7-5.2-4.7-8.1-6.7l-2.1 1.8c3.1 1.7 6.2 3.5 8.6 6.1 2 2.1 3.4 4.8 5 7.2 1.6 2.5 3.4 4.9 6 6.3-4.9-.6-9.8-1.5-14.6-2.6-4.8-1.1-9.6-2.6-14.2-4.6-1.5-.7-3.1-1.4-4.5-2.2-2.3-1.2-4.6-2.7-5.8-5m9.1-1.5c5.3 3.8 11.1 6.8 17.4 8.7-3.9-2.7-7.7-5.4-11.6-8.1-.5-.4-1.1-.8-1.5-1.3M173 247.4c-1.2-.8-2.2-1.6-3.2-2.6-1.2-1.2-2.1-2.9-2.9-4.3-.2-.3-1.3-3-1.6-3-1-.1-2-.1-3-.2 0 0 .9 2.2 1.1 2.4.4.6.6 1.2.9 1.9.6 1.5 2 2.9 3.1 4.1 2.4 2.6 5.4 4.8 8.5 6.6 5.8 3.2 12.3 5 18.7 6.8-2.3-1.5-4-3.9-5.2-6.3s-2.2-5.1-3.3-7.6c-1.2-2.8-2.6-5.5-4.3-8.1-.2-.3-.4-.7-.8-.9-.6-.5-1.5-.5-2.1 0-.1.3.1.6.4.9 2.4 2.4 4 5.5 5.4 8.7.7 1.7 1.4 3.5 2.1 5.2.7 1.7 1.7 3.2 2.7 4.8l-2.7-.9c-3.1-1.2-6-2.8-8.9-4.4-1.7-1.2-3.4-2.1-4.9-3.1zm-2.5-10.3c2.7 3.9 6.3 7.2 10.5 9.4-3-2.2-4.9-5.8-6.3-9.3m57.4-29.5c2.1-.4 4-1.5 5.9-2.5.9-.5 1.7-1 2.6-1.4 3.3-1.8 6.7-3.7 9.4-6.3-.6.9-1.3 1.8-2.1 2.5-5.4 5.6-12.2 9.8-19.6 12m4.5 3c-2.6-.7-5.2-1-7.8-.6l2.1-2.7c.1-.1.1-.2.2-.2.4-.2 2.1.4 2.5.5 1 .2 2 .5 3 .7 1.9.5 3.8 1.2 5.6 1.9 3.7 1.4 7.3 3.2 10.9 4.9 4 2 8 4.1 12 6.2-4.3.8-8.3 2.9-12.4 4.3-9.3 3.1-19.8 2.5-28.8-1.6-2.4-1.1-4.7-2.5-6.9-4 1.5-.5 3 0 4.5.4 4.1 1.3 8.2 2.8 12.5 3.6 4.3.8 8.8 1 13.2.4 2.1-.3 4.3-.7 6.3-1.5 1.9-.7 3.6-2 5.6-2.4-2.4-.8-4.8-1.5-7.1-2.7-2.4-1.3-4.7-2.7-7.1-4-2.6-1.2-5.4-2.4-8.3-3.2zm-11.5 3.7c7.3 2.3 15 3.3 22.6 4.4-4.8.5-9.7.5-14.4 0-1.6-.2-3.3-.4-4.9-.7-2.3-.3-4.6-.7-6.9-1m2.3 18.1c7.5 1.5 15.2.2 22.7-1-1-1-2-2.1-3-3.1-.8-.8-1.5-1.6-2.4-2.3-2.8-2.3-6.4-3.8-10-3.8 4.1 1.9 7.5 5 10.8 8.1-1.3.5-2.8.6-4.2.6-5.6.2-11.3-.6-16.7-2.3.5 1 .9 2 1.4 3 .3.7.8 1.4 1.5 1.4m-10.7-12.6c6.1 3.1 12.3 6.2 19 8-5.6-2.8-11.3-5.6-16.1-9.6m-4.8-33.5c-.3-5.4-.5-11 .9-16.2 1.6-5.7 5.2-10.8 6.2-16.6.5 2 2 3.6 3.2 5.2 5.1 6.4 7.1 14.9 7 23.1 0 1.8-.2 3.7-1.1 5.3-.5-6.2-.6-12.5-3.1-18.2-.5-1.3-1.2-2.5-1.8-3.7-1-1.8-1.9-3.7-2.9-5.5-2.9 6-5.9 12.1-6.4 18.7-.2 2.5 0 5 .1 7.5m5.3-2.4c.5-4.9.7-9.7.6-14.6.7 5 1.3 10 1.6 15m6.9-3.7c2.1-3.5 4.8-6.5 7.3-9.7s4.8-6.7 5.6-10.7c3.3 6.7 5.8 14 5.9 21.4 0 1.4-.1 2.8-.4 4.1-.4 1.5-1 2.9-1.6 4.2-.8 1.6-1.5 3.2-2.4 4.8-2.8 4.6-7 8.2-10.5 12.4 0-1.4.3-2.8.7-4.2.2-.6.4-1.2.7-1.8.4-.8 1-1.5 1.6-2.2 4.9-6.2 8.4-13.8 8.3-21.7-.1-3.6-.9-7.1-1.6-10.6-3.5 7.6-10.8 13-13.8 20.8m1.9 4.9c.7-.6 1.2-1.5 1.9-2.1.8-.7 1.6-1.4 2.3-2.2 1.4-1.6 2.5-3.5 3.2-5.5-.8 2.2-.9 4.6-2.3 6.6-1.4 1.9-2.7 4-4.3 5.9m11.4-3.3c2.6-3.6 6.6-6.2 10.9-7.3 1.5-.4 3-.6 4.5-1 1.5-.5 3-1.2 4.4-1.9 1.5-.8 3-1.5 4.2-2.7.2 2.6.3 5.2.3 7.8 0 1.9-.1 3.9-.4 5.8-.9 4.8-3.8 9.2-7.7 12.2s-8.6 4.9-13.5 5.6c-.6.1-1.2.2-1.8 0-.6-.2-1.1-.8-1.7-1 4.4-1.8 8.8-3.6 12.7-6.2 3.9-2.7 7.3-6.3 8.8-10.8 1-3.2 1.1-6.6 1.1-9.9-.6 1.1-1.7 1.8-2.8 2.4-2.9 1.5-6.2 2-9.3 3-3.9 1.3-7.5 3.4-10.6 6.1m17.4-27.6c1.9-1.6 4.4-2.1 6.8-2.7 2.8-.7 5.6-1.6 8.4-2.7 3.2-1.2 6.4-2.9 8.1-5.8 0 4.3-1.1 8.5-2.2 12.6-.4 1.6-.9 3.2-1.6 4.8-.6 1.2-1.3 2.3-2.1 3.4-.8 1.2-1.6 2.4-2.4 3.7-.8 1.2-1.6 2.4-2.7 3.3-.8.7-1.7 1.1-2.7 1.6-.9.4-1.8.9-2.7 1.3-.1-.6-.1-1.1-.2-1.7v-.6c.1-.3.4-.4.7-.5 3.4-1.5 5.5-4.9 7.3-8.1.8-1.5 1.6-3 2.2-4.6.4-1.2.7-2.4 1.1-3.6.5-2.1 1.1-4.1 1.6-6.2-.2 1.1-1.2 1.8-2.2 2.3-3.3 1.7-7.1 2.4-10.7 3.2-3.6.8-7.4 1.8-10.3 4.1m10.3 3.4c1.4-.7 2.7-1.7 3.7-2.8-1.1 1.6-2.5 3-4 4.3-6 4.8-14.2 6-20.1 10.9 1.4-1.6 3.2-2.9 5-4.1 3.7-2.5 7.5-5.1 11.7-6.8 1.3-.5 2.5-.9 3.7-1.5zm-15.5-35c-.2.4-.5.9-.7 1.3-.3.7-.6 1.5-.9 2.3-1.4 3.8-2.9 7.8-5.9 10.5.9-2.1 1.5-4.3 2.2-6.5.7-2.4 1.5-4.8 2.6-7 1.5-3.1 3.7-6.1 6.6-8 5.4-3.6 12.7-3.4 17.8-7.3.1 2.6.2 5.1-.1 7.7-.7 5.9-3.5 11.3-6.3 16.6-2.2 4.2-4.5 8.6-8.5 11.2l6-10.8c.8-1.5 1.6-2.9 2.4-4.4 2.5-5.2 3.9-10.9 4.2-16.6-1.8 1.5-4.1 2-6.3 2.7-2.1.7-4.1 1.5-6 2.4-1.6.7-3.8 1.6-4.9 3-.8.7-1.5 1.8-2.2 2.9zm3.3 15c.4-2.1 1.5-3.9 2.8-5.6 1.3-1.7 2.7-3.2 4-4.9 1.5-1.9 2.8-4 3.9-6.3-3.3 3.7-6.7 7.3-10.1 10.8m-64.4 29.8c-1.4-2.8-1.8-6-1.5-9.1.2-3.1 1-6.2 1.6-9.2 1.2-6.4 1.7-13 1.5-19.5.9.9 2.1 1.5 3.2 2.1 3.5 2 7 4.2 9.6 7.3 3.8 4.4 5.6 10.2 6 15.9.4 5.8-.7 11.5-2.1 17.1h-1.2c1.6-6.6 1.5-13.6.6-20.3-.2-1.6-.4-3.3-1-4.8-.4-1.2-1-2.3-1.6-3.4-.9-1.6-2-3.2-3.4-4.4-1.1-1-2.4-1.7-3.7-2.4-1.4-.8-2.9-1.6-4.3-2.4 1 3.8-.1 7.8-.8 11.7-.9 4.8-1.2 9.6-1.3 14.4 0 1.2-.1 2.5.3 3.6m10.6 5.3c.2-4.4-.1-8.8-.7-13.1-.7-5.1-2-10.2-5.1-14.2.4 1.1.7 2.3 1.1 3.4.2.8.5 1.6.7 2.4 1.1 4.4 1 9.1.5 13.6m8.4-12.3c-.4-4.4 1.8-8.7 4.2-12.4 1.4-2.2 3-4.3 4.1-6.7 1-2.2 1.6-4.6 2.2-6.9 2.6 4.4 5.7 8.6 7.7 13.4 2.7 6.5 3.2 13.9 1.2 20.6-.7-.5-1.1-1.3-1.2-2.2s0-1.7.1-2.6c.4-4.1-.3-8.3-1.7-12.3-1.4-3.9-3.6-7.5-6.1-10.8-.6 3.6-3.1 6.5-5.1 9.5-1.5 2.4-2.7 5-3.4 7.7-.5 1.8-.8 3.8-.1 5.6m5.2-1c.2-1.2.2-2.3.5-3.4.3-1.3.7-2.6 1-3.9 0 2.3.1 4.6 0 6.9-.2 5.2-1.1 10.4-2.6 15.4-.6 1.9-1.3 3.8-2.9 4.9.6-4.8 1-9.5 2.4-14.1.6-2 1.3-3.9 1.6-5.8zm52.7-40.5c-.4-.5-1-.8-1.2-1.4-.1-.3 0-.6.1-1 .1-.8-.4-1.6-.9-2.3-3-3.9-8.6-5.1-13.3-4l-1.2.3c.3-.5.5-1.1.7-1.6.2-1 .1-2 0-3s-.3-2-.4-3c-.1-.8-.2-1.6-.5-2.4-.8-2.7-3.1-4.7-5.4-6.4-.2-.2-.5-.4-.8-.4-.2 0-.4.1-.6.2-1.6 1-2.8 2.5-4.4 3.6-1.5 1-3.2 1.5-4.8 2.3-2.9 1.5-5.3 4-7.5 6.4-.3.3-.5.6-.8.9.1-1.5.1-3.1-.3-4.5-.2-.7-.5-1.5-.8-2.2-.5-1.2-1.1-2.4-2-3.4-1.7-1.9-4.5-2.7-7.1-2.4-2.6.3-5 1.5-7.1 2.9-.9.6-1.8 1.3-2.6 2.2-2.2 2.6-2.8 6.2-2.6 9.6.1 1.2.3 2.4.8 3.5 1.2 2.6 3.9 4 6.4 5.2.2.1.5.2.7.2 0 .1 0 .1.1.2-.7.2-1.5.1-2.3.2-.8.1-1.6.5-1.7 1.3-.1.8.7 1.4 1 2.2.2.4.2.8.2 1.3.1 2.2-.2 4.6.5 6.7.7 2.1 2.3 3.7 3.9 5.2.8.7 1.7 1.5 2.4 2.2.7.7.9.5 1.6-.3.3-.4.7-.6 1.1-.8 1.4 3.3 3.5 4.9 7.2 5.1.1 0 .3 0 .4-.1.1-.1.1-.3 0-.5-.5-1.6-.8-3.2-1-4.8 0-.2 0-.5.1-.7s.4-.4.6-.2c.7 1.1.6 2.5.7 3.8.1.9.3 1.9.6 2.8.1.6.3 1.1.6 1.6 1 1.6 3.1 1.7 4.4 2.8 1.4 1.1 2 3.1 4.2 3.2.6 0 1.2-.2 1.8-.4l1.5-.6c1.2-.7 2.2-1.8 2.7-3.1.2-.6.4-1.3.7-1.9.2-.5.6-1 .9-1.5.8-1.1 1.5-2.2 2.3-3.4.2-.4.5-.7.6-1.1.1-.4.2-.9.2-1.4v-2.2c.4 0 .7-.1 1.1-.1 1.6-.4 3.1-1.2 3.9-2.6.4-.6.7-1.4 1.3-1.6.3-.1.6-.1.9-.1 2.5-.1 5.1-.4 7.4-1.4s4.4-2.6 5.7-4.8c.6-1.7.9-3.3 0-4.3zm-54.7 11.2c-.4-.9-.8-2-.3-2.8 1.3 2 3.2 3.6 5.5 4.4.7.2 1.4.4 2.1.5.5.1 1.4-.1 1.8.1.9.3.7 1.8.9 2.6.2.8.4 1.5.6 2.3.1.3.4 1.2.2 1.5-.6 1.1-2.1-.3-2.5-.8-.3-.4-.7-.8-.9-1.2-.5-.7-.8-1.6-1.6-2.1-.2.2-.4.5-.5.8-.3.8-.4 1-1.1.5-.6-.5-1.2-1.1-1.7-1.8-1-1.3-1.8-2.6-2.5-4zm51.1-7.8c-.1 0-.2.1-.3.1-4 1.3-5.9-1.8-8.9-3.5-1-.6-2.2-1.1-3.4-1.1-1.2-.1-2.5.3-3.3 1.1-.7.7-1 1.7-1.4 2.6-.5 1-1.3 1.8-2.2 2.5.8.3 1.7.1 2.5-.2 2.3-.6 4.7-1 7-.9 1.9.1 4.2.4 5.3 2.1.1.2.2.4.2.6-.1.3-.3.4-.6.5-.8.2-1.8 0-2.7.1-.9.1-1.8.4-2.7.8-1.8.9-3.1 2.8-4.8 3.9-1.5 1-3.3 1.4-5.1 1.5-1.4.1-2.8 0-3.9-.8-.2-.1-.3-.2-.4-.4-.1-.2-.1-.4-.1-.6.2-1.5 1.5-2.9 1.4-4.4-1.6-.2-3 .8-4.4 1.6-.9.6-1.9 1.1-3 1.3-.6.1-1.8-.6-2.2 0-.3.5 1.3 3.2 1.5 4 .1.6.1 1.2.3 1.7.2.5.5.9.8 1.3 1.2 1.5 3.2 2.3 5.1 2.2 1.9-.1 3.8-1.1 4.8-2.7.5.7.1 1.7-.4 2.4s-1.1 1.4-1.2 2.3c0 .4.1.8.1 1.2 0 1.5-1.3 2.3-2.1 3.4-.7.9-1.3 2.9-2.8 2.6-.3-.1-.6-.3-.9-.5-1.1-.9-1.9-2-2.7-3.1-1.2-1.8-2.2-3.8-3.2-5.7l-1.5-3c-.8-1.5-1.5-2.9-2.6-4.1.1-.1.2-.2.2-.4.1-.2.1-.5 0-.8-.4-3.3-2.4-6.4-5.3-8.1-1.4-.8-3-1.3-4.5-1.8-1.1-.3-1.6-.6-2.3-1.5-.1-.1-1.4-2.1-.7-2 1.2.2 2 1.2 3.1 1.7.8.3 1.7.4 2.5.6 1.3.4 2.5 1.5 3.9 1.6-.1-2-2.7-3-3.5-4.9-.3-.8-.3-1.7-.3-2.5.1-2.8.2-5.6.4-8.4-1.3-.1-2.4.9-3.3 1.8-2 1.8-3.9 1.5-5.9-.1-1.5-1.2-2.4-3.2-2.3-5.1.1-.8.3-1.6.8-2.3.6-.8 1.6-1.1 2.5-1.5l2.4-.9c1.3-.5 2.6-1 4-.9 2.2.1 4.2 1.7 5.3 3.6 1.7 3 2.3 7.1 1 10.3-.2.5-.5 1-.6 1.6-.2 1 .2 2 .8 2.8.5.7 1.2 1.2 1.9 1.7.1 1.1.1 2.3-.4 3.2-.4.8-1.2 1.4-1.5 2.2-.6 1.3-.1 2.8.7 4.1.4.8 1 1.5 1.8 1.9.4.2.9.3 1.2.7.2.2.3.4.5.6.4.4 1.1.5 1.7.4s1.1-.5 1.6-.8c1.1-.8 2.2-1.7 3.1-2.8.8-1.1 1.4-2.5 1.5-3.9-.7.2-1 1-1.3 1.7-.8 1.7-2 3.2-3.5 4.4.3-2.1 2.1-3.7 2.7-5.8.1-.3 0-.7-.3-.7-.1 0-.2.1-.3.2-.7.8-1.2 1.7-1.5 2.7-.2.6-.2 1.2-.5 1.8-.3.6-.8 1.1-1.4 1.1-.1-2.2 1.9-4.2 1.7-6.4-.2-.2-.5-.1-.7.1-.2.2-.3.4-.4.7l-.9 3c-.1.4-.3 2.4-.9 1.8-.5-.5-.1-2.6 0-3.2.2-1.1.6-2.1.9-3.1-2.1-.8-2 3.9-2 4.8 0 .3 0 .6-.2.7-.1.1-.2.1-.3.1-.5-.6-.6-1.4-.6-2.1-.1-1.6-.3-2.6.6-4 .4-.6.4-1.3.4-2 0-1.1.1-2.2-.2-3.2-.2-.9-.5-1.8-.5-2.7 0-1.3.8-2.4 1.5-3.5.6-.8 1.1-1.7 1.8-2.4 2.4-2.5 5.9-3.5 9.3-3.4.3 0 .7 0 .9-.3.2-.3-.1-.6-.2-1-.3-.9.2-1.2.8-1.6.7-.5 1.3-1.1 1.8-1.8.2-.3.4-.6.8-.8.5-.3 1.2-.2 1.8.1 1.5 1 2.3 3.3.7 4.5-.8.6-1.8.8-2.8.7-.3 0-.6 0-.9.1-.3.1-.5.3-.6.6 0 .5.5.7.9.9 1.7.7 2.8 1.1 3.7 2.7.8 1.5 1.2 3.2.5 4.8-1 2.1-3.4 2.8-5.4 3.9-2.1 1.1-3.9 2.6-5.3 4.4-.2.2-.3.5-.2.7.1.1.2.2.3.2.7.2 1.4-.3 2.1-.7 2-1.3 4.1-2.1 6.3-2.8 2.1-.7 3.2-2.9 5.3-3.6 3.8-1.4 8.6-1.7 11.9.9.7.5 1.2 1.3 1.2 2.2 0 .4-.1.7-.4 1-.3.3-.8.4-1.2.6-.4.2-.8.5-.8.9 0 .6.7.9 1.3 1.1.7.2 1.3.5 2 .8.3.2.6.4.8.7.1.3 0 .7-.3 1-.5.1-.7.2-.9.3zm-33.4-7.6c-.2.1-.3.3-.4.5-.1.2-.2.4-.1.6.1.2.4.3.6.3.4 0 .9-.4.9-.8s-.6-.8-1-.6zm.3 3c-.3-.1-.6.2-.7.5-.1.4.2.9.6 1 .4.1.9-.1 1-.5 0-.4-.8-.8-.9-1zm.8-.5c.1.3.5.5.8.5.3 0 .6-.3.7-.6v-.4c0-.1-.1-.2-.2-.3-.3-.2-.7-.3-1 0s-.5.5-.3.8zm1.3-3c-.2.4-.1 1 .4 1.2.4.2.9 0 1.1-.4.2-.4 0-.9-.3-1.1-.4-.3-.9-.1-1.2.3zm2.5 3c.1-.4-.2-.8-.6-.9-.4-.1-.8.1-1 .5 0 .1-.1.2 0 .4s.3.3.5.4c.3.1.8.3 1 0 0-.2.1-.3.1-.4zm-1.8 1.4c-.1-.1-.2-.1-.3-.1-.3-.1-.7.1-.8.4-.1.3.1.7.4.9s.7.2 1 0l.3-.3c.1-.2 0-.4-.1-.5s-.4-.3-.5-.4zm-26.2-5.6c-6-3.3-13.2-3.3-20-3.2.4.2.8.5 1.2.8 2.3 1.9 3.7 4.7 4.7 7.6 1 2.8 1.8 5.8 3.2 8.5 3.9 7.4 12.5 11.5 20.8 11.3-.2-1.3-1.6-2-2.8-2.5-5.5-2.3-11.4-4.9-14.6-10-2.7-4.2-3.4-9.9-7.2-13.2 5.6.6 11.2 1.1 16.4 3.4m1.2 12.7c-1.9-3.5-5.2-6.1-8.4-8.6 2.8.9 5.2 2.8 7.5 4.7m-7.7 20.8c-2.2-4.5-1.8-9.8-.1-14.5.7.3 1.3.7 1.8 1.2.2.2.4.3.4.6.1.3 0 .6 0 .8-1.2 4.9-1.3 9.6.1 14.5-.6-.4-1-1-1.2-1.6m6.4 4.5c-.7-3.4-.6-6.9-.5-10.3.5 2.3 1.3 4.5 2.9 6.2m15.6 6c1.4-3 3.4-5.7 5.8-8.1.1.4.2 1 .5 1.4h.4c.2.3.3.5.5.8-1 .5-1.8 1.5-2.5 2.4-1.9 2.6-3.5 5.5-4.8 8.5m15.1-14.4c1.4-.9 3.4-.9 4.7-2 .6-.5 1.1-1.2 1.2-2-1.6.2-3.2.5-4.7 1.1m7-34.8c3.5-3.3 8.5-4.4 13.2-5 4.7-.6 9.6-.7 14.1-2.5-.4 7.9-4.3 15.5-10.4 20.5-.5.4-.9.5-1.5.8-.3-.6-.7-1.2-1-1.8 5.3-3.8 8.2-10 10.9-16-9.1-.2-18.3 2.3-26 7.2m7.6 1.9c1.4-1.7 3.9-1.9 6-2.4 1.5-.3 3-.8 4.4-1.5-.6.6-1.4 1-2.1 1.4-2 1.2-3.9 2.5-5.7 3.8m-27.7-16.5c.3 1.1.6 2.2.8 3.3.2 1 .2 2-.2 3-.4.9-1.4 1.7-2.4 1.5.4-3.3-.4-6.6-1.7-9.6s-3.1-5.8-4.9-8.5c.4.6-4.3 3.6-4.8 4-1.7 1.4-2.7 3.6-3 5.7 0 .2-.1.5-.2.6-.1.1-.2.1-.3.2-.9.3-1.9.6-2.8 1 .3-.1 1.3-3 1.5-3.4.5-1 1-1.9 1.7-2.8 1.5-1.9 3.4-3.4 5.1-5.2 1.6-1.6 3-3.5 4.1-5.5 3 4.9 5.4 10.2 7.1 15.7zm-10.1.5c.2-1.5.5-3 .9-4.5.7 2.6 1.2 5.3 1.6 8m-28-11.9v-.1l.3-.3c1.5-.8 2.3-.9 3.1-2.4 1.2-2.1 2.9-3.4 5.2-4-1.4-1.3-2-3.1-2.8-4.7-.2-.4-2.4-6-1.9-6 3.6-.1 7.2.3 10.6 1.2.9-2.6 2.4-5.1 4.4-7 1.2 1.5 2.4 3 3.3 4.7.7 1.4 1.8 2.4 2.7 3.7.2-.2.3-.5.5-.7.5-.8 1.6-1.4 2.4-1.8.7-.3 1.5-.4 2.2-.6 1.9-.5 3.7-1.4 5.3-2.6 3 4 2.8 9.5 3.4 14.2.2 1.3.3 2.6 0 3.8-.3 1.6-1.2 3.1-2.1 4.4-1 1.6-2 3.1-3 4.7-.7-.8-.8-2.1-.4-3.1.3-1 1-2 1.5-2.9 1.3-2.6 1.7-5.5 1.6-8.4-.1-1.5-.3-3-.6-4.4-.1-.7-.4-3.7-1-4-.5-.3-2.4.4-2.9.6-1.1.3-2.2.9-3.2 1.5-1.4.9-2.8 2.7-4.3 3.3-1.7.7-1.3-1.2-1.8-2.4-.9-2.3-2.5-4.1-3.6-6.2-.4.6-2.8 5.8-3.3 5.8-.8-.1-7.7-.6-7.7-1 0 2.7 2.5 5.8 3.7 8.1.1.1.1.3.1.4 0 .2-.2.3-.4.3-1 .6-2.4 1-3.3 1.7-.4.3-.7.7-.9 1.2-.8 1.3-2 2.4-3.3 3.1-.3.1-.5.3-.7.6-.3.5.1 1.2.4 1.6 3.1 3.9 8 6.4 12.9 6.7-1.6 1-3.2 2.1-5.1 1.7-1.7-.4-3.4-1.4-4.8-2.4-2.8-2-5-4.7-6.4-7.8-.1-.2-.2-.4-.1-.5zm20.7 1.9c-1.1-3.1-2.3-6.1-3.6-9.1 2.3 2.1 4.6 4.3 7 6.4M235 104c-.9-5.5-.8-11.2.3-16.7 2.6 1.2 5.8.3 8.1 2.1 1.5-2.9 3.4-5.7 5.5-8.1 2 1.8 3.4 4.3 3.9 6.9 2.4-1.6 5.5-2.1 8.3-1.5-.2 3.1-1.3 6.2-3.1 8.8 1.8-.1 3.6.3 5 1.4 1 .8 1.7 1.9 2.6 2.9.9 1 2 1.8 3.3 1.7-1.2 1.3-2.2 2.9-3.4 4.3s-2.7 2.7-4.4 3c-.9-.2-2.2-.2-3.1-.4 2.6-1.1 4.9-3.1 6.2-5.6-1.7-3.2-5.1-5.4-8.8-5.7l1.8-7.8c-1.6.8-3.4 1.3-5.3 1.3-.9-1.8-2.1-3.3-3.7-4.5-1.7 1.9-3 4.1-3.9 6.5-.6-1.2-1.9-1.9-3.2-2.3-1.3-.3-2.7-.4-4-.8-1.1 4.3-.8 8.9.7 13m6.4 3.1c1.7-3.4 3.7-6.7 6-9.7-.4 1.3-.8 2.6-1.3 3.8-.8 2.5-1.7 5-3 7.3-.5.9-1.2 1.9-1.1 3m-21.2-33.8c-1.4-4.2-2.5-9-.4-13 .5 1.5 2.1 1.9 3.5 2.2 1 .2 3.6 1.3 4.5.7.3-.2.4-.4.5-.7 1.9-3.4 4.9-6.3 8.4-8 1.3 2 2.3 4.2 2.9 6.5 2.9-1.1 6-2 9.1-2.5.5 3.9-.5 7.9-2.6 11.2 3.2.6 6.5 1.3 9.7 1.9-.3 3.5-2.5 7.4-5.8 9-3.6 1.8-7.7 4-11.8 4.3-4.3.3-8.9-.6-12.6 2.2-.1-1.7.1-2.1 1.7-2.9 1.6-.7 3.3-1.1 5-1.3 1.6-.2 3.3-.4 5-.4 1 0 2.1.3 3.1.1 1.4-.3 2.6-1.2 3.9-1.7 1.4-.5 2.8-.9 4-1.8 1.7-1.2 3.1-2.2 4.3-4-2.8-2-6.1-3.2-9.5-3.5 1.2-3.2 2-6.5 2.4-9.8-1.8-.1-3.6.3-5.2 1.1-.4.2-.8.4-1.2.3-.3-.1-.5-.4-.7-.7-.8-1.4-1.6-2.8-2.5-4.2-2.5 2.3-4.5 5.3-5.6 8.5-.7-1.7-2.8-2.1-4.6-2.2-1.8-.1-3.8-.1-5-1.5.6 3.5 1.4 7.1 2.2 10.6m12.6-2.8c-.7.8-.9 2.9-1.4 3.9-.6 1.4-1.2 2.7-1.9 4-1.4 2.7-2.9 4.3-5.2 6.3-.6.5-1.3 1.1-2.1 1.3-.1-.9-.2-1.8-.1-2.7 0-.4 2.6-2.4 3-2.8 1-.9 1.8-1.7 2.6-2.8 1.8-2.3 3.2-4.9 5.1-7.2zm-3.9 27.6c-3.1-1.5-5.6-4.2-6.9-7.4-.2-.4-.3-.8-.2-1.3 2.3 1.7 4.7 3.1 7.2 4.4m-26.6-22.6c-2.1-.5-4-1.5-5.6-2.9-4.3-3.9-5.4-10.1-6.2-15.9.8-.2 1.6.1 2.5.2.6.1 1.6.7 2.1.1.3-.5.1-1.1-.1-1.6-.8-2.5-.5-5.2-.1-7.8.1-.4.1-.8.4-1.2.2-.3.6-.4 1-.5 1.1-.2 2.3.3 3.4.7 1.5.6 4.2 2 5.6.7.7-.6 1.2-2.2 1.8-3 .8-1.1 1.6-2.1 2.6-3.1.1-.1.1-.2.2-.2.2-.1.5 0 .8.2 1.6 1.2 2.2 3.3 3 5.2.4 1 1.3 3.4 2.6 3.6 1.4.3 3.1-2.1 4.1-2.9.5-.4 1.1-.7 1.6-1 .2-.1.4-.2.7-.3.5-.1.9.2 1.2.6s.4.8.5 1.3c.7 2.6.6 5.1.9 7.7.4 2.9 1.8 5.7 1.4 8.7-.1.8-.3 1.5-.8 2.2-.9 1.3-2.8 1.8-4.3 1.1.6.3 2.6-1.8 2.7-2.3.3-1-.9-2.6-1.6-1.3-.1.2-.1.4-.3.5-.3.4-.9.4-1.4.4-1-1.9-1.7-4-2.1-6.2.5-.2 1.2.1 1.4.6h.4c.2-.9-.2-1.7-.4-2.6-.1-.3-.1-.6 0-.9s.5-.5.8-.3c.2.6.4 1.1.8 1.6h.5c.4-2.8.1-5.3 0-8.2 0 .7-2.8 1.9-3.4 2.3-1.6 1.1-2.3 3.2-2.5 5.1 0 .1 0 .2-.1.3-.1.1-.4 0-.5-.1-1.2-1.1-1.8-2.5-2.1-4.1-.4-1.7-1-3.2-2-4.7-.6-.8-1.1-1.7-1.4-2.7-.5.2-.7.7-1 1.2-.4.8-.8 1.7-1.2 2.5-.5.9-1 2-2 2.3-.7.3-1.5.1-2.2-.2-.9-.4-1.5-1.3-2.5-1.6-1.1-.4-2.6-.3-3.7-.1-1.5 3.4-1.1 7.3.9 10.4.2.4.5.8.6 1.3-1.5 0-3-.5-4.5-1-.5-.2-.9-.3-1.4-.5.5.1 1.4 5.7 2.3 6.6.4.4 1 .7 1.6.6 0-.6-.1-1.3-.1-1.9.5-.3 1.1.2 1.5.7.4.5.9 1 1.3 1.5.2.3.5.6.8.8.5.4 1.1.6 1.6 1s.8 1.1.5 1.6c-.9.1-1.8 0-2.7-.1-.2.7.4 1.3.6 1.9.4 1.2.1 1.8 1.4 2.1 1.1.3 2.7.5 3.9.7 3 .5 6.1.2 9-.4 1-.2 2.2-.7 2.6-1.7.3 0 .5.3.7.6.4.7.8 1.7.3 2.3-.3.4-.9.6-1.4.8-3.6.9-7.3 1.2-11 .9m8-21.1c.6.7 1.2 1.5 1.2 2.5-.4.4-1.1.2-1.5-.1-.5-.3-.9-.7-1.4-.8-.9-.3-1.8.2-2.6.6-1.1.6-3.2 1.5-3.7 2.7-.5 1.1-.2 3.1-.3 4.4-.1 2.4.7 3.8 2.3 5.5.4.4.8.9.9 1.5-.8.3-1.7-.4-2.3-1-1.9-2.1-3.4-4.5-5.3-6.7-1.7-2-4.1-3.4-5.6-5.5-.2-.2-.3-.6-.2-.8 1.9.1 3.4 1.4 4.8 2.7 1 .9 2 1.8 3.3 2.5-.5-.3.3-2.9.5-3.3.5-1.1 1.2-2.1 2.2-2.8.9-.6 1.8-.7 2.7-1.3 1-.7 2-1.8 3.4-1.4.7.2 1.2.8 1.6 1.3zm-10 5.7c-1.1-1.5-2-3.2-2-5 0-.4.1-.9.4-1.1.5 1.3 1 2.5 1.6 3.7.2.4.6.9 1 .8.4-.1.6-.5.6-.8 0-.4-.2-.7-.4-1-.6-1.3-.9-2.6-1-4 .4-.2.8.4 1 .8.3.8.8 1.6 1.3 2.3.4.1.9.1 1.3.2.2-.8-.5-1.6-1-2.2s-1.1-1.5-.7-2.3c.5-.2.9.3 1.2.8.4.7.7 1.3 1.1 2 .5.5 1.2.7 1.9.6.2-.5.1-1-.2-1.4-.2-.2-.5-.4-.7-.7-.3-.4-.5-.9-.3-1.4.7.1 1.1.7 1.5 1.3.3.6.7 1.3 1.3 1.5m-1.6 14.3c-1.4-1.5-2.2-3.4-2.3-5.4.3.1.6.3.9.5.3.2.7.3.9 0 .1-.1.1-.3.1-.5 0-1-.2-2 .2-3 0-.1.1-.2.2-.2s.2.1.2.1c.5.6 1.1 1.1 1.6 1.7.2-1 .8-1.9 1.5-2.5.1 1 .4 2 .9 2.9.3.6.7 1.3 1 1.9.2.5.2 1 .3 1.5.2 1.1.3 2.3-.5 3.1-.6.6-1.4.7-2.2.8-.7.1-1.5.2-2.2-.2-.2-.3-.4-.5-.6-.7zm21.9-29.6c1.1-2.5 3-4.6 5.3-6-.1.4.2.8.5 1.2 1.4 1.4 2.8 3.2 3.9 4.8.1.1.1.2.2.2h.3c2.1-.7 4.2-.9 6.4-.8-1.8 2.7-2.5 6.6-3.3 9.7 2 .5 3.1 1.8 4.7 3.1.6.5 4.3 3.2 5.1 2.2-2.9 3.6-7.4 6.7-11.5 8.9-.6.3-1.3.7-2 .7s-1.4-.3-1.7-.9c1.7-.9 3.5-2.2 5.1-3.3 2-1.5 4.1-3.1 6.1-4.6-3.3-.3-5.4-4.1-8.8-4.6.6.1.8-5.7.9-6.3.2-2.5-.6-2.6-2.9-2-.7-1.9-1.6-3.6-3.2-4.9l-.1-.1c-.1 0-.2.1-.2.1-1.3 1.4-2.3 2.9-3.1 4.6-.3.6-.9 3.4-2 2.5-.7-.6-1.5-1.2-2.2-1.8-1-.8-2-1.6-3.2-2-1.1-.3-2.5-.4-3.2.7-1 1.5-.8 4.7-.7 6.4 0 .2-1.3-1.2-1.4-1.4-.3-.5-.6-1.5-.7-2.1-.5-2.3.4-5.4 1.4-7.4.2.5.4.9.6 1.3.3.6 4.5.3 5.3.5 1.6.4 3 1.1 4.2 2.3-.2-.2 0-.6.2-1zm-6.8 20.4c3.1-5 7.4-9.2 12.4-12.2-4 4.2-7.2 9.1-9.6 14.4-.6 1.3-1.4 2.3-2.8 2.5h-.2c-.1 0-.1-.1-.1-.2-.2-.9-.3-1.8-.4-2.7m-33.7-1.3c-1.8-.3-3.6-1.2-4.8-2.6-1.5-1.6-2.3-3.7-3.4-5.5-1.2-1.8-2.9-3.5-5.1-3.6 1.8-2.5 5.3-2.9 8.3-3.2.2-3.1.4-6.1.6-9.2 1.6.5 3.2 1.1 4.8 1.6.2.1.4.1.6.1.3-.1.4-.3.6-.6l2.7-4.8c1.3 2 2.7 3.9 4 5.9 1.1-2.5 5.5-4.5 8.2-4.1-.5 1.9-.9 3.7.2 5.4.6.9 1.2 2 .9 3.1-.1.6-.5 1.1-.8 1.6-.5.7-1 1.5-1.5 2.2-1.6-3.3-1.1-6.6-1.7-10.1-2.4.5-4.2 2.8-4.3 5.2-1.6-1.5-3.1-3.1-4.5-4.7-.6 1.1-1.3 2.3-1.9 3.4-1.6-.6-3.3-1-5-1.2 0 2.8-.2 5.5-.8 8.2-1.7-.2-3.4 0-4.9.6 1.6 1.5 2.4 3.7 3.4 5.7 1.1 2 2.8 3.9 5.1 3.8m2.6 8l-1.2-2.7c-1.4.9-2.9 1.4-4.3 2.3-.7.4-1.3.8-2 1.3-1.7 1.3-3.2 2.9-4.3 4.7 1.6.3 3.3.6 4.9 1 .7.2 1.4.3 2 .7.9.6 1.4 1.7 2 2.6 1.3 2 3 2.4 5 3.5 1.2.7 2.5 1.3 3.9 1 .4-1.1.7-2.2.9-3.3-1.5 0-2.9 0-4.3-.3-2.4-.6-2.7-1.9-4.1-3.5-.4-.5-5-3.7-5.6-2.9 2-2.4 4.7-4.2 7.7-5m25.8-44.1c-.4-1.4-1.1-2.8-2-4-1.4-2-2.9-4.5-2.1-6.8-1.1-.5-2.2.7-2.8 1.7-1.7 2.8-3.5 5.6-4 8.8-1.8-2.9-5.3-4.1-8.6-4.8-.7-.1-1.4-.3-2.1 0-1 .5-1.3 1.9-.9 2.9.4 1.1 1.2 1.9 1.9 2.8.9 1.2 2.1 2.6 2.1 4.1 0 1.1-7.3-.9-7.8-.9-.4-.1-.8-.1-1.1 0-.4.1-.7.5-.7.8 0 .4.5.7.9.8.4.1.9.1 1.3.2.5.2.8.6 1 1.1.7 1.1 1.5 2.2 2.1 3.4.4.9.5 1.9 1.2 2.6.9.8 2.8 2.6 4 2.6 1.3 0 1.8-1.7 2.1-2.7.1-.6.3-1.5.2-2.1-.1-.2-1-2-1.4-1.2-.1.2-.2.4-.2.6-.5-.5-1.2-.9-1.9-1.1-.1 0-.3 0-.4.1-.1.1-.1.2-.1.3-.1.5-.8.8-1.3.6-1.4-.4-1.7-2.4-2.2-3.5.9-.3 1.9.2 2.8.6 1.4.6 4.2 1.8 4.5-.7.3-2.5-1.7-4.5-2.9-6.5-.2-.3-.4-.7-.3-1.1.1-.6.8-.9 1.4-.8.6.1 1.1.5 1.5.9 2 1.7 4.1 3.1 6.4 4.4.6-.1.7-1 .6-1.6-.2-2.8.7-5.7 2.5-7.9.4.3.5 1 .6 1.5.2.8.6 1.6 1.2 2.3 1.2 1.3 2.6 1.7 2.8 3.7-.7.3-1.5.5-2 0-.2-.2-.3-.5-.5-.7-.4-.5-1-.8-1.6-.7-.1.7-.1 1.4-.2 2.1-.4.1-.8 0-1.1-.3-.4 1.8.2 3.8 1.5 5.1.5.5 1.4 1 2 .5.2-.1.3-.3.4-.5.3-.4.7-.8 1.2-1 .9 1-.4 2.8-1.1 3.6-1.4 1.7-3.2 3.1-5.2 4.1-1 .5-2.1 1-3.2 1.2-.7.1-2.4-.2-2.8.2-.6.4-.4 1.3.1 1.7.5.4 1.2.5 1.9.4 2.9-.2 5.6-1.6 7.9-3.3 1.2-.9 2.4-1.9 3.3-3.2 1.9-3 2.2-6.8 1.1-10.3zm-14.7 5.4c.6.1 1.3.1 1.9.2v-1.7c.5-.2 1.1.2 1.3.7 0 .1.1.2.2.3.5.4 1.2-.8 1.7-.4.6 1.4.8 2.8.8 4.3 0 .4 0 .8-.3 1-.2.2-.5.2-.8.3-.8.1-1.6.2-2.4-.1-1.1-.5-1.7-1.7-2.2-2.8 0-.6-.3-1.2-.2-1.8zm6.4-11c.2-1.4-1.1-2.5-2.5-3.2-1.3-.6-2.8-1-3.9-1.9-.3-.3-.8-.6-1.2-.4-.2.1-.3.3-.4.5-.3.7-.4 1.4-.4 2.2 0 .2 0 .5.1.7.1.2.3.4.4.7.4.7.3 1.6.4 2.4.1.8.4 1.7 1.2 2 .1 0 .3.1.4 0 .1-.1.2-.2.2-.3.3-.8.5-1.7.4-2.5-.2-1-.9-1.8-1-2.9 0-.3 3.3 1.1 3.6 1.3 1.1.7 1.7 1.5 2.3 2.7.2-.5.4-.9.4-1.3zm-12.3 5.4c-1.5-.8-3.1-1.3-4.8-1.5-.3 0-.6-.1-.9.1-.4.2-.5.6-.5 1 0 1.2 1 2.1 1.5 3.1.3.7.4 1.4.7 2.1.3.7 1 1.3 1.7 1.2.1 0 .2 0 .2-.1.1-.1.1-.2 0-.3-.3-1.7-1.4-3.2-2.4-4.6-.1-.1-.2-.3-.2-.5 0-.4.5-.4.9-.4 2.2.3 4.1 1.3 6.1 2.2m-2.1 2.9c-.7-.5-1.1-1.2-1.2-2 1.2.6 2.4 1.3 3.7 1.9.3.2.7.5.6.9-.2-.1-.4 0-.6.1m5.8-11.2c.4-.1.8.3 1.1.6.3.3.6.7.9 1 .2.2.4.4.5.7.1.3.1.7.1 1 0 .5-.1 1-.1 1.5-.7-1.2-1.3-2.5-2-3.7-.3-.3-.5-.7-.5-1.1zm12.9 2.1c0-.1-1.8 1.4-1.9 1.4-.8.2-1.1-.3-1.7-.9-.1-.1-.2-.3-.3-.5 0-.2.1-.5.3-.7 0-1 4.7-3.1 5.5-3.5.1 2.2.3 4.4.7 6.5 1.7-1.8 3.9-3.1 6.3-3.8.3 4.4-1.1 8.5-1.1 12.8 3.2.2 6.4.4 9.5.7 1.2.1 2.6.6 3.6-.1.4 2.5-.4 5-1.5 7.2-.3.5-.8 1.1-1.3.9-.5-.3-.4-1-.1-1.6.5-1.3.9-2.6 1.1-3.9-4.3.1-9.2-.2-13.3-1.3 0-3.3.4-6.5 1-9.8l-3.6 2.7c-.3.2-.7.5-1.1.3-.2-.1-.3-.2-.4-.4-1.3-1.6-1.9-3.9-1.7-6zm-9.1 27.4c1.9-.6 3.3-2.4 4.1-4.3 1-2.6.3-5.4-1.2-7.6.7-.5 1.4-1.1 1.9-1.8.3 1.4 1 2.4 1.2 3.8.2 1.9.3 3.9-.2 5.8-.8 2.7-2.8 4.7-4.9 6.5-.4-.7-.6-1.6-.9-2.4zm5.5-8.6c2-2.8 4-5.5 6-8.3-2.1 4.5-4.5 8.8-7 13"/><path fill="#CCC25A" d="M191.5 12.4c1.6.6 3.2 1.3 3.2 1.6.5-2.1 1-4.2 1.4-6.3 1.5-.2 2.8.7 4 1.5 2.2 1.5 4.3 3.1 6.1 5 .2.2 3.6-1.6 4.1-1.7 1.6-.7 2.8.7 1.2 1.6-1.7 1-3.5.9-4.4 3-3.3-1.5-5.2-5.1-8.6-6.3-.6-.2-2.1 4.8-2.1 5.4-1.7-.1-4.4-.5-5.8-1.5-.1-.1-.2-.1-.3-.1-.1 0-.1.1-.1.2-.2 1.7-.1 3.5.3 5.2.3 1.1 1.3 2 1.5 3 .5 2.4-3.9 3.1-5 4.9l-.6.9c-.1.5-.4 1-.8 1.4-.1.1-.1.1-.1.2s0 .2.1.2c1.6 2.1 4 4.5 6.7 4.5 1.5 0 2.6.2 4 .5.5.1 4.9.7 4.9.8.2.7-.3 1.5-.9 1.8s-1.4.4-2.1.4c-2.7 0-5.4-.3-7.9-1.1-1.3-.4-2.4-1-3.6-1.7-1.3-.8-1.8-1.9-2.9-2.8-.7-.7-1.7-1.1-2.7-.9.7-2.2 2.3-3.3 3.5-5 1.2-1.6 1.8-2.4 3.8-3.2.2-.1.4-.2.6-.4.5-.6-.4-1.6-.6-2.2-.2-.9-.1-2.1-.1-3.1 0-2.4.1-4.9.4-7.3.2.5 1.5 1 2.8 1.5zm9.4 13.2c-.1-.1-.2-.1-.3-.2-1.9-1.5-3.2-4-3.2-6.4 1.2.8 1.9 1.8 3 2.6.2.2 2.6 1.8 2.6 1.3.2 1.3.4 2.6.5 3.9 0 0-1.9-.8-2.6-1.2zm-66.6 6.7c-.1-.1-.1-.3-.1-.5 0-.1.2-.2.3-.3 1.8-1.1 3.7-2.3 5.5-3.4-1.1-.4-2.5-.5-3.7-.6-1.5-.1-3-.2-4.4-.3-.2 0-.3 0-.5-.1-.1-.1-.3-.2-.4-.4-.9-1.2-1.6-2.6-2.2-4 .1.3-1.5 2.3-1.8 2.7-.5.7-.9 1.6-1.5 2.2-1.2.3-2.4.4-3.7.5-1.8.2-3.6.4-5.3.6 2 1.6 4.6 2.3 7.1 3-1 2.5-2.1 5.1-3.1 7.6 2.7-1.6 5.4-3.1 8.1-4.7 2.8 1.2 6 2.9 9.1 3-.5-.8-1-1.7-1.5-2.6-.6-.8-1.4-1.6-1.9-2.7zm-5.2.7c-.1-.1-.2-.1-.3-.2v-6.1c.6.7 1 1.5 1.3 2.4 1.6.2 3.1.2 4.7.1l-3 2.1c-.1.1-.2.1-.2.2s0 .2.1.3c.5 1 1.4 1.9 1.4 3-1.4-.5-2.7-1.1-4-1.8zm35.2-.2c0-.3.2-.4.5-.6 2.1-1.4 4.1-2.8 6.2-4.3-2.7-.2-5.5-.3-8.2-.2-.2 0-.4 0-.5-.1l-.3-.3c-.9-1.4-1.7-2.8-2.2-4.3.1.3-1.4 2-1.6 2.3-.5.7-1 1.4-1.7 1.7-1.6.7-3.4.5-5.1.7-1.9.3-3.8.6-5.7 1 2.8 1.1 5.7 1.9 8.7 2.6-1.3 2.5-2.7 4.9-4.3 7.3 2.7-1.1 5.3-2.4 7.8-3.9.3-.2.5-.3.8-.3.4 0 .8.1 1.1.3 2.7 1.3 5.4 2.5 8.1 3.6-1.2-1.7-2.3-3.4-3.3-5.1-.2-.1-.3-.2-.3-.4zm-4.9-.1c-.1-.1-.3-.2-.3-.3v-.3c.1-1.7.1-3.5.2-5.2.6.9 1.1 1.7 1.7 2.6 0 .1.1.2.2.2h.1c1.2-.1 2.3-.1 3.5-.2-.6 1.1-2.1 1.4-3 2.2-.1.1-.2.2-.2.3 0 .1.1.2.1.3.6.7 1.1 1.5 1.6 2.3-1.4-.6-2.7-1.2-3.9-1.9zm-10.6-17c1-1.7 2.4-3.2 4-4.4-.3.2-1.6 0-2 0h-2.1c-.9 0-2.6.1-3.4-.4-.2-.1-.3-.2-.4-.4-.6-.7-1.2-1.4-1.6-2.1-.1-.1-.7-1.6-.8-1.5-1.2.7-1.8 2.3-2.7 3.4-1.1 1.3-2.9.9-4.4 1.1-.4 0-3.3.7-3.5.6 1.2 1.2 2.5 2.2 4 3 .4.2.9.5 1.2.8.7.9-.2 1.8-.6 2.6-.6 1.2-1.2 2.4-1.7 3.6 1.8-1.1 3.5-2.2 5.3-3.3.5-.3.9-.6 1.4-.7 1.2-.2 2.3.5 3.3 1 2 1.1 4.3 1.9 6.6 2.2 0-1.8-3.7-3.7-2.6-5.5zm-3.1.4c.4.7.9 1.4 1.3 2.1-1.1-.3-2.2-.9-3.2-1.5-.3-.2-.6-.4-.7-.7-.3-.4-.3-.9-.3-1.4l-.3-3.9c.7.7 1.2 1.4 1.6 2.3 1.4 0 2.7.1 4.1.1-.8.7-1.5 1.4-2.3 2.1-.2.2-.4.3-.4.6.1.1.1.2.2.3z"/><path fill="#F26C6E" d="M47.2 52.5c-.4 2.4-4.9 3.1-6.1 1-.6-1.1-.8-2.4-.6-3.6 0-.1 0-.2.1-.2h.2c.4.2.8.3 1.2.5.1-.6.2-1.2.2-1.8 0-.1 0-.2.1-.3.1-.2.4-.2.6-.1.2.1.3.3.5.5.1.2.3.5.5.7.2.2.5.3.8.1.3-.1.4-.5.5-.8.1-.3.3-.7.6-.7s.5.4.5.7 0 .7.2 1c.2.4.8.5.9.9.1.3 0 .6-.1.9-.1.4-.1.8-.1 1.2zm22.4-4c-.4 2.4-4.9 3.1-6.1 1-.6-1.1-.8-2.4-.6-3.6 0-.1 0-.2.1-.2h.2c.4.2.8.3 1.2.5.1-.6.2-1.2.2-1.8 0-.1 0-.2.1-.3.1-.2.4-.2.6-.1.2.1.3.3.5.5.1.2.3.5.5.7.2.2.5.3.8.1.3-.1.4-.5.5-.8.1-.3.3-.7.6-.7s.5.4.5.7c0 .3 0 .7.2 1 .2.4.8.5.9.9.1.3 0 .6-.1.9 0 .4 0 .8-.1 1.2zm13.3-23.4c-.4 2.4-4.9 3.1-6.1 1-.6-1.1-.8-2.4-.6-3.6 0-.1 0-.2.1-.2h.2c.4.2.8.3 1.2.5.1-.6.2-1.2.2-1.8 0-.1 0-.2.1-.3.1-.2.4-.2.6-.1.2.1.3.3.5.5.1.2.3.5.5.7s.5.3.8.1c.3-.1.4-.5.5-.8s.3-.7.6-.7.5.4.5.7c0 .3 0 .7.2 1 .2.4.8.5.9.9.1.3 0 .6-.1.9 0 .4 0 .8-.1 1.2zm9 2.1c-.4 2.4-4.9 3.1-6.1 1-.6-1.1-.8-2.4-.6-3.6 0-.1 0-.2.1-.2h.2c.4.2.8.3 1.2.5.1-.6.2-1.2.2-1.8 0-.1 0-.2.1-.3.1-.2.4-.2.6-.1.2.1.3.3.5.5.1.2.3.5.5.7s.5.3.8.1c.3-.1.4-.5.5-.8s.3-.7.6-.7.5.4.5.7 0 .7.2 1c.2.4.8.5.9.9.1.3 0 .6-.1.9 0 .4 0 .8-.1 1.2zm130.3 39.7c-.4 2.4-4.9 3.1-6.1 1-.6-1.1-.8-2.4-.6-3.6 0-.1 0-.2.1-.2h.2c.4.2.8.3 1.2.5.1-.6.2-1.2.2-1.8 0-.1 0-.2.1-.3.1-.2.4-.2.6-.1.2.1.3.3.5.5.1.2.3.5.5.7.2.2.5.3.8.1.3-.1.4-.5.5-.8.1-.3.3-.7.6-.7s.5.4.5.7c0 .3 0 .7.2 1 .2.4.8.5.9.9.1.3 0 .6-.1.9-.1.4 0 .8-.1 1.2zm10-6.4c-.4 2.4-4.9 3.1-6.1 1-.6-1.1-.8-2.4-.6-3.6 0-.1 0-.2.1-.2h.2c.4.2.8.3 1.2.5.1-.6.2-1.2.2-1.8 0-.1 0-.2.1-.3.1-.2.4-.2.6-.1.2.1.3.3.5.5.1.2.3.5.5.7.2.2.5.3.8.1.3-.1.4-.5.5-.8.1-.3.3-.7.6-.7s.5.4.5.7c0 .3 0 .7.2 1 .2.4.8.5.9.9.1.3 0 .6-.1.9 0 .4 0 .8-.1 1.2zm-24.1 8.6c-.4 2.4-4.9 3.1-6.1 1-.6-1.1-.8-2.4-.6-3.6 0-.1 0-.2.1-.2h.2c.4.2.8.3 1.2.5.1-.6.2-1.2.2-1.8 0-.1 0-.2.1-.3.1-.2.4-.2.6-.1.2.1.3.3.5.5.1.2.3.5.5.7.2.2.5.3.8.1.3-.1.4-.5.5-.8.1-.3.3-.7.6-.7s.5.4.5.7 0 .7.2 1c.2.4.8.5.9.9.1.3 0 .6-.1.9-.1.4 0 .8-.1 1.2zm19.4-44c-.4 2.4-4.9 3.1-6.1 1-.6-1.1-.8-2.4-.6-3.6 0-.1 0-.2.1-.2h.2c.4.2.8.3 1.2.5.1-.6.2-1.2.2-1.8 0-.1 0-.2.1-.3.1-.2.4-.2.6-.1s.3.3.5.5c.1.2.3.5.5.7s.5.3.8.1c.3-.1.4-.5.5-.8s.3-.7.6-.7.5.4.5.7c0 .3 0 .7.2 1 .2.4.8.5.9.9.1.3 0 .6-.1.9-.1.4-.1.8-.1 1.2zm-15.1 8.8c-.4 2.4-4.9 3.1-6.1 1-.6-1.1-.8-2.4-.6-3.6 0-.1 0-.2.1-.2h.2c.4.2.8.3 1.2.5.1-.6.2-1.2.2-1.8 0-.1 0-.2.1-.3.1-.2.4-.2.6-.1.2.1.3.3.5.5.1.2.3.5.5.7s.5.3.8.1c.3-.1.4-.5.5-.8s.3-.7.6-.7.5.4.5.7c0 .3 0 .7.2 1 .2.4.8.5.9.9.1.3 0 .6-.1.9 0 .4 0 .8-.1 1.2zm8-3.5c-.4 2.4-4.9 3.1-6.1 1-.6-1.1-.8-2.4-.6-3.6 0-.1 0-.2.1-.2h.2c.4.2.8.3 1.2.5.1-.6.2-1.2.2-1.8 0-.1 0-.2.1-.3.1-.2.4-.2.6-.1.2.1.3.3.5.5.1.2.3.5.5.7s.5.3.8.1c.3-.1.4-.5.5-.8s.3-.7.6-.7.5.4.5.7 0 .7.2 1c.2.4.8.5.9.9.1.3 0 .6-.1.9-.1.4-.1.8-.1 1.2z"/><path fill="#CCC25A" d="M68 201.5c2.4-1.8 5.6-2.1 8.5-1.8 1 .1 2.1.4 2.4 1.4.1.6-.1 1.1-.4 1.7-2.3 4.6-5.3 9.1-5.7 14.3 1.3.2 2.4-.8 3.3-1.8 3-3.1 6-6.3 9.7-8.6s8.1-3.6 12.4-2.8c1.7.3 3.4 1 4.3 2.4-3.4-.2-7-.5-10.3.4-6.2 1.7-10.6 7.1-15.6 11.2-1.7 1.4-3.9 2.7-6.1 2.1-.6-5.2 2.2-10.2 3.5-15.3.2-.9.4-1.9-.2-2.6-.5-.6-1.5-.7-2.3-.6-1.9.2-3.7 1.3-5 2.8-.1-1.1.6-2.1 1.5-2.8zm14.3 19.2c.9.1 1.8.3 2.8.3.9 0 1.9-.2 2.6-.9s1-1.7.6-2.5c-.2-.5-.7-.8-1.1-1.1-.7-.5-1.4-1-2.1-1.6-.3-.2-.6-.4-.9-.5-.5-.1-1 .2-1.4.4-.7.4-1.3.9-1.9 1.5-.5.4-.9.9-1.1 1.5-.2.6-.2 1.3.2 1.8.5.9 1.5 1 2.3 1.1zm16-4.2c-1.9-.6-3.9-1.1-5.7-.6-1.9.5-3.6 2.2-3.5 4.1 0 .4.1.7.4.9.2.2.5.2.7.3 1.9.3 3.8.5 5.7.3-1.3 2.3-4.4 3.1-6.9 2.4-1.3-.4-2.5-1.1-3.9-1.4-1.3-.4-2.9-.3-3.9.6 2.9 1.2 5.9 2.3 8.9 3.1 1 .3 2 .5 3 .5 1.7 0 3.3-.9 4.6-2 1.3-1.1 2.3-2.5 3.3-3.8.4-.6.9-1.2.9-2s-2.9-2.2-3.6-2.4zm2.6 7.9c2.7.7 5.7 1.2 8-.2 1-.6 1.9-1.8 1.5-3-.1-.3-.3-.5-.4-.7-.8-.9-2-1.3-3.1-1.2-1.9.2-3.3 1.7-4.6 3.1l-1.5 1.8c-.5.5-.9 1.2-.7 1.9 2 .7 4.1 1.4 6.2 1.5 1.7.1 3.4-.2 4.9-1.1 2.3-1.3.3-2.3-1.5-1.9-.9.2-1.8.7-2.7.9-1.8.5-3.8.3-5.4-.6v-.4m8.8 6.7c-.1-1 .5-2 1.1-2.8 2.5-3.2 5.4-6.4 8.2-9.5 2.8-3 6.4-5.8 10.5-5.6-1.9 1.5-3.7 3-5.6 4.5-5.2 4.2-10.4 8.5-14.4 13.9"/><path fill="#CCC25A" d="M130.7 231.2c0-.5 4.1-2.9 4.6-3.3 1.4-1.1 2.6-2.2 3.9-3.4 2.6-2.6 5.6-4.5 7.8-7.5-.8 0-1.5.3-2.2.7-2.4 1.2-5.6 2.1-7.8 3.8-1.8 1.3-3.3 3.6-4.6 5.4-.8 1.2-1.7 2.7-1.7 4.3zm19-7.2c.2.6.2 1.2.1 1.7-5.8.1-11.6-.1-17.3-.7-2.6-.3-5.2-.6-7.4-1.9-.4-.2 1.4-1 1.5-1.1 1.1-.4 2.6-.3 3.8-.5 3.1-.3 5.9-.6 8.9.1 1.7.4 3.5.6 5.2 1 .8.2 5.1.9 5.2 1.4zm22.1-10.6c.5 1.4-.6 2.8-1.7 3.8l-5.9 5.9c1.6-.8 3.3-1.2 5-1.5.8-.1 1.5-.2 2.3 0s1.4.9 1.4 1.7c0 .8-.6 1.4-1.2 1.9-5.8 4.9-13.4 7.7-21 7.8 2.4-5.8 5.4-11.3 9-16.5 1-1.4 2-2.9 3.5-3.7 1.5-.8 3.2-1 4.9-1.1 1.4 0 3.2.3 3.7 1.7zm12.1 7.3c-.9.8-1.2 2-1.8 3.2-.2.4-.4.8-.3 1.2.2.7 1.1 1 1.8 1 .7.1 1.4.1 2.1.1.9 0 1.8-.1 2.5-.5 1.1-.7 1.5-2.1 1.6-3.4 0-.6 0-1.3-.4-1.7-1-1.2-3.2-.8-4.5-.4-.4.1-.8.3-1 .5zm-5.6-.7c.6-.3 1.4-.4 2-.2s1.2 1 .9 1.7c-.2.5-.7.8-1.2 1.1-.5.3-1.1.6-1.6.9-.5.3-1 .5-1.4 1-.6.6-.8 1.4-1 2.1-.2.7-.3 1.5-.8 2.2-.1.1-.2.2-.3.2-.1 0-.2-.1-.3-.2-1.3-1.7-1.2-4-1-6.1 0-.4.3-3 1.1-2.7.6.2.4 2.5.4 3 .8-1.4 1.8-2.4 3.2-3zm14.1-1.3c-.7 2.4-1 5-1 7.5 1-1.1 1.9-2.4 2.5-3.7 0 1.1 0 2.2.3 3.2 1.2-.1 2.1-1.1 2.8-2.1 1.8-2.5 3.2-5.3 4-8.3-.5.2-.8.6-1.2 1-1.6 2.1-3 4.3-4.2 6.6.2-1.1.2-2.2 0-3.3-.5-.1-1.1.3-1.5.7l-.9.9c.2-.8-1.1-1.5-.8-2.5zm6.8 4.9c1.7-2.9 3.1-5.8 4.4-8.9.2.7.3 1.5.2 2.2 1.2-2.3 3.1-4.2 5.4-5.4.8 3.4.8 7.1-.2 10.4-.1.2-.2.4-.4.4-.3-1.9-.9-3.8-1.8-5.5-.8-.3-1.5.4-2 1.1-.8 1-1.6 2.1-2.4 3.1-.7.8-3.1 1.6-3.2 2.6z"/><path fill="#fff" d="M92.8 218.5c-.3 1.6 3.7 1.5 4.3.2.7-1.5-2.5-.9-3.5-.8-.4 0-.8.2-.8.6zm75 7.1c-2.9 1.6-6.2 2.5-9.5 2.7 3.2-1.9 6.6-3.9 10.4-4.3.4.7-.3 1.3-.9 1.6zm-1.8-7.9c-1.5.5-2.9.8-4.4 1.1 2-3 4.7-4.7 7-4.3 0 .9-.4 1.8-1 2.4-.4.4-1 .6-1.6.8z"/></svg>