<?xml version="1.0" encoding="utf-8"?>
<!-- Generator: Adobe Illustrator 17.1.0, SVG Export Plug-In . SVG Version: 6.00 Build 0)  -->
<!DOCTYPE svg PUBLIC "-//W3C//DTD SVG 1.1//EN" "http://www.w3.org/Graphics/SVG/1.1/DTD/svg11.dtd">
<svg version="1.1" id="Layer_1" xmlns="http://www.w3.org/2000/svg" xmlns:xlink="http://www.w3.org/1999/xlink" x="0px" y="0px"
	 width="134px" height="96px" viewBox="0 0 134 96" enable-background="new 0 0 134 96" xml:space="preserve">
<g>
	<polygon fill="#FFFFFF" points="71.3,46.7 62.5,46.7 65,52.4 	"/>
	<polygon fill="#FFFFFF" points="59.6,46.8 56.1,53.1 62.3,53.1 	"/>
	<polygon fill="#FFFFFF" points="74.8,53.1 81.3,53.1 74.8,47.1 68.4,53.1 	"/>
	<polygon fill="#FFFFFF" points="87.2,46.7 78.4,46.7 84.7,52.4 	"/>
	<polygon fill="#FFFFFF" points="56.8,55.8 70.4,71.4 63.5,55.8 	"/>
	<path fill="#FFFFFF" d="M74.8,33.1c-8.6-8.7-22.6-8.7-31.3-0.1c-8.7,8.6-8.9,22.5,0.7,32c10.6,10.6,27.6,27.6,30.6,30.6
		c3-3,20-20,30.6-30.6c9.5-9.5,9.3-23.4,0.7-32C97.5,24.4,83.5,24.4,74.8,33.1z M74.8,80.8L52.1,54.6L58,43.9h16.8h16.8l5.9,10.7
		L74.8,80.8z"/>
	<polygon fill="#FFFFFF" points="74.8,55.8 66.5,55.8 74.8,74.8 83.2,55.8 	"/>
	<polygon fill="#FFFFFF" points="87.4,53.1 93.6,53.1 90.1,46.8 	"/>
	<polygon fill="#FFFFFF" points="79.3,71.4 92.9,55.8 86.2,55.8 	"/>
	<path fill="#FFFFFF" d="M34.3,17.2c-0.5,0-2-0.4-5.2-3.6c-3.4-3.3-3.7-5.3-3.7-5.8c0,0.5-0.3,2.5-3.7,5.8c-3.3,3.2-4.8,3.5-5.2,3.6
		c0.5,0,2,0.4,5.2,3.6c3.4,3.3,3.7,5.3,3.7,5.8c0-0.5,0.3-2.5,3.7-5.8C32.3,17.6,33.9,17.2,34.3,17.2z"/>
	<path fill="#FFFFFF" d="M130.3,41.5c-2.3-2.3-2.5-3.6-2.6-4c0,0.4-0.2,1.7-2.6,4c-2.2,2.2-3.3,2.4-3.6,2.5c0.3,0,1.4,0.3,3.6,2.5
		c2.3,2.3,2.5,3.6,2.6,4c0-0.4,0.2-1.7,2.6-4c2.2-2.2,3.3-2.4,3.6-2.5C133.6,43.9,132.6,43.6,130.3,41.5z"/>
	<path fill="#FFFFFF" d="M103.5,15.3c0-0.4,0.3-2,2.9-4.6c2.6-2.5,3.8-2.8,4.2-2.8c-0.4,0-1.6-0.3-4.2-2.8c-2.7-2.6-2.9-4.2-2.9-4.6
		c0,0.4-0.3,2-2.9,4.6c-2.6,2.5-3.8,2.8-4.2,2.8c0.4,0,1.6,0.3,4.2,2.8C103.3,13.3,103.5,14.8,103.5,15.3z"/>
	<path fill="#FFFFFF" d="M37.1,72c0,0.5-0.3,2.3-3.5,5.4c-3,2.9-4.4,3.3-4.9,3.3c0.4,0,1.8,0.4,4.9,3.3c3.1,3.1,3.4,4.9,3.5,5.4
		c0-0.5,0.3-2.3,3.5-5.4c3-2.9,4.4-3.3,4.9-3.3c-0.4,0-1.8-0.4-4.9-3.3C37.4,74.4,37.1,72.5,37.1,72z"/>
	<path fill="#FFFFFF" d="M6.2,48.2c0,0.4-0.2,1.7-2.6,4c-2.2,2.2-3.3,2.4-3.6,2.5c0.3,0,1.4,0.3,3.6,2.5c2.3,2.3,2.5,3.6,2.6,4
		c0-0.4,0.2-1.7,2.6-4c2.2-2.2,3.3-2.4,3.6-2.5c-0.3,0-1.4-0.3-3.6-2.5C6.4,49.9,6.2,48.6,6.2,48.2z"/>
</g>
</svg>
